<?xml version="1.0" encoding="utf-8" ?><svg xmlns="http://www.w3.org/2000/svg" xmlns:xlink="http://www.w3.org/1999/xlink" width="460" height="387" viewBox="0 0 460 387"><path d="M222.019 2.58399C325.589 -0.849875 412.309 80.3758 415.651 183.949C418.994 287.522 337.692 374.17 234.116 377.421C130.669 380.668 44.1528 299.489 40.8145 196.045C37.4762 92.6015 118.578 6.01357 222.019 2.58399ZM292.377 364.253L292.306 363.668C291.07 362.793 288.584 363.027 287.005 363.052C287.164 364.002 286.97 363.71 287.646 364.201C289.075 364.417 290.957 364.508 292.377 364.253Z"/><defs><linearGradient id="gradient_0" gradientUnits="userSpaceOnUse" x1="239.62737" y1="351.104" x2="216.81308" y2="25.408022"><stop offset="0" stop-color="#3E7BC5"/><stop offset="1" stop-color="#67B8E5"/></linearGradient></defs><path fill="url(#gradient_0)" d="M218.343 17.6283C228.058 16.9799 235.946 17.0158 245.549 18.4131C251.918 19.4281 258.254 20.6386 264.548 22.0429C266.044 22.3634 270.535 23.2579 271.793 23.7294C275.949 24.3657 283.59 26.7869 287.616 28.2907C316.355 39.0244 346.303 60.1375 364.783 84.8193C365.645 85.9713 368.808 90.4198 369.358 91.518C372.568 95.9173 382.346 111.814 383.864 116.753C389.383 130.264 394.701 143.348 397.146 157.838C397.609 160.58 398.45 165.153 398.508 167.904C399.404 172.873 399.413 178.344 399.6 183.35C400.062 195.783 399.344 206.45 397.526 218.733C396.051 228.701 395.526 233.318 392.051 242.928C388.881 251.284 386.708 259.552 382.61 267.645C378.631 275.501 374.374 282.312 369.104 289.359C368.16 290.51 367.21 293.318 366.27 294.269C357.121 303.53 349.806 313.667 339.703 322C327.091 332.402 313.082 340.575 298.336 347.564C296.133 348.608 290.391 350.964 288.056 351.403C284.306 353.131 279.682 355.151 275.768 356.499C272.755 357.537 268.357 358.257 265.132 358.955C241.097 364.202 216.199 364.067 192.223 358.558C175.329 355.094 160.938 349.921 145.9 341.329C140.489 338.12 134.794 335.12 129.743 331.333C105.86 313.423 83.6334 289.904 71.891 262.101C69.0221 255.309 66.418 250.378 64.3969 243.234C63.2136 239.263 61.7672 233.593 60.9609 229.52C59.6886 226.319 58.167 211.867 57.9366 207.924C56.9036 205.17 57.379 178.3 57.9681 174.08C58.2607 162.099 59.5827 155.692 62.2692 144.254C63.716 135.694 69.4383 122.304 73.87 114.667C74.7677 111.254 80.2649 103 81.997 99.4032C83.3497 96.5941 86.8106 92.6246 88.5624 89.6751C90.3534 86.6598 92.9642 83.3654 95.0984 80.543C107.155 66.8902 120.456 54.4097 135.947 44.7159C139.497 42.5098 143.35 40.7083 146.951 38.6095C168.777 25.8877 193.298 20.015 218.343 17.6283Z"/><path fill="#325F9E" d="M64.3969 243.234C66.496 245.254 66.1014 248.577 67.5003 251.11C68.0788 252.184 69.6364 252.648 70.2079 253.698C70.644 254.499 70.7029 254.466 71.5565 254.652L71.8346 254.429C71.6655 253.91 71.614 253.71 71.5005 253.183C70.7937 249.902 68.5055 247.681 67.3545 244.088C68.8449 245.829 70.6317 250.004 71.7281 252.155C75.0363 258.212 77.4737 265.486 81.2746 271.228C85.0816 276.98 89.259 282.946 93.2127 288.609C95.2355 291.506 98.7687 294.37 101.232 297.034C106.213 302.423 111.283 308.059 116.843 312.838C121.833 316.691 129.631 320.895 135.072 324.272C137.318 325.666 140.412 326.941 142.484 328.24C151.358 333.623 161.007 339.691 170.755 343.322C178.2 346.095 189.046 348.392 196.972 349.579C207.405 351.141 218.381 351.174 228.877 351.24C239.101 351.303 249.058 351.393 259.195 349.782C269.312 347.946 281.846 345.441 291.256 341.218C302.894 335.995 314.516 330.698 324.985 323.403C332.441 318.208 339.665 313.82 346.146 307.275C350.921 303.365 354.325 297.416 358.513 293.215C364.342 287.368 367.799 281.763 372.408 275.098C377.689 267.461 381.747 260.23 384.689 251.312C385.672 248.334 386.189 245.401 387.349 242.488L387.493 242.763C387.312 243.196 386.918 244.025 386.983 244.46C387.322 246.723 384.136 250.247 385.796 252.135C387.494 251.026 386.262 244.266 388.857 240.942L389.121 240.959C389.117 242.456 388.278 243.553 388.147 244.868C387.881 247.537 386.492 252.649 387.515 255.079C388.836 252.977 389.331 244.735 392.051 242.928C388.881 251.284 386.708 259.552 382.61 267.645C378.631 275.501 374.374 282.312 369.104 289.359C368.16 290.51 367.21 293.318 366.27 294.269C357.121 303.53 349.806 313.667 339.703 322C327.091 332.402 313.082 340.575 298.336 347.564C296.133 348.608 290.391 350.964 288.056 351.403C284.306 353.131 279.682 355.151 275.768 356.499C272.755 357.537 268.357 358.257 265.132 358.955C241.097 364.202 216.199 364.067 192.223 358.558C175.329 355.094 160.938 349.921 145.9 341.329C140.489 338.12 134.794 335.12 129.743 331.333C105.86 313.423 83.6334 289.904 71.891 262.101C69.0221 255.309 66.418 250.378 64.3969 243.234Z"/><defs><linearGradient id="gradient_1" gradientUnits="userSpaceOnUse" x1="239.274" y1="352.17398" x2="239.19925" y2="362.14209"><stop offset="0" stop-color="#35476B"/><stop offset="1" stop-color="#445A92"/></linearGradient></defs><path fill="url(#gradient_1)" d="M192.223 358.558C193.019 358.477 193.258 358.345 193.993 358.182C198.727 357.137 204.199 357.801 208.999 357.793C220.127 357.768 230.946 358.37 242.1 358.262C256.226 358.126 269.951 354.578 283.759 351.882C285.329 351.575 286.495 351.55 288.056 351.403C284.306 353.131 279.682 355.151 275.768 356.499C272.755 357.537 268.357 358.257 265.132 358.955C241.097 364.202 216.199 364.067 192.223 358.558Z"/><defs><linearGradient id="gradient_2" gradientUnits="userSpaceOnUse" x1="221.82947" y1="116.14976" x2="198.93053" y2="20.154076"><stop offset="0" stop-color="#6CBCE5"/><stop offset="1" stop-color="#96D7E8"/></linearGradient></defs><path fill="url(#gradient_2)" d="M218.343 17.6283C228.058 16.9799 235.946 17.0158 245.549 18.4131C251.918 19.4281 258.254 20.6386 264.548 22.0429C266.044 22.3634 270.535 23.2579 271.793 23.7294C275.949 24.3657 283.59 26.7869 287.616 28.2907C316.355 39.0244 346.303 60.1375 364.783 84.8193C365.645 85.9713 368.808 90.4198 369.358 91.518L369.231 92.1364C369.589 93.1661 369.983 93.119 370.397 93.8659L370.039 93.9824C368.21 93.2708 365.294 88.9179 363.746 87.2005L363.586 87.0249C362.796 87.1654 360.565 83.7481 360.104 83.3984C359.537 83.3012 355.286 82.9528 355.044 82.6801C342.222 68.2292 327.334 55.2945 309.931 46.6345C307.175 45.2631 304.213 42.9281 301.193 41.6608C283.451 34.2151 265.208 27.8807 246.068 25.2591C229.752 23.5159 211.594 25.0039 195.646 28.2849L196.069 28.9999C195.036 32.357 194.985 35.3399 191.175 37.3979C190.517 37.7535 190.044 38.0037 189.289 38.0657L188.742 37.7801C188.819 36.3786 189.032 36.4479 188.439 35.3914C182.873 31.5121 167.135 38.459 161.431 40.8373C160.478 41.2343 157.759 42.6866 156.965 42.8562C157.396 41.8954 158.267 42.0134 159.347 41.0172C158.756 40.8243 158.755 40.9141 158.09 41.0502C147.003 45.5816 136.672 52.0934 126.419 58.224C126.182 58.3656 120.853 62.1029 120.946 62.1114C115.246 61.5903 111.305 64.7201 111.469 70.6324C111.521 70.7147 111.573 70.7969 111.625 70.8792C110.432 71.692 109.439 73.6475 108.171 74.7461C99.435 82.3163 94.2019 91.9012 87.8317 101.283C84.8232 105.714 81.4139 108.798 78.4228 113.778C76.3613 113.031 78.2681 112.863 75.5225 112.974C74.9361 113.295 74.7788 113.853 74.4739 114.482C74.2125 114.584 74.1374 114.646 73.87 114.667C74.7677 111.254 80.2649 103 81.997 99.4032C83.3497 96.5941 86.8106 92.6246 88.5624 89.6751C90.3534 86.6598 92.9642 83.3654 95.0984 80.543C107.155 66.8902 120.456 54.4097 135.947 44.7159C139.497 42.5098 143.35 40.7083 146.951 38.6095C168.777 25.8877 193.298 20.015 218.343 17.6283Z"/><path fill="#B6CED6" d="M271.793 23.7294C275.949 24.3657 283.59 26.7869 287.616 28.2907C316.355 39.0244 346.303 60.1375 364.783 84.8193C365.645 85.9713 368.808 90.4198 369.358 91.518L369.231 92.1364C369.589 93.1661 369.983 93.119 370.397 93.8659L370.039 93.9824C368.21 93.2708 365.294 88.9179 363.746 87.2005L363.586 87.0249C363.154 85.9204 360.196 82.6714 359.286 81.5191C351.134 71.1886 340.99 63.0816 330.878 54.8129C325.654 50.5415 320.846 46.498 314.828 43.2427C302.116 36.5316 288.83 31.0605 275.256 26.4083C276.738 25.572 287.34 30.5487 287.852 30.4154L287.042 29.7389C287.039 29.6407 287.01 28.8551 286.945 28.8168C286.008 28.2591 284.999 27.9626 283.973 27.6033C280.117 26.2528 276.134 25.3045 272.194 24.2414C272.06 24.0707 271.927 23.9001 271.793 23.7294Z"/><path fill="#6FC2EC" d="M158.09 41.0502C162.59 38.7495 168.087 35.648 172.882 34.0566C179.991 31.6968 188.305 30.0116 195.646 28.2849L196.069 28.9999C195.036 32.357 194.985 35.3399 191.175 37.3979C190.517 37.7535 190.044 38.0037 189.289 38.0657L188.742 37.7801C188.819 36.3786 189.032 36.4479 188.439 35.3914C182.873 31.5121 167.135 38.459 161.431 40.8373C160.478 41.2343 157.759 42.6866 156.965 42.8562C157.396 41.8954 158.267 42.0134 159.347 41.0172C158.756 40.8243 158.755 40.9141 158.09 41.0502Z"/><path fill="#B6CED6" d="M218.343 17.6283C228.058 16.9799 235.946 17.0158 245.549 18.4131C244.186 18.6906 243.227 18.6032 241.847 18.4176C236.309 17.6672 230.801 18.1407 225.242 17.8764C222.742 17.7575 220.837 18.4971 218.343 17.6283Z"/><path fill="#BEF4F3" d="M156.965 42.8562C157.759 42.6866 160.478 41.2343 161.431 40.8373C167.135 38.459 182.873 31.5121 188.439 35.3914C189.032 36.4479 188.819 36.3786 188.742 37.7801C186.38 46.8301 175.08 48.1201 167.566 51.1283C164.38 52.4038 150.946 57.0928 148.709 54.6781C146.83 49.4717 153.218 45.4056 156.965 42.8562Z"/><defs><linearGradient id="gradient_3" gradientUnits="userSpaceOnUse" x1="388.18738" y1="137.98073" x2="391.3139" y2="136.72032"><stop offset="0" stop-color="#6DB4DC"/><stop offset="1" stop-color="#96CCD7"/></linearGradient></defs><path fill="url(#gradient_3)" d="M383.864 116.753C389.383 130.264 394.701 143.348 397.146 157.838C397.609 160.58 398.45 165.153 398.508 167.904C397.337 167.832 397.78 158.341 395.654 156.15L395.678 156.346L395.721 156.674C396.02 159.097 397.255 161.774 396.949 163.946C396.444 163.43 391.339 143.511 390.797 140.998C389.664 135.748 382.556 122.922 382.366 118.747L382.595 118.792L383.646 120.729C383.732 119.104 383.299 117.837 383.864 116.753Z"/><path fill="#B6CED6" d="M62.2692 144.254C63.0598 144.643 62.7892 144.418 63.2493 145.242C63.3057 146.609 62.9892 148.163 62.7402 149.516C61.3197 157.237 61.0457 165.103 59.7132 172.84C59.5861 173.578 58.8783 174.307 58.4136 174.884L58.6064 175.401C58.1521 174.991 58.1959 174.751 57.9681 174.08C58.2607 162.099 59.5827 155.692 62.2692 144.254Z"/><path fill="#6FC2EC" d="M57.9366 207.924L58.2066 207.671C58.7104 209.429 57.7356 211.66 60.0885 212.703L60.4847 212.523C60.5562 211.107 59.9047 210.41 59.9961 208.925L60.223 208.975C61.7314 212.185 61.6224 221.275 62.5002 225.179C62.7824 226.435 62.3951 228.288 61.2631 229.131L61.2178 229.515L60.9609 229.52C59.6886 226.319 58.167 211.867 57.9366 207.924Z"/><path fill="#1B3F70" d="M201.098 330.019C149.373 319.98 107.351 282.326 91.7174 232.009C76.0838 181.692 89.3689 126.854 126.297 89.2711C163.226 51.6877 217.822 37.4409 268.406 52.1878L268.553 51.8806L270.062 51.9665C270.611 52.6404 270.312 52.444 271.298 52.6058C272.883 51.9375 271.809 51.7311 272.675 51.6545L273.229 52.1638C274.201 51.0303 274.002 50.74 275.387 50.9614C276.578 51.1519 278.478 49.8677 279.781 50.2005C283.407 50.3392 282.777 50.5191 285.341 53.1355C285.866 53.6723 286.315 54.3647 286.522 55.0791C286.265 56.2906 286.299 57.4518 286.883 58.5581C288.004 59.0241 288.868 59.6031 289.759 59.9891L289.341 60.1152C342.024 84.9352 374.407 139.208 371.231 197.357C368.056 255.507 329.954 305.93 274.882 324.865L274.924 325.179C270.586 327.046 266.017 328.19 261.527 329.507C260.225 329.888 251.567 331.525 251.35 331.721L251.359 332.597C252.78 333.414 263.727 330.347 266.007 329.906C268.192 329.483 274.367 327.033 276.18 326.968L276.29 327.064C253.898 335.006 228.294 338.679 205.031 332.838C203.832 332.537 201.448 332.448 200.568 331.913C205.549 332.359 210.533 333.495 215.421 334.35C215.81 334.418 216.317 334.431 216.757 334.506L216.928 334.256C215.25 331.259 210.203 333.052 208.199 331.692C207.039 331.769 201.993 330.765 200.748 330.365L200.832 330.139L201.098 330.019Z"/><path fill="#6FC2EC" d="M274.882 324.865L274.924 325.179C270.586 327.046 266.017 328.19 261.527 329.507C260.225 329.888 251.567 331.525 251.35 331.721L251.359 332.597C252.78 333.414 263.727 330.347 266.007 329.906C268.192 329.483 274.367 327.033 276.18 326.968L276.29 327.064C253.898 335.006 228.294 338.679 205.031 332.838C203.832 332.537 201.448 332.448 200.568 331.913C205.549 332.359 210.533 333.495 215.421 334.35C215.81 334.418 216.317 334.431 216.757 334.506L216.928 334.256C215.25 331.259 210.203 333.052 208.199 331.692C207.039 331.769 201.993 330.765 200.748 330.365L200.832 330.139L201.098 330.019C225.719 334.797 251.164 333.02 274.882 324.865Z"/><path fill="#6FC2EC" d="M268.406 52.1878L268.553 51.8806L270.062 51.9665C270.611 52.6404 270.312 52.444 271.298 52.6058C272.883 51.9375 271.809 51.7311 272.675 51.6545L273.229 52.1638C274.201 51.0303 274.002 50.74 275.387 50.9614C276.578 51.1519 278.478 49.8677 279.781 50.2005C283.407 50.3392 282.777 50.5191 285.341 53.1355C285.866 53.6723 286.315 54.3647 286.522 55.0791C286.265 56.2906 286.299 57.4518 286.883 58.5581C288.004 59.0241 288.868 59.6031 289.759 59.9891L289.341 60.1152C282.581 56.9301 275.581 54.2795 268.406 52.1878Z"/><defs><linearGradient id="gradient_4" gradientUnits="userSpaceOnUse" x1="216.59998" y1="324.61453" x2="238.61508" y2="65.137032"><stop offset="0" stop-color="#306DBA"/><stop offset="1" stop-color="#56A6DA"/></linearGradient></defs><path fill="url(#gradient_4)" d="M93.0068 179.149C93.1107 166.779 97.2505 155.24 100.704 143.772C114.42 98.8176 154.703 65.4349 200.372 56.4156C253.021 46.0179 305.67 65.1053 337.671 108.354C340.007 111.51 355.987 138.536 355.54 141.12C355.682 142.444 356.4 143.796 356.895 145.057C358.54 149.242 360.835 153.233 361.051 157.83C361.926 162.662 362.089 164.202 362.128 169.102C366.511 180.236 363.203 208.828 360.573 220.805C358.604 229.768 355.857 237.06 352.234 245.381C340.797 271.052 321.55 292.457 297.234 306.545C264.969 325.161 227.718 330.57 191.783 320.405C187.801 319.278 184.458 317.606 180.633 316.269C147.407 304.646 116.88 276.167 103.421 243.593C101.651 239.31 100.63 234.449 99.2318 230.02C94.0784 214.591 89.8407 195.502 93.0068 179.149Z"/><path fill="#4070A8" d="M93.0068 179.149C93.1107 166.779 97.2505 155.24 100.704 143.772C114.42 98.8176 154.703 65.4349 200.372 56.4156C253.021 46.0179 305.67 65.1053 337.671 108.354C340.007 111.51 355.987 138.536 355.54 141.12C355.682 142.444 356.4 143.796 356.895 145.057C358.54 149.242 360.835 153.233 361.051 157.83C361.926 162.662 362.089 164.202 362.128 169.102C360.367 164.228 358.026 159.667 356.485 154.676C355.653 151.982 354.243 149.037 352.919 146.575C351.415 145.029 349.158 139.939 348.005 137.827L348.163 136.169C347.685 134.559 347.572 133.89 347.362 132.213C345.042 129.611 342.506 124.583 339.921 121.235C337.019 117.577 333.823 114.139 330.723 110.624C327.338 106.785 323.992 102.536 320.048 99.202C313.541 93.6998 306.294 88.5573 299.183 83.8523C296.157 81.8501 292.346 80.4885 289.149 78.7974C274.217 71.4678 258.001 67.0131 241.486 65.1943C229.833 63.9109 217.309 64.2991 205.711 66.2504C200.201 67.1773 192.395 69.84 186.68 71.2621C178.195 73.3732 168.859 78.0715 160.954 81.8123C153.902 85.8974 147.384 90.9806 140.906 95.8892C132.254 102.446 125.911 110.312 119.632 119.025C115.17 125.218 110.89 130.532 107.698 137.559C106.747 139.652 104.831 142.417 104.108 144.482C101.37 148.109 99.6204 151.959 99.2411 156.527C97.1751 161.635 94.5642 173.095 93.0068 179.149Z"/><path fill="#325F9E" d="M361.051 157.83C359.162 153.841 357.074 149.92 355.278 145.895C353.868 142.736 352.836 139.369 351.51 136.158L351.834 136.047C352.84 137.013 352.788 138.745 353.8 139.644C354.348 140.13 354.972 140.653 355.54 141.12C355.682 142.444 356.4 143.796 356.895 145.057C358.54 149.242 360.835 153.233 361.051 157.83Z"/><path fill="#4A81BC" d="M348.163 136.169C350.014 138.431 351.444 140.626 352.191 143.486C352.518 144.738 352.425 145.254 352.919 146.575C351.415 145.029 349.158 139.939 348.005 137.827L348.163 136.169Z"/><path fill="#325F9E" d="M347.898 132.589C351.832 136.113 351.708 138.19 353.303 143.417C351.941 141.433 350.046 137.592 348.517 135.522C348.526 135.534 348.026 133.036 347.898 132.589Z"/><defs><linearGradient id="gradient_5" gradientUnits="userSpaceOnUse" x1="341.39206" y1="128.92436" x2="345.97018" y2="127.79803"><stop offset="0" stop-color="#5A94D4"/><stop offset="1" stop-color="#4E7CB3"/></linearGradient></defs><path fill="url(#gradient_5)" d="M339.921 121.235C342.506 124.583 345.042 129.611 347.362 132.213C347.572 133.89 347.685 134.559 348.163 136.169L348.005 137.827C347.068 133.766 340.839 127.351 339.534 122.746C339.329 122.02 339.517 122.018 339.921 121.235Z"/><path fill="#4A81BC" d="M99.2411 156.527C99.6204 151.959 101.37 148.109 104.108 144.482C103.26 149.114 102.859 152.878 99.2411 156.527Z"/><defs><linearGradient id="gradient_6" gradientUnits="userSpaceOnUse" x1="215.30421" y1="108.10746" x2="234.19838" y2="273.93405"><stop offset="0" stop-color="#82611A"/><stop offset="1" stop-color="#9E6016"/></linearGradient></defs><path fill="url(#gradient_6)" d="M187.765 111.72C211.914 105.337 234.453 112.823 249.542 132.127C250.413 133.242 251.202 134.47 252.067 135.532C252.869 135.871 252.495 136.155 253.515 136.336L254 135.987C254.42 134.812 254.955 133.381 256.397 133.11C258.946 132.632 258.562 130.13 260.61 128.161C263.417 122.659 263.36 111.899 272.217 111.772C282.565 111.623 293.714 110.911 303.898 112.67C306.375 113.097 308.094 115.814 309.173 117.838C310.328 120.766 308.685 129.664 307.808 132.732L307.571 132.22C305.194 134.079 298.198 161.303 296.535 166.208C295.298 169.858 292.622 174.427 291.3 178.054C289.393 183.286 287.912 188.507 285.754 193.733C284.426 196.951 282.291 200.371 281.186 203.336C279.96 211.54 287.479 227.959 293.644 233.617L293.801 233.361C296.673 228.594 296.965 220.754 303.504 219.079C307.721 217.998 312.85 219.408 316.57 221.472C320.099 223.43 320.95 226.059 321.507 229.835C324.542 237.56 322.346 244.362 320.354 252.172C317.935 261.657 309.789 273.475 299.731 276.038C291.196 278.214 283.557 277.341 275.825 273.299C267.057 268.714 264.037 262.064 259.796 253.562C259.541 253.059 256.823 249.434 256.33 249.193L255.83 249.422C254.148 254.05 250.06 257.651 246.577 260.931C239.471 267.623 233.286 270.55 224.136 273.642C220.865 274.743 216.847 276.558 213.405 276.902C205.776 277.665 194.997 277.798 187.662 275.563C181.665 273.736 173.498 270.384 168.148 267.301C162.455 263.497 156.676 258.749 151.977 253.809C146.024 247.552 143.463 240.895 140.068 233.429C135.503 223.388 132.565 220.322 133.23 208.988C132.985 205.187 132.778 192 133.23 188.387C133.228 187.806 133.241 187.224 133.267 186.643C134.017 168.748 140.982 152.934 150.563 138.091C154.946 131.3 161.684 126.507 167.534 121.173C169.92 117.479 178.138 111.519 182.466 112.577L182.808 112.664C184.096 112.097 186.368 111.413 187.765 111.72Z"/><path fill="#325F9E" d="M133.23 208.988C134.348 215.228 142.722 233.867 147.172 238.257C150.68 242.953 157.206 251.729 162.219 254.443C176.894 266.913 197.197 269.194 215.689 267.144C228.138 265.764 239.939 259.73 248.64 250.798C251.438 247.925 251.749 244.667 256.128 244.084C258.933 245.129 263.645 252.944 265.675 255.655C266.971 257.421 268.413 259.075 269.985 260.6C276.529 266.96 284.863 267.51 293.468 267.653C308.533 267.905 316.51 256.22 319.385 242.777C320.422 237.927 321.61 235.217 321.507 229.835C324.542 237.56 322.346 244.362 320.354 252.172C317.935 261.657 309.789 273.475 299.731 276.038C291.196 278.214 283.557 277.341 275.825 273.299C267.057 268.714 264.037 262.064 259.796 253.562C259.541 253.059 256.823 249.434 256.33 249.193L255.83 249.422C254.148 254.05 250.06 257.651 246.577 260.931C239.471 267.623 233.286 270.55 224.136 273.642C220.865 274.743 216.847 276.558 213.405 276.902C205.776 277.665 194.997 277.798 187.662 275.563C181.665 273.736 173.498 270.384 168.148 267.301C162.455 263.497 156.676 258.749 151.977 253.809C146.024 247.552 143.463 240.895 140.068 233.429C135.503 223.388 132.565 220.322 133.23 208.988Z"/><path fill="#4070A8" d="M309.173 117.838C310.328 120.766 308.685 129.664 307.808 132.732L307.571 132.22C305.194 134.079 298.198 161.303 296.535 166.208C295.298 169.858 292.622 174.427 291.3 178.054C289.393 183.286 287.912 188.507 285.754 193.733C284.426 196.951 282.291 200.371 281.186 203.336C282.008 192.591 285.605 183.696 289.457 173.848C291.531 168.547 292.859 162.608 294.985 157.239C297.759 150.234 300.668 143.347 303.134 136.227C305.598 129.18 308.593 125.518 309.173 117.838Z"/><path fill="#5C5B52" d="M133.23 208.988C132.985 205.187 132.778 192 133.23 188.387C133.296 190.068 133.143 198.414 133.439 199.39C135.008 204.575 136.439 208.997 137.372 214.311C138.031 218.062 143.116 232.072 145.613 233.977C146.125 235.77 146.64 236.687 147.172 238.257C142.722 233.867 134.348 215.228 133.23 208.988Z"/><path fill="#886019" d="M145.613 233.977C149.534 237.598 151.109 240.585 154.229 244.808C155.245 246.183 158.257 248.31 159.484 249.762C160.656 251.151 160.645 252.425 162.087 253.563L162.219 254.443C157.206 251.729 150.68 242.953 147.172 238.257C146.64 236.687 146.125 235.77 145.613 233.977Z"/><path fill="#4F8EA9" d="M167.534 121.173C169.92 117.479 178.138 111.519 182.466 112.577L182.808 112.664C184.096 112.097 186.368 111.413 187.765 111.72C183.801 113.042 180.293 114.166 176.492 115.962C174.65 116.93 172.811 117.875 171.017 118.932C169.791 119.812 168.837 120.402 167.534 121.173Z"/><path fill="#4F8EA9" d="M252.067 135.532C252.869 135.871 252.495 136.155 253.515 136.336L254 135.987C254.42 134.812 254.955 133.381 256.397 133.11C258.946 132.632 258.562 130.13 260.61 128.161C258.64 135.163 258.219 134.522 254.701 139.865C253.802 138.481 252.785 137.005 252.067 135.532Z"/><defs><linearGradient id="gradient_7" gradientUnits="userSpaceOnUse" x1="220.95383" y1="263.78946" x2="237.85675" y2="122.23621"><stop offset="0" stop-color="#F7C529"/><stop offset="1" stop-color="#F9EC45"/></linearGradient></defs><path fill="url(#gradient_7)" d="M143.94 168.642C144.666 162.669 148.618 153.375 151.847 148.291C154.488 143.923 157.772 140.26 161.14 136.488C188.856 105.451 236.711 110.944 252.593 150.876C253.72 153.71 255.128 156.423 255.829 159.505L256.238 159.654C257.678 158.78 261.735 147.807 262.592 145.706C262.647 145.183 264.494 139.985 264.762 139.124C266.762 132.717 269.436 126.032 270.938 119.53C280.56 119.55 292.762 119.11 302.148 119.613C301.097 123.533 299.845 127.397 298.398 131.189C294.549 142.107 290.094 152.67 286.317 163.74C281.357 176.626 276.549 189.087 272.273 202.264C271.455 204.784 278.513 221.883 280.076 226.06C283.975 236.485 297.895 247.654 303.258 231.484C305.517 224.672 308.887 223.944 314.61 227.62C314.95 232.434 314.023 236.981 312.95 241.636C310.575 251.942 304.547 260.577 293.159 261.062C285.275 261.398 279.504 259.779 273.543 254.39C265.579 247.19 264.153 236.54 260.63 227.031C256.673 231.942 252.764 238.061 248.766 242.552C228.285 265.559 188.874 268.009 165.177 248.496C143.234 230.76 136.674 200.546 142.539 173.798C142.866 172.304 143.348 170.023 143.94 168.642Z"/><path fill="#F4EF8A" d="M143.94 168.642C144.666 162.669 148.618 153.375 151.847 148.291C154.488 143.923 157.772 140.26 161.14 136.488C188.856 105.451 236.711 110.944 252.593 150.876C253.72 153.71 255.128 156.423 255.829 159.505C256.133 160.898 259.349 162.538 259.592 164.957C258.255 166.845 255.009 170.522 252.441 169.328C250.529 167.403 251.234 163.617 249.921 160.952C247.945 149.726 237.696 138.983 228.809 132.426C226.446 130.683 224.196 129.844 221.53 128.716C213.195 125.188 206.24 124.798 197.374 126.233C187.24 127.874 177.713 132.482 169.582 138.696C166.302 141.202 161.645 147.395 159.117 150.744C156.639 154.027 155.213 158.606 153.508 162.351C152.665 164.202 151.496 165.814 150.954 167.758C150.74 168.528 150.438 169.424 149.961 170.056L149.605 170.104C149.732 168.036 151.26 167.683 150.74 166.641C149.426 166.134 147.208 166.143 145.753 165.426C145.58 165.491 145.408 165.556 145.235 165.621C144.279 167.137 144.886 167.875 143.94 168.642Z"/><path fill="#F4EF8A" d="M270.938 119.53C280.56 119.55 292.762 119.11 302.148 119.613C301.097 123.533 299.845 127.397 298.398 131.189C295.327 128.485 294.405 128.499 290.306 128.689C285.871 128.896 281.055 128.638 276.651 129.127C275.151 131.357 275.978 131.463 275.116 133.41C274.553 134.682 271.844 136.611 271.145 138.051C269.295 141.86 269.393 145.948 267.849 149.94C265.347 152.891 264.234 161.393 259.708 162.212C258.676 162.399 257.651 161.082 256.979 160.354C257.756 157.29 262.78 149.215 262.592 145.706C262.647 145.183 264.494 139.985 264.762 139.124C266.762 132.717 269.436 126.032 270.938 119.53Z"/><path fill="#F3EC5C" d="M262.592 145.706C262.78 149.215 257.756 157.29 256.979 160.354C257.651 161.082 258.676 162.399 259.708 162.212C264.234 161.393 265.347 152.891 267.849 149.94C266.809 153.598 264.64 157.935 262.545 161.126C262.366 161.905 259.77 163.136 259.827 163.842C259.899 164.722 261.69 167.49 259.813 167.921C258.51 168.221 253.168 170.364 252.274 170C250.532 169.291 249.91 162.679 249.921 160.952C251.234 163.617 250.529 167.403 252.441 169.328C255.009 170.522 258.255 166.845 259.592 164.957C259.349 162.538 256.133 160.898 255.829 159.505L256.238 159.654C257.678 158.78 261.735 147.807 262.592 145.706Z"/><path fill="#886019" d="M204.219 135.599C220.581 133.441 232.115 147.919 237.313 161.427C238.926 165.618 246.948 188.906 246.029 192.214C241.199 209.604 231.379 235.316 213.557 242.751C190.429 251.759 176.379 224.369 173.187 205.94C169.269 183.327 175.52 138.367 204.219 135.599Z"/><defs><linearGradient id="gradient_8" gradientUnits="userSpaceOnUse" x1="218.772" y1="233.47983" x2="195.28262" y2="151.71996"><stop offset="0" stop-color="#377DC7"/><stop offset="1" stop-color="#5098D2"/></linearGradient></defs><path fill="url(#gradient_8)" d="M180.053 203.554C176.796 194.878 178.566 177.138 181.326 168.209C183.637 160.733 185.911 154.155 191.553 148.492C193.224 146.494 195.03 144.35 197.385 143.132C207.469 137.92 222.367 143.133 226.895 153.546C227.733 155.474 229.537 158.333 230.167 160.375C233.206 170.234 237.841 179.984 238.661 190.339C238.834 192.52 238.09 194.575 237.465 196.534C231.371 211.727 222.015 244.169 197.731 236.111C192.319 234.316 187.829 227.702 185.955 222.648C184.268 217.877 180.983 208.425 180.053 203.554Z"/><path fill="#325F9E" d="M180.053 203.554C176.796 194.878 178.566 177.138 181.326 168.209C183.637 160.733 185.911 154.155 191.553 148.492C193.224 146.494 195.03 144.35 197.385 143.132C207.469 137.92 222.367 143.133 226.895 153.546C227.733 155.474 229.537 158.333 230.167 160.375C233.206 170.234 237.841 179.984 238.661 190.339C238.834 192.52 238.09 194.575 237.465 196.534C237.46 194.453 236.424 191.442 235.873 189.369C231.738 173.81 224.083 147.67 203.712 148.549C201.053 148.324 199.639 149.745 197.762 151.31C186.094 161.037 181.351 176.716 181.255 191.503C181.241 193.693 181.177 200.602 180.555 202.29L180.54 200.761L180.239 200.646C179.806 201.575 180.175 202.262 180.053 203.554Z"/><path fill="#6FC2EC" d="M291.414 322.027L291.535 322.095L291.529 322.39C288.654 323.8 285.742 325.035 282.916 326.547C281.873 327.106 281.216 326.805 279.904 327.755C281.033 328.056 282.189 328.232 283.196 327.659C284.278 327.043 290.266 324.455 290.99 324.58C290.009 324.847 288.825 325.623 287.782 326.091C285.365 327.15 282.931 328.171 280.482 329.154C248.532 341.92 211.188 341.814 179.162 329.799C175.626 328.472 168.797 325.891 165.792 323.89C167.696 324.414 171.899 326.391 173.908 327.28C176.775 328.549 179.919 329.6 182.684 330.84C183.392 330.803 184.832 331.494 185.539 331.618C187.922 332.039 195.628 334.982 197.683 334.665C198.136 334.985 198.333 334.992 198.869 335.133L199.18 334.912C196.913 333.681 193.595 333.106 191.418 332.408C187.873 331.272 170.886 325.964 169.025 324.083L169.224 323.899C170.092 324.218 171.767 325.223 172.093 325.311C174.183 325.876 176.604 327.168 178.435 327.783C182.533 328.996 186.765 330.691 190.846 331.831C201.595 334.834 216.025 337.222 227.125 337.179C248.447 337.096 272.49 331.976 291.414 322.027Z"/><path fill="#6FC2EC" d="M150.426 55.7573C151.918 55.8403 153.475 57.135 153.439 58.6858C152.845 59.2638 153.001 59.0751 151.901 59.119C150.64 59.132 149.037 59.1258 148.264 57.9406C148.289 57.2589 148.19 57.5723 148.631 56.9907L149.794 56.9013L149.969 56.6294L149.357 56.6749C149.597 56.0468 149.658 56.1903 150.426 55.7573Z"/><path fill="#171817" d="M396.459 255.624C397.852 255.997 398.087 256.599 398.963 257.759C398.25 258.811 397.586 260.168 396.989 261.308C396.677 261.787 396.749 261.668 396.307 262.058L395.925 261.86C395.495 260.393 395.72 256.944 396.459 255.624Z"/><path fill="#171817" d="M356.204 319.652L356.522 320.031C356.345 322.211 355.279 325.099 353.085 325.913L352.673 325.155C352.842 323.654 355.102 321.376 356.204 319.652Z"/><path fill="#171817" d="M347.562 328.317C348.944 328.192 349.584 328.061 350.369 329.237L350.176 329.713C349.444 330.192 349.205 330.083 348.271 330.014C347.103 329.98 346.093 330.048 345.117 329.452L345.034 329.061C345.81 328.421 346.536 328.452 347.562 328.317Z"/><path fill="#171817" d="M337.422 335.193C338.497 335.152 339.973 335.203 340.903 335.751C341.456 336.502 341.35 336.129 341.248 337.117C340.065 337.587 340.106 337.684 338.998 337.484C338.175 336.899 337.895 336.112 337.422 335.193Z"/><path d="M287.005 363.052C288.584 363.027 291.07 362.793 292.306 363.668L292.377 364.253C290.957 364.508 289.075 364.417 287.646 364.201C286.97 363.71 287.164 364.002 287.005 363.052Z"/><path fill="#171817" d="M372.369 301.328C372.578 301.239 373.045 301.184 373.293 301.144L373.625 301.451C373.528 302.429 372.945 303.244 372.446 304.125C371.785 303.551 371.009 303.009 370.673 302.24C371.104 301.56 371.447 301.636 372.369 301.328Z"/><path fill="#171817" d="M355.223 309.173C356.077 309.671 356.454 310.878 356.71 311.79C355.823 311.57 355.76 311.582 355.131 310.963C354.862 309.964 354.936 310.292 355.223 309.173Z"/></svg>