<?xml version="1.0" encoding="utf-8" ?><svg xmlns="http://www.w3.org/2000/svg" xmlns:xlink="http://www.w3.org/1999/xlink" width="460" height="387" viewBox="0 0 460 387"><defs><linearGradient id="gradient_0" gradientUnits="userSpaceOnUse" x1="219.31476" y1="6.0618334" x2="237.94107" y2="380.23877"><stop offset="0" stop-color="#050506"/><stop offset="1" stop-color="#102510"/></linearGradient></defs><path fill="url(#gradient_0)" d="M321.755 0.580056C329.441 0.290652 335.805 1.54787 341.99 6.47865C348.58 11.7322 354.08 18.0178 359.976 23.9924L381.658 45.5517L414.388 78.4077L432.336 96.1596C439.202 103.014 448.17 111.631 452.94 120.111C455.554 124.759 454.587 129.496 453.138 134.27C454.878 139.254 457.243 143.213 455.275 148.766C454.845 149.982 454.129 151.114 453.585 152.356C452.358 155.154 455.259 158.712 456.025 161.37C458.113 165.013 455 168.489 455.087 171.587C455.333 180.445 456.629 184.225 452.744 192.896C457.437 202.231 456.251 205.078 453.293 214.672C453.847 215.87 454.549 217.315 454.977 218.573C457.923 227.333 451.399 238.632 443.713 242.9C439.676 245.142 433.825 247.291 429.405 249.345L396.956 264.521L316.834 301.93L189.714 361.714C175.871 368.06 162.208 375.016 148.28 381.195C145.142 382.587 142.182 383.733 138.928 384.826C128.776 387.357 122.576 385.939 113.863 380.177C110.253 377.789 105.88 372.391 102.721 369.152C96.9767 363.261 91.1167 357.436 85.6427 351.307C83.16 348.546 79.4869 345.717 76.7767 342.909L34.0113 298.778L13.8335 278.115C10.9031 275.15 9.7882 273.089 6.30732 270.382C5.17068 267.068 2.76557 262.297 2.42697 258.999C2.02132 255.048 3.82026 251.412 3.80704 246.836C3.79306 241.997 2.30462 239.914 1.97567 235.607C1.76525 232.852 3.16982 227.752 3.32855 224.74C3.50248 221.439 2.47273 219.237 2.35824 215.998C2.24645 212.835 3.22076 209.388 3.2082 206.343C3.19336 202.747 1.12083 199.494 1.13346 195.612C1.14315 192.632 2.03225 190.955 2.7593 188.124C3.91731 183.995 2.23263 180.153 1.55818 176.249C0.731553 171.464 3.71276 168.152 2.38822 162.807C1.43095 158.943 2.72172 150.692 5.47985 147.617C11.314 141.112 21.4935 137.398 29.346 133.799L70.9593 115.099L170.07 69.5535C171.644 68.8408 173.111 67.5481 174.843 66.7549L278.927 18.9542C281.008 18.0016 282.89 16.9071 284.92 15.9445L299.64 9.08349C306.213 5.9584 314.503 1.82855 321.755 0.580056ZM69.3403 326.958C69.8611 324.706 68.9355 324.115 66.7165 323.941C66.5709 325.607 67.9377 326.37 69.3403 326.958Z"/><path fill="#74B95A" d="M163.751 89.4619C168.563 87.0295 173.625 84.978 178.445 82.5685C203.35 70.1172 229.12 59.4648 254.097 47.1539C259.307 44.5861 265.009 42.3943 270.316 39.9448L306.74 22.981C312.661 20.2216 320.499 16.1766 326.574 14.2293C328.707 15.3552 330.707 16.7159 332.538 18.286C336.532 21.6668 342.022 27.534 345.937 31.3915C349.044 34.4516 354.911 39.9199 357.561 43.042C361.926 46.7827 367.291 52.4632 371.381 56.6185L392.291 77.7264L413.248 98.5411C419.909 105.043 426.643 111.243 432.955 118.128C435.861 121.298 436.806 122.065 438.818 126.036C434.622 127.991 432.423 129.39 428.536 131.692C426.822 132.707 421.827 134.873 419.827 135.679C418.429 136.327 416.773 137.149 415.351 137.678C411.084 139.775 406.235 142.285 401.932 144.171C399.305 145.536 391.256 149.666 388.679 150.641C383.832 153.299 377.114 156.03 372.027 158.579C370.067 159.561 360.336 164.299 358.802 164.667C357.063 165.692 353.967 167.202 352.083 167.888C350.644 168.84 346.681 170.612 344.94 171.423C342.031 172.768 339.129 174.131 336.236 175.513C334.984 176.122 332.309 177.559 331.225 177.95C329.825 178.896 328.124 179.727 326.612 180.495C316.513 185.624 306.043 189.998 295.786 194.807C269.46 207.38 243.024 219.718 216.48 231.823C214.225 232.868 212.041 233.906 209.724 234.813C206.763 236.218 200.616 239.34 197.799 240.38C192.739 243.114 185.016 246.726 179.584 248.856C178.703 249.499 169.379 253.52 167.875 254.206C160.218 257.746 152.527 261.213 144.805 264.608C136.2 268.461 131.57 273.214 123.661 266.028C107.775 251.595 93.5896 235.572 78.6088 220.279L49.8868 190.778C45.2168 185.949 40.5738 182.028 36.4118 176.592C33.5144 173.704 30.8898 170.881 28.0844 167.951C24.3239 164.025 21.7507 161.756 18.6302 157.234C22.8565 153.669 36.6958 147.591 42.1958 145.144L65.6809 134.628L158.835 91.8314C159.774 91.2243 162.656 89.9488 163.751 89.4619Z"/><path fill="#BBDC89" d="M158.835 91.8314L159.28 92.1438C154.816 94.3142 150.417 96.5049 145.793 98.32C144.833 98.6966 142.63 99.4795 142.195 100.346C142.361 102.626 142.292 102.313 140.638 103.853C141.302 103.841 140.572 103.927 141.164 103.642C144.589 101.996 148.713 101.68 152.18 100.135C153.912 99.3632 154.799 97.0737 156.185 97.148L156.394 97.3353C153.166 99.0827 153.398 101.176 148.621 101.763C142.827 102.474 137.952 106.61 132.713 108.879C130.651 109.772 128.322 111.484 126.433 112.831L126.321 112.733C127.323 111.677 128.14 110.867 129.213 109.885C126.633 109.85 124.173 111.149 122.028 112.471C120.485 113.422 117.714 114.37 116.425 115.413C116.144 116.599 116.496 117.493 115.846 118.392C114.905 119.04 113.833 118.831 112.674 119.305C106.619 121.782 100.09 123.406 94.0507 125.895C90.0289 127.552 86.6225 130.786 82.6836 132.575C80.912 133.203 79.5111 132.556 77.8075 133.544C75.9669 134.611 75.9637 138.147 74.0046 138.617C68.6916 139.892 64.3831 142.007 59.4903 144.373C55.66 146.225 51.4889 147.345 47.7216 149.405C42.9621 151.861 37.6897 153.849 32.994 156.347C33.2012 160.036 33.4129 160.441 34.4044 164.059L34.1058 164.124C33.2202 162.142 32.6449 159.556 32.7853 157.361C32.3226 156.45 31.6964 156.364 30.6345 155.79C30.3335 156.252 30.3542 156.377 30.2562 156.916C28.6386 158.05 30.0064 162.272 25.9299 164.686C27.2991 166.311 36.2818 175.503 36.5361 176.438L36.4118 176.592C33.5144 173.704 30.8898 170.881 28.0844 167.951C24.3239 164.025 21.7507 161.756 18.6302 157.234C22.8565 153.669 36.6958 147.591 42.1958 145.144L65.6809 134.628L158.835 91.8314Z"/><path fill="#BBDC89" d="M163.751 89.4619C168.563 87.0295 173.625 84.978 178.445 82.5685C203.35 70.1172 229.12 59.4648 254.097 47.1539C259.307 44.5861 265.009 42.3943 270.316 39.9448L306.74 22.981C312.661 20.2216 320.499 16.1766 326.574 14.2293C328.707 15.3552 330.707 16.7159 332.538 18.286C336.532 21.6668 342.022 27.534 345.937 31.3915C349.044 34.4516 354.911 39.9199 357.561 43.042L357.417 43.4667C355.727 42.5642 349.918 35.8639 347.895 34.1212C345.056 31.6754 342.03 28.0066 339.233 25.3981C339.227 25.3931 338.401 25.8266 338.385 25.8243C335.824 25.548 335.61 25.9355 333.625 24.3577C331.072 22.3291 321.88 20.5023 320.997 24.7723C321.439 24.9386 324.044 24.8648 324.473 24.7652C328.252 23.887 330.677 25.9995 333.614 26.6336C335.973 27.1432 337.296 26.5604 340.286 27.5003L340.155 27.7814C335.678 28.3042 332.153 26.0125 328.923 25.3912C324.536 24.5475 311.531 26.0925 307.283 27.2427C304.783 27.586 304.321 27.7766 302.078 28.8643C302.607 28.3396 302.838 28.1068 303.435 27.6709C302.28 27.8185 298.895 27.2377 298.709 27.3199C295.003 28.9556 291.251 31.086 287.467 32.5824C284.496 33.7575 285.742 33.1202 283.58 34.9781C283.009 34.9381 282.993 34.9142 282.447 34.7219C282.011 35.0913 282.048 35.2159 281.915 35.7772C281.279 36.066 280.705 35.9391 279.992 35.8883C271.017 40.413 261.819 44.0297 252.807 48.2983L164.279 89.7178L163.751 89.4619Z"/><path fill="#BBDC89" d="M208.553 233.818C209.182 234.081 209.557 234.055 209.724 234.813C206.763 236.218 200.616 239.34 197.799 240.38C192.739 243.114 185.016 246.726 179.584 248.856L179.607 248.58C180.178 247.838 188.63 244.323 190.31 243.398L190.254 243.109C189.204 242.823 182.172 246.824 180.441 247.244L180.262 247.057C185.076 245.181 192.153 241.37 197.238 239.093C199.828 238.097 206.086 235.142 208.553 233.818Z"/><path fill="#95C975" d="M302.078 28.8643C304.321 27.7766 304.783 27.586 307.283 27.2427C306.706 27.6379 305.27 29.2798 305.124 29.3436C299.37 31.857 293.318 33.7846 287.64 36.4802C285.313 37.583 284.647 39.6693 282.71 41.1607C279.888 42.7796 267.481 47.9625 264.862 47.7589C265.554 46.3707 283.12 42.6521 283.994 38.9896L283.662 38.7634C282.119 39.0642 280.577 40.0836 279.495 40.097L279.351 39.7993C281.614 38.2831 283.839 37.7624 286.189 36.6243C289.854 34.8494 293.464 33.4312 297.279 32.014C298.807 31.4464 301.816 30.6409 302.078 28.8643Z"/><path fill="#95C975" d="M358.802 164.667L358.87 164.288C360.007 163.777 361.308 162.822 362.341 162.449C365.241 161.401 367.706 160.144 370.387 158.748C373.198 157.286 374.126 157.452 376.848 155.35C375.535 155.99 374.943 156.287 373.547 156.687C373.943 155.833 381.779 152.848 383.26 151.902C383.834 151.535 386.945 150.901 388.041 150.454L388.317 150.34L388.679 150.641C383.832 153.299 377.114 156.03 372.027 158.579C370.067 159.561 360.336 164.299 358.802 164.667Z"/><path fill="#95C975" d="M343.492 170.697L344.94 171.423C342.031 172.768 339.129 174.131 336.236 175.513C334.984 176.122 332.309 177.559 331.225 177.95L331.074 177.527C331.969 177.033 332.851 176.505 333.841 176.226L333.682 175.377L333.492 175.805L333.571 175.434C336.841 173.78 340.149 172.2 343.492 170.697Z"/><path fill="#95C975" d="M413.645 136.973C414.517 137.144 414.719 137.113 415.351 137.678C411.084 139.775 406.235 142.285 401.932 144.171L401.604 144.066C401.568 144.126 409.241 139.819 410.089 139.279L408.691 139.837C410.23 138.665 411.928 137.86 413.645 136.973Z"/><path fill="#95C975" d="M208.553 233.818C210.642 233.161 214.869 230.23 216.48 231.823C214.225 232.868 212.041 233.906 209.724 234.813C209.557 234.055 209.182 234.081 208.553 233.818Z"/><path fill="#95C975" d="M343.492 170.697C345.385 170.137 348.077 168.546 350.186 168.171C350.845 168.053 350.924 168.032 351.582 167.803L351.774 167.735L352.083 167.888C350.644 168.84 346.681 170.612 344.94 171.423L343.492 170.697Z"/><path fill="#95C975" d="M413.645 136.973C415.698 136.139 417.821 134.317 419.827 135.679C418.429 136.327 416.773 137.149 415.351 137.678C414.719 137.113 414.517 137.144 413.645 136.973Z"/><path fill="#265C22" d="M298.916 39.0488C303.448 38.4645 303.534 42.4499 306.715 44.741C314.521 50.3641 324.42 50.8387 333.605 49.3345C335.184 49.3324 345.02 45.5219 345.802 46.3823C362.32 64.557 381.323 80.9588 398.059 99.0951C400.581 101.828 391.905 108.483 390.386 110.314C387.943 113.259 387.478 117.034 387.451 120.769C387.114 127.206 389.968 130.298 392.997 135.33C387.922 138.49 383.219 140.574 377.951 143.248C369.425 147.574 360.886 151.398 352.233 155.405C334.371 163.58 316.642 172.044 299.053 180.793C290.184 185.157 281.158 189.022 272.116 192.993C263.712 196.684 255.613 201.061 247.147 204.638C243.119 206.34 238.965 208.274 235.017 210.157C216.02 219.336 196.894 228.245 177.644 236.879C172.277 239.243 166.891 241.896 161.487 244.202C160.365 244.681 158.964 244.668 157.79 244.268C153.519 241.453 149.182 238.054 144.508 235.987C138.119 233.162 130.838 232.713 124.132 234.612C120.679 235.59 117.107 236.954 113.605 237.672C109.418 235.606 100.842 226.17 97.1191 222.368L80.384 205.345C73.396 198.168 63.7972 189.227 57.8934 181.422C61.9263 178.614 69.5611 169.562 70.8205 164.63C72.2734 158.939 68.724 153.015 65.8485 148.249C67.7959 146.268 71.4627 144.241 74.0513 143.043C102.194 130.041 130.465 117.32 158.521 104.136C171.535 98.0199 184.875 92.4166 197.85 86.2326L270.104 52.3856C278.408 48.5741 290.457 41.9131 298.916 39.0488Z"/><path fill="#BBDC89" d="M75.3591 150.936C79.8435 147.945 85.8005 145.936 90.7184 143.667C95.668 141.384 100.658 139.073 105.588 136.755L157.026 112.966C165.272 109.251 171.58 105.981 180.086 102.627C177.601 104.778 175.057 106.677 173.14 109.407C166.284 118.942 161.9 130.658 164.008 142.588C169.33 172.705 201.637 190.886 229.764 194.32C235.348 195.001 243.728 195.221 249.17 194.406L250.1 195.307C246.108 196.565 235.724 201.789 231.336 203.804L190.094 222.915C181.286 227.055 168.706 233.328 159.494 236.222C159.082 235.849 158.662 235.487 158.231 235.137C150.558 228.819 135.96 226.051 126.136 227.379C122.338 227.893 117.959 229.297 114.534 229.597L114.207 229.623C112.435 228.075 108.876 224.155 107.015 222.234L90.0778 204.484C82.6557 196.699 74.8765 189.607 67.3471 181.492C75.484 176.08 80.1759 166.494 78.3261 156.629C77.8948 154.33 76.6898 152.78 75.3591 150.936Z"/><path fill="#265C22" d="M118.598 164.224C120.599 164.028 121.725 165.211 123.376 166.369C127.549 166.119 142.914 161.1 138.828 171.569C138.293 172.939 129.539 172.528 127.83 172.578C131.079 175.064 132.328 175.931 134.924 179.12C140.207 178.515 146.647 177.217 152.082 179.863C157.363 182.433 160.858 190.663 156.304 195.645C155.581 196.436 153.554 196.653 152.974 197.655C153.287 199.033 154.881 202.123 155.513 203.988C153.923 204.699 153.198 204.924 151.484 205.115C149.298 204.639 148.012 203.422 146.233 202.091C141.813 202.459 137.18 203.89 132.719 203.528C127.611 203.113 127.251 200.125 127.585 195.999C133.074 196.043 135.109 196.013 140.479 195.316C138.994 193.947 136.641 190.992 135.223 189.332C131.622 189.208 124.872 190.194 121.673 189.274C109.97 185.908 108.444 176.121 118.657 169.832C116.847 167.482 115.613 165.943 118.598 164.224Z"/><path fill="#BBDC89" d="M140.664 186.559C144.22 186.467 150.652 185.808 147.618 191.312C146.814 192.075 147.05 192.083 146.134 192.259C144.164 191.496 141.777 188.341 140.664 186.559Z"/><path fill="#BBDC89" d="M122.779 175.365C123.887 175.944 129.388 180.649 129.549 181.641L128.934 181.649C125.971 181.281 118.089 179.572 122.779 175.365Z"/><path fill="#BBDC89" d="M297.826 47.2688C301.074 47.0442 303.492 51.6654 306.683 53.1107C318.593 58.5066 330.513 58.3261 342.59 54.4761C343.521 55.2423 344.357 56.062 345.247 56.8695C357.998 68.4386 369.165 81.5769 381.907 93.1394C384.554 95.5413 387.105 98.2274 389.543 100.837C388.227 102.06 386.906 103.281 385.669 104.586C378.793 111.838 376.287 124.008 383.024 132.24C376.732 135.784 370.74 138.329 364.324 141.438L324.257 160.413L295.478 173.675C291.742 175.402 287.416 177.878 283.678 179.31L285.524 177.15C287.22 175.378 288.928 173.593 290.412 171.646C306.648 150.343 294.583 121.913 275.308 107.277C257.996 94.1327 236.147 88.924 214.632 89.8647C209.328 90.0966 204.843 92.5197 199.966 93.1431L199.669 93.1786C202.543 91.4614 206.525 89.8238 209.629 88.3562L228.55 79.4673C246.063 71.3376 263.538 62.7479 281.234 54.9838C285.982 52.9007 293.283 48.3729 297.826 47.2688Z"/><path fill="#265C22" d="M308.686 77.2585C311.178 77.3279 311.76 78.7975 312.864 80.7511C316.455 78.9678 321.335 78.4662 325.295 78.8497C330.199 79.3246 329.314 82.5284 328.657 86.1716C324.662 86.4972 321.641 86.0773 317.393 86.7506C321.046 89.099 322.289 89.6473 324.337 93.4635C331.059 92.4115 338.592 90.6846 344.391 95.4706C346.484 97.2222 347.796 99.733 348.04 102.452C348.496 107.263 346.071 109.613 343.239 112.989C344.029 114.865 344.387 116.076 344.941 118.006C343.687 118.169 340.165 118.946 339.485 117.855C339.317 117.558 338.907 116.85 338.639 116.707C336.438 115.532 330.94 117.735 328.27 117.964C323.503 118.371 321.314 117.721 317.704 114.905C317.219 113.619 316.614 111.91 317.245 110.614C321.499 109.932 324.465 111.056 330.379 109.56C328.486 107.011 326.922 104.977 324.663 102.751C322.627 102.722 319.199 102.989 316.871 103.247C308.864 104.136 296.962 96.543 303.446 87.8104C304.382 86.55 306.465 84.6749 307.732 83.4127C306.624 82.0046 305.392 80.8955 305.537 79.1813C306.264 77.861 307.23 77.7464 308.686 77.2585Z"/><path fill="#95C975" d="M330.512 100.106C334.981 99.7839 341.272 99.3747 337.479 105.788C336.965 106.405 336.91 106.544 336.211 106.884C335.228 106.515 330.686 101.055 330.512 100.106Z"/><path fill="#BBDC89" d="M312.675 90.4593C314.675 90.2928 318.078 93.9176 318.352 95.447L317.788 95.6654C315.831 95.3681 311.516 94.4148 311.332 92.0192C311.586 91.133 311.879 91.0438 312.675 90.4593Z"/><path fill="#4A8642" d="M219.368 96.8521C223.006 96.6199 227.237 97.0214 230.886 97.1222C249.558 97.6381 261.939 104.195 276.045 116.306C285.935 124.797 290.108 134.017 291.546 147.094C292.415 154.992 287.326 166.263 282.273 172.145C275.144 180.444 266.433 184.266 255.786 185.968C251.286 186.687 247.562 187.449 242.812 187.735L242.398 187.758C235.784 188.113 232.619 187.519 226.227 186.757C211.236 184.97 198.722 179.279 187.291 169.453C185.016 167.497 183.499 165.351 181.548 163.129C175.21 155.908 170.786 146.936 170.149 137.244C169.523 127.71 173.394 119.396 179.779 112.488C185.577 106.215 194.583 100.202 203.017 98.3577C208.07 97.2527 214.159 97.0673 219.368 96.8521Z"/><path fill="#265C22" d="M206.744 101.582C209.069 101.29 210.903 104.153 212.686 105.551L212.914 105.729C221.502 106.193 232.028 103.21 239.778 107.856C241.745 111.518 242.756 118.258 241.811 122.367C239.741 123.775 237.432 124.793 234.997 125.372C233.335 125.773 224.905 126.343 223.947 125.754C224.473 125.083 226.54 125.176 227.438 125.372C230.733 126.093 241.225 124.758 241.862 120.885C242.189 118.892 241.162 109.614 239.365 108.233C233.424 103.669 221.697 106.573 214.672 106.143C211.234 105.944 210.565 104.383 208.414 101.963C201.145 102.164 198.508 105.945 193.273 110.837C193.64 111.688 195.484 115.397 195.406 115.72C194.446 119.707 190.205 120.873 190.625 125.843L191.105 125.674C191.836 126.194 191.778 127.332 192.608 128.394C193.048 127.959 192.924 127.611 193.09 126.973C193.322 126.076 194.844 125.9 195.405 125.287C196.477 124.109 197.345 121.273 198.829 120.646C205.892 117.666 201.74 116.174 200.141 111.269C199.783 109.402 200.916 108.471 202.296 107.612C208.172 103.955 207.489 108.146 211.041 111.25C217.521 111.405 223.965 109.506 230.774 109.053C236.345 108.682 237.693 117.226 235.085 120.257C233.848 121.694 221.899 120.064 220.425 121.405C220.573 124.466 227.294 130.551 229.621 133.014C235.779 133.116 241.608 131.416 247.752 131.421C249.016 131.421 248.896 129.369 248.634 128.52C246.343 126.768 230.223 128.805 226.107 127.197C226.462 127.111 233.739 127.416 234.722 127.426C245.844 127.544 258.131 126.327 267.395 133.806C272.355 137.809 274.378 143.548 274.931 149.749C275.607 157.597 272.588 160.639 267.875 166.152C269.379 168.569 270.819 169.92 272.821 171.889C268.648 175.359 262.542 180.184 257.017 180.989C254.824 181.309 252.276 176.313 250.384 176.21C245.662 175.953 240.829 177.023 236.022 176.939C228.316 176.803 214.405 177.065 214.581 166.173C214.657 161.738 216.732 158.547 219.785 155.548C223.393 155.405 231.433 158.268 232.482 154.991C231.634 151.612 227.233 153.619 224.837 153.645C208.033 153.828 184.73 149.68 189.456 127.222C190.515 122.189 191.81 119.979 195.355 116.3C194.577 114.484 193.667 112.568 192.846 110.76C197.384 106.412 200.461 102.565 206.744 101.582Z"/><path fill="#BBDC89" d="M205.502 106.485C207.95 106.319 208.366 109.649 210.097 110.966C210.894 111.572 211.827 111.823 212.816 111.87C216.258 112.035 224.728 110.101 228.764 109.66C230.425 109.479 232.581 109.363 233.922 110.543C235.129 111.603 235.713 113.612 235.861 115.143C236.01 116.685 235.938 118.462 234.895 119.694C234.178 120.541 221.514 120.432 219.374 120.615C221.514 126.096 225.39 129.395 229.428 133.448C238.084 133.832 244.93 130.283 254.101 132.61C266.818 135.838 274.729 150.493 263.369 160.205C261.456 161.841 259.792 162.862 257.63 164.148C259.526 166.231 262.197 169.313 264.339 171.011C262.659 171.837 258.177 174.256 256.597 173.841C254.956 172.355 252.811 169.804 251.922 167.773C244.674 171.003 234.568 170.521 226.803 170.092C219.572 169.691 220.976 164.873 223.009 159.964C230.113 160.204 235.667 161.349 242.946 160.331C240.601 155.39 234.721 150.138 230.562 146.529C223.481 146.353 215.185 148.901 208.549 146.803C201.143 144.462 193.338 138.474 194.554 129.875C195.563 122.737 198.591 122.5 203.124 118.126C204.08 117.203 200.66 111.666 200.129 110.655C201.731 108.542 203.161 107.617 205.502 106.485Z"/><path fill="#265C22" d="M244.047 142.351C250.396 142.161 254.172 144.96 255.206 151.348C254.44 153.166 253.863 155.455 251.553 155.701C247.88 153.942 240.953 146.973 239.326 143.236C241.179 142.609 242.114 142.505 244.047 142.351Z"/><path fill="#265C22" d="M211.309 125.259C214.75 126.053 220.492 133.194 222.238 136.259C220.5 136.574 219.644 136.686 217.887 136.76C213.632 136.776 206.533 134.317 207.315 128.468C207.517 126.96 209.979 125.849 211.309 125.259Z"/><path fill="#95C975" d="M260.263 156.95C261.162 157.023 261.802 157.226 262.455 157.817C262.789 158.747 262.721 158.387 262.413 159.487C261.193 159.601 260.468 159.905 259.727 158.806C259.719 157.908 259.846 157.786 260.263 156.95Z"/><path fill="#95C975" d="M249.17 194.406L253.742 193.69C252.549 194.262 251.35 194.878 250.1 195.307L249.17 194.406Z"/><defs><linearGradient id="gradient_1" gradientUnits="userSpaceOnUse" x1="288.65265" y1="307.58087" x2="168.60037" y2="131.82555"><stop offset="0" stop-color="#457B3E"/><stop offset="1" stop-color="#5D904C"/></linearGradient></defs><path fill="url(#gradient_1)" d="M287.992 246.829C291.223 245.46 294.063 243.712 297.16 242.281C302.315 239.899 307.499 237.414 312.66 235.074L403.262 193.291C414.256 188.174 425.385 182.766 436.298 177.515C440.7 175.397 442.637 188.196 438.179 189.609C429.465 195.044 420.106 198.45 410.833 202.73L363.586 224.327C360.429 225.737 357.267 227.455 354.104 228.928L322.312 243.81C317.148 246.235 311.622 248.379 306.399 250.8L269.392 267.851C266.701 269.121 260.419 272.969 257.775 273.555C258.209 274.481 260.092 276.154 261.039 276.276C262.362 275.318 262.051 273.362 263.182 272.451C263.23 272.413 266.106 273.003 266.475 272.764C267.448 272.132 268.581 271.17 269.457 270.448C270.019 270.587 269.996 270.552 270.39 270.968C269.374 271.738 268.095 271.872 267.629 272.627C268.117 273.676 269.617 273.376 270.587 273.512C271.825 272.833 274.786 271.364 275.512 270.389L275.391 270.163C274.265 269.969 272.772 270.477 271.338 270.493C272.903 269.245 274.368 270.007 276.17 269.825C276.694 269.773 277.634 269.333 278.15 269.11L295.067 261.624C296.217 261.127 297.38 260.665 298.544 260.203C305.577 257.419 312.528 254.218 319.407 251.062L425.025 203.6C426.607 202.887 429.21 201.72 430.624 200.831C432.229 199.823 434.076 197.093 436.106 196.607C438.313 197.002 440.045 200.473 439.972 202.591C439.824 206.889 434.64 208.256 431.57 210.012C424.296 214.174 416.557 217.302 408.98 220.826L387.382 231.071L273.051 285.147C263.051 289.868 253.263 295.11 243.093 299.538C239.891 300.933 236.55 303.04 233.327 304.58C205.283 318.078 177.051 331.182 148.639 343.887C142.134 346.869 131.893 355.854 125.135 349.938C117.267 343.05 110.221 335.263 103.011 327.719L65.958 289.185C64.6761 287.85 63.2665 286.514 61.9129 285.245C50.6209 274.661 40.7022 262.764 29.6485 251.981C26.9187 249.318 23.8687 247.072 21.2575 244.231C18.1329 240.832 18.0662 239.195 18.3078 234.89L20.0726 232.268C20.0665 230.788 19.753 224.641 19.9699 223.797C19.1355 222.612 18.9426 222.257 18.3553 220.93C17.9705 220.083 17.7393 219.587 17.4835 218.68C18.1323 217.853 18.6807 217.106 19.4379 216.37C22.152 216.591 23.9238 216.642 25.6991 218.939C34.6845 230.576 45.823 240.402 55.9224 251.05C58.4364 253.701 61.5024 256.287 63.8651 259.014C73.9619 270.654 84.6036 281.632 95.6116 292.408C98.3485 295.088 101.196 299.32 103.897 301.672C109.92 306.916 116.46 314.272 122.684 318.967C124.522 320.376 126.723 321.234 129.029 321.442C134.126 321.921 139.649 317.496 144.082 315.638C153.587 311.655 162.848 307.175 172.133 302.691L253.986 262.626C264.98 257.333 276.43 253.365 286.944 247.184C287.041 247.086 287.137 246.988 287.234 246.89C286.389 246.125 284.908 245.411 283.863 244.85C284.759 244.624 285.776 245.247 286.478 245.752L287.992 246.829Z"/><defs><linearGradient id="gradient_2" gradientUnits="userSpaceOnUse" x1="258.26157" y1="286.95813" x2="212.48318" y2="151.68951"><stop offset="0" stop-color="#43783C"/><stop offset="1" stop-color="#5F9951"/></linearGradient></defs><path fill="url(#gradient_2)" d="M287.992 246.829C291.223 245.46 294.063 243.712 297.16 242.281C302.315 239.899 307.499 237.414 312.66 235.074L403.262 193.291C414.256 188.174 425.385 182.766 436.298 177.515C440.7 175.397 442.637 188.196 438.179 189.609C429.465 195.044 420.106 198.45 410.833 202.73L363.586 224.327C360.429 225.737 357.267 227.455 354.104 228.928L322.312 243.81C317.148 246.235 311.622 248.379 306.399 250.8L269.392 267.851C266.701 269.121 260.419 272.969 257.775 273.555C255.21 274.894 248.206 277.803 246.591 278.896L246.663 279.825L246.486 279.963L246.101 279.306C245.094 278.93 239.18 281.959 237.657 282.632L219.385 290.793L167.016 314.534C156.674 319.268 146.656 324.751 136.029 328.807C125.239 332.925 118.846 324.262 112.308 317.29L101.421 305.8C100.533 304.852 99.6028 303.906 98.7337 302.942C95.9091 299.81 92.5565 297.204 89.6006 294.227C85.3913 289.901 81.6404 285.258 77.08 281.281C71.1928 276.146 66.0828 270.079 60.5613 264.561C58.7668 262.767 56.6596 261.224 54.8746 259.422C53.1633 257.695 51.5782 255.829 49.8958 254.071L37.8256 241.432C35.488 238.946 32.7176 236.351 30.5566 233.801C28.5774 232.485 21.788 225.705 19.9699 223.797C19.1355 222.612 18.9426 222.257 18.3553 220.93C17.9705 220.083 17.7393 219.587 17.4835 218.68C18.1323 217.853 18.6807 217.106 19.4379 216.37C22.152 216.591 23.9238 216.642 25.6991 218.939C34.6845 230.576 45.823 240.402 55.9224 251.05C58.4364 253.701 61.5024 256.287 63.8651 259.014C73.9619 270.654 84.6036 281.632 95.6116 292.408C98.3485 295.088 101.196 299.32 103.897 301.672C109.92 306.916 116.46 314.272 122.684 318.967C124.522 320.376 126.723 321.234 129.029 321.442C134.126 321.921 139.649 317.496 144.082 315.638C153.587 311.655 162.848 307.175 172.133 302.691L253.986 262.626C264.98 257.333 276.43 253.365 286.944 247.184C287.041 247.086 287.137 246.988 287.234 246.89C286.389 246.125 284.908 245.411 283.863 244.85C284.759 244.624 285.776 245.247 286.478 245.752L287.992 246.829Z"/><path fill="#74B95A" d="M18.3553 220.93L18.6869 220.691L19.0853 221.352C19.7412 221.141 19.8989 220.935 20.4925 221.318C23.1935 223.058 28.9474 228.264 30.5147 230.654L30.5356 231.022C30.0807 231.194 29.6397 231.31 29.2861 231.631C29.747 232.852 30.957 233.015 30.9467 233.728L30.5566 233.801C28.5774 232.485 21.788 225.705 19.9699 223.797C19.1355 222.612 18.9426 222.257 18.3553 220.93Z"/><path fill="#265C22" d="M19.9699 223.797C21.788 225.705 28.5774 232.485 30.5566 233.801C32.7176 236.351 35.488 238.946 37.8256 241.432L49.8958 254.071C51.5782 255.829 53.1633 257.695 54.8746 259.422C56.6596 261.224 58.7668 262.767 60.5613 264.561C66.0828 270.079 71.1928 276.146 77.08 281.281C81.6404 285.258 85.3913 289.901 89.6006 294.227C92.5565 297.204 95.9091 299.81 98.7337 302.942C99.6028 303.906 100.533 304.852 101.421 305.8L112.308 317.29C118.846 324.262 125.239 332.925 136.029 328.807C146.656 324.751 156.674 319.268 167.016 314.534L219.385 290.793L237.657 282.632C239.18 281.959 245.094 278.93 246.101 279.306L246.486 279.963L246.663 279.825L246.591 278.896C248.206 277.803 255.21 274.894 257.775 273.555C258.209 274.481 260.092 276.154 261.039 276.276C262.362 275.318 262.051 273.362 263.182 272.451C263.23 272.413 266.106 273.003 266.475 272.764C267.448 272.132 268.581 271.17 269.457 270.448C270.019 270.587 269.996 270.552 270.39 270.968C269.374 271.738 268.095 271.872 267.629 272.627C268.117 273.676 269.617 273.376 270.587 273.512C269.485 273.802 269.198 274.442 268.207 274.946C265.233 276.456 262.125 278.614 259.159 280.022C257.357 280.851 254.928 281.254 253.181 282.092C245.989 285.544 238.561 288.461 231.31 291.785L151.052 329.031C144.932 331.818 139.213 335.222 132.973 337.653C129.049 339.182 125.296 337.978 122.207 335.267C109.652 324.246 98.2696 312.563 86.5487 300.708L27.7549 241.198C25.233 238.621 22.5415 234.33 20.0726 232.268C20.0665 230.788 19.753 224.641 19.9699 223.797Z"/><defs><linearGradient id="gradient_3" gradientUnits="userSpaceOnUse" x1="261.45468" y1="258.77475" x2="201.65096" y2="117.01309"><stop offset="0" stop-color="#467E3E"/><stop offset="1" stop-color="#639753"/></linearGradient></defs><path fill="url(#gradient_3)" d="M19.6263 192.405C24.0204 197.08 28.579 201.466 32.9868 206.08C35.5425 208.931 37.7902 211.993 40.4625 214.747C46.945 221.426 53.6826 227.89 60.2019 234.525C64.001 238.62 67.4361 242.945 71.2926 246.999C75.9343 251.878 80.9625 256.302 85.7532 261.007C88.7995 264.159 91.2196 267.402 94.2348 270.602C103.372 280.299 113.825 292.66 125.24 299.335C130.356 302.326 144.773 294.171 149.795 291.836L173.452 281.114C191.123 273.19 208.688 265.031 226.141 256.637C233.489 253.033 240.635 249.046 248.085 245.579C251.721 243.887 255.454 240.469 259.285 238.583C268.135 234.438 276.957 230.553 285.787 226.337C296.236 221.348 307.304 216.704 317.925 212.042L366.504 190.358C386.861 181.143 407.078 171.413 427.495 162.318C430.584 160.941 432.958 159.12 436.326 157.848C440.285 158.21 440.522 164.561 440.542 167.48C437.479 170.313 433.415 171.8 429.628 173.702C421.732 177.667 413.559 181.249 405.532 184.988L365.114 204.025L325.276 222.937C317.011 226.918 307.614 231.693 299.317 235.389C298.28 237.005 280.535 245.803 277.912 247.094C277.039 246.769 277.437 246.736 276.671 247.083C276.536 248.206 276.733 247.953 276.099 248.669C275.317 248.509 275.512 248.27 274.717 247.957C271.387 248.604 264.54 252.694 261.274 254.268C257.921 255.884 254.448 257.483 251.044 259.025C249.959 259.517 247.396 260.839 246.29 260.828C239.468 264.679 229.663 268.48 222.197 271.892L173.859 293.821C166.199 297.249 158.86 301.158 151.282 304.901C145.564 307.726 137.109 313.067 130.672 313.557C125.236 313.97 119.56 307.755 115.99 304.186C111.995 300.224 108.078 296.184 104.242 292.067L78.0125 264.573C76.256 262.734 74.2572 260.943 72.4501 259.128L56.8148 243.374C54.2723 240.845 51.7872 237.858 49.2722 235.433C39.5831 226.087 30.4649 216.302 21.055 206.689C19.0619 204.653 18.9622 202.237 15.9755 199.293C18.0847 197.156 18.7958 195.287 19.6263 192.405Z"/><path fill="#265C22" d="M246.29 260.828C247.869 259.728 254.117 257.013 256.342 256.027C261.438 253.767 266.153 251.117 271.179 248.798C274.759 247.396 278.273 246.196 281.821 244.692C287.414 242.32 293.815 237.493 299.317 235.389C298.28 237.005 280.535 245.803 277.912 247.094C277.039 246.769 277.437 246.736 276.671 247.083C276.536 248.206 276.733 247.953 276.099 248.669C275.317 248.509 275.512 248.27 274.717 247.957C271.387 248.604 264.54 252.694 261.274 254.268C257.921 255.884 254.448 257.483 251.044 259.025C249.959 259.517 247.396 260.839 246.29 260.828Z"/><path fill="#4A8642" d="M435.257 137.084C436.408 136.787 436.179 136.67 437.176 136.943C438.502 138.503 440.433 144.337 440.497 146.584C440.52 147.367 439.29 148.939 438.558 149.337C426.829 155.719 414.069 160.906 401.979 166.409L327.749 200.707C317.638 205.385 308.157 210.944 298.259 215.984C294.969 217.66 290.559 219.275 287.097 220.834L259.487 233.459L162.766 278.426C155.791 281.6 134.287 292.664 128.229 293.134C119.456 289.166 106.164 273.273 99.2174 266.07L62.8313 228.291C51.1717 216.119 38.7047 204.739 27.7279 191.887C25.87 189.711 23.1746 187.758 21.2049 185.51C20.0848 184.257 19.2052 182.808 18.6104 181.236C17.9059 179.369 17.437 176.913 17.3576 174.918C18.1027 173.776 18.9085 172.482 19.7091 171.398L49.7861 202.04L74.5999 227.663C81.0088 234.313 87.0646 240.997 94.0429 247.124C96.4274 249.217 98.6511 252.366 100.981 254.624C108.317 261.73 115.213 269.378 123.072 275.919C124.931 277.467 126.654 278.583 129.078 278.495C134.424 278.655 139.118 276.294 143.987 274.19C163.528 265.747 182.659 256.472 201.957 247.546L332.575 186.532C350.441 178.244 368.26 169.996 385.918 161.273C389.822 159.345 393.793 157.282 397.715 155.445L420.638 144.766C424.77 142.843 430.163 140.773 433.797 138.233C434.364 137.866 434.849 137.618 435.257 137.084Z"/><path fill="#4A8642" d="M434.585 215.003C434.779 214.993 434.972 214.987 435.165 214.986C440.598 214.98 440.708 225.314 437.928 227.056C430.285 231.846 420.449 236.018 412.326 239.833L352.51 267.684L226.004 327.067L168.416 354.088C158.649 358.693 148.941 363.636 139.083 368.101C136.229 369.393 133.044 370.401 129.875 370.292C126.992 370.192 125.396 368.816 123.214 366.912C117.825 362.211 112.562 356.937 107.588 351.773C102.307 346.292 96.2254 340.746 91.1208 335.182C85.3357 328.877 79.8953 323.055 73.9482 316.919L44.9828 287.016C40.1422 282.02 35.4333 277.618 30.8683 272.233C28.5971 269.554 25.2398 267.212 22.6767 264.295C20.7013 261.918 19.0659 260.008 18.9496 256.76C18.9015 255.415 19.1911 251.918 20.0432 250.978C21.5553 251.259 23.3056 254.464 24.4541 255.662C30.9922 262.484 37.142 269.758 43.8064 276.459C48.1281 280.805 52.6815 284.93 56.9992 289.301L93.0702 326.296C98.2284 331.594 103.311 337.406 108.506 342.76C114.442 348.878 117.477 352.824 124.778 357.403C136.114 357.968 143.214 353.453 153.118 348.864L177.869 337.242C183.954 334.339 190.066 331.682 196.021 328.462C198.439 327.22 201.576 326.514 203.948 325.29C211.033 321.633 218.558 318.742 225.673 315.237C236.844 309.732 247.955 303.323 259.248 298.116C300.491 279.429 341.521 260.277 382.33 240.661C397.219 233.546 412.267 226.574 427.224 219.61C429.469 218.565 432.435 216.398 434.585 215.003Z"/><path fill="#121413" d="M219.374 341.607C220.485 341.376 221.676 341.02 222.142 342.276C220.714 345.555 213.119 344.004 210.261 344L210.023 344.298C209.064 344.352 209.431 344.447 208.577 344.025C208.042 343.247 208.079 343.544 208.124 342.75C208.4 342.576 217.995 341.718 219.374 341.607Z"/><path fill="#121413" d="M448.297 146.416C452.468 146.539 452.339 151.266 449.812 151.75L449.601 151.752C448.043 151.758 447.056 152.031 445.968 150.723C445.277 148.798 446.814 147.366 448.297 146.416Z"/><path fill="#121413" d="M446.718 123.851C448.174 124.477 449.951 126.977 449.79 128.693C449.187 129.748 449.451 129.386 448.199 130.113C447.821 130.895 447.913 131.061 447.306 131.387L446.894 131.174C445.935 129.229 446.184 125.926 446.718 123.851Z"/><path fill="#121413" d="M440.855 114.609C442.343 114.785 443.843 116.219 443.986 117.752C443.579 118.678 443.798 118.356 442.899 118.972C442.06 118.927 441.148 118.842 440.419 118.361C439.927 118.038 439.624 117.494 439.61 116.906C439.583 116.068 440.334 115.283 440.855 114.609Z"/><path fill="#121413" d="M448.617 183.91C449.531 184.466 449.687 185.59 450.048 186.696C449.485 187.474 449.047 188.088 448.399 188.811L448.194 188.649C446.986 187.877 447.055 188.447 446.494 187.324C446.562 186.165 447.8 184.969 448.617 183.91Z"/><path fill="#121413" d="M255.127 322.328C256.038 321.768 257.552 321.917 258.138 323.023L257.894 323.571C257.07 324.201 256.91 324.125 255.807 324.13C254.709 324.425 253.384 324.486 252.628 323.547L252.791 323.021C253.528 322.383 254.136 322.435 255.127 322.328Z"/><path fill="#121413" d="M29.6886 287.997C29.9741 287.986 30.5924 287.932 30.8348 288.004C32.5212 288.506 34.3314 290.266 34.0917 291.975C32.1612 292.128 29.9061 289.774 29.6886 287.997Z"/><path fill="#121413" d="M433.797 138.233C432.61 137.31 431.815 136.953 431.622 135.498C432.895 134.027 435.256 135.682 435.257 137.084C434.849 137.618 434.364 137.866 433.797 138.233Z"/><path fill="#121413" d="M71.398 321.57C73.9783 322.045 74.2476 322.949 75.4893 325.105C73.118 326.032 72.1568 323.197 71.398 321.57Z"/><path fill="#121413" d="M407.347 85.6552C408.95 85.9059 410.846 87.1294 409.916 88.9325C408.875 88.4826 407.513 88.0326 406.881 87.1604C406.762 86.2688 406.753 86.5993 407.347 85.6552Z"/><path fill="#121413" d="M86.1864 342.255C87.3528 342.18 87.7999 342.181 88.6259 343.025C89.0494 343.976 89.0326 344.129 88.9758 345.177C87.4055 344.753 86.3815 343.975 86.1864 342.255Z"/><path fill="#121413" fill-opacity="0.98039216" d="M66.7165 323.941C68.9355 324.115 69.8611 324.706 69.3403 326.958C67.9377 326.37 66.5709 325.607 66.7165 323.941Z"/><path fill="#121413" d="M444.215 195.82C445.418 195.963 446.157 196.405 446.449 197.572L445.896 198.402C445.074 198.095 444.492 197.944 443.806 197.394C443.651 196.511 443.69 196.802 444.215 195.82Z"/><path fill="#121413" d="M116.058 375.871C116.242 375.862 116.425 375.855 116.608 375.849C117.681 375.813 118.55 375.665 119.331 376.394L119.353 377.085C118.296 377.259 117.503 377.495 116.486 377.211C115.899 376.586 116.05 376.906 116.058 375.871Z"/><path fill="#121413" d="M450.368 167.169C451.263 167.344 451.782 167.395 452.315 168.063C452.519 168.927 452.225 169.288 451.824 170.129L451.256 170.05C450.489 169.242 450.438 168.258 450.368 167.169Z"/></svg>