<?xml version="1.0" encoding="utf-8" ?><svg xmlns="http://www.w3.org/2000/svg" xmlns:xlink="http://www.w3.org/1999/xlink" width="460" height="387" viewBox="0 0 460 387"><path fill="#090201" d="M203.897 11.066C209.752 10.5907 215.656 11.3955 220.47 14.853C223.06 16.7135 225.857 18.6399 228.026 20.9874C236.514 14.371 241.249 9.94867 252.599 11.2049C269.376 13.0619 275.084 29.5377 280.615 42.6385L292.842 71.7848C303.636 96.388 313.93 121.207 323.718 146.228C325.425 150.625 327.177 154.965 328.786 159.4C330.118 163.071 331.92 166.497 332.811 170.341C333.646 173.947 333.502 177.481 333.983 181.118C334.801 185.864 335.797 190.489 336.437 195.279C337.119 200.471 337.74 205.67 338.301 210.876C338.53 213.222 338.587 215.665 338.873 217.978C339.066 220.763 340.13 224.068 340.23 226.817C340.311 232.487 341.48 237.78 342.399 243.276C343.563 250.231 342.57 252.499 347.245 258.141C351.388 263.141 354.462 265.864 359.647 269.926C363.817 273.193 367.926 277.228 372.345 280.292C378.799 284.722 385.307 288.855 390.6 294.782C393.259 298.05 394.65 304.157 393.897 308.313C392.966 313.448 391.328 320.067 389.862 325.074C388.632 329.274 385.401 334.194 383.724 338.341C383.146 339.768 381.221 341.791 380.511 343.248C375.486 351.424 369.418 358.819 361.815 364.729C353.753 371.382 346.12 376.408 336.488 380.678C334.483 381.567 331.248 382.221 329.071 382.971C323.645 384.862 317.53 385.579 311.751 385.08C303.529 384.112 297.835 373.668 292.763 368.053C286.553 361.179 280.571 354.407 274.7 347.284C271.586 343.507 266.498 343.109 262.286 340.766C254.762 336.582 246.524 330.844 241.107 324.099C236.936 319.509 232.517 312.114 230.141 306.388C229.652 305.207 228.85 302.317 227.892 301.842C226.887 302.589 226.118 305.855 225.55 307.07C218.475 322.204 207.414 333.917 192.346 341.291C187.948 343.442 184.105 344.454 180.911 348.272C172.364 358.49 162.478 367.754 154.816 378.683C153.791 380.147 149.182 384.662 147.359 384.872C143.033 385.369 137.57 385.221 133.218 384.427C101.628 377.854 75.849 353.019 65.623 322.801C64.7981 320.363 64.3324 317.409 63.5432 314.903C61.5954 308.805 62.2186 300.827 65.0558 295.147C64.6941 295.871 73.2931 287.952 73.1599 288.049C79.7041 283.245 85.9386 278.286 92.171 273.091C99.2947 267.153 107.248 261.604 111.658 253.158C113.777 249.057 113.033 243.22 114.424 238.807C115.51 235.103 114.998 230.136 115.458 226.303C117.979 211.119 118.294 195.878 122.393 180.937C122.892 178.363 122.364 174.113 123.098 171.716C128.818 153.03 136.231 134.84 143.595 116.747C145.493 112.081 147.715 107.748 149.702 103.162L162.253 73.5605L176.027 41.503C179.289 33.9507 181.118 27.4552 186.713 21.0094C192.261 14.6172 195.66 12.3583 203.897 11.066Z"/><path fill="#F0B77B" d="M185.564 57.1836C185.751 55.4822 188.945 48.7835 189.844 46.7783C192.554 40.7305 194.842 33.6026 199.331 28.642C201.439 26.3124 206.367 25.9078 209.332 25.8521C214.54 26.9815 220.946 35.6844 221.957 40.4789C223.99 39.9997 229.117 42.1848 231.764 40.4087C233.21 39.4382 233.632 40.1548 234.429 39.8269C235.966 33.3988 239.734 28.5176 245.979 26.3001C249.086 26.2074 253.52 25.7439 255.942 27.8899C258.882 30.4948 265.195 43.5783 266.183 47.0375C267.599 49.5518 268.76 52.4827 269.892 55.1488C272.582 61.4812 274.982 68.0141 277.642 74.3467L304.966 140.805L313.012 160.788C313.538 162.132 316.046 168.551 316.206 169.723C317.892 174.318 318.4 179.984 319.009 184.875C319.604 189.358 320.164 193.846 320.689 198.338C321.767 207.511 323.767 216.727 324.518 226.023C324.841 230.026 326.013 234.296 326.445 238.315C327.448 245.679 328.933 255.009 331.169 262.031C332.72 264.788 334.639 266.859 336.643 269.226C344.342 278.321 354.371 285.414 364.051 292.234C366.857 294.211 370 296.995 372.787 299.142C374.528 300.483 377.204 302.365 378.773 303.732C378.629 306.771 378.439 309.125 377.762 312.128C373.276 330.158 362.253 347.072 346.282 357.044C346.264 357.053 346.246 357.063 346.228 357.072C344.774 358.19 342.117 359.784 340.512 360.794C331.869 366.231 324.353 369.727 314.131 370.464C310.035 366.67 305.946 360.778 302.194 356.491C298.107 351.822 293.899 347.671 289.925 342.875C287.84 340.36 285.048 335.892 282.978 333.96C280.041 331.219 273.275 329.016 269.345 327.175C262.797 324.108 259.329 320.837 254.398 315.752C246.553 307.66 241.123 297.248 237.722 286.575C236.928 284.082 236.458 280.364 235.853 277.726C232.178 261.717 233.341 246.594 234.019 230.349C233.587 226.941 234.199 223.48 234.469 220.052C235.21 210.628 236.649 199.733 235.083 190.336C232.294 173.599 232.074 157.539 231.549 140.712C231.51 139.433 230.356 139.248 231.581 137.468C231.675 137.677 231.768 137.886 231.861 138.095C231.874 136.63 230.321 133.662 231.097 132.703L231.988 133.225C232.909 128.996 232.032 121.854 233.986 117.513C234.838 115.496 237.885 111.753 240.051 111.318C245.308 110.261 249.428 110.435 250.586 116.549C250.683 117.062 251.31 117.318 251.744 117.483C253.668 116.977 256.092 114.411 257.672 113.011C257.917 113.074 258.162 113.136 258.407 113.198C257.862 112.091 257.575 111.067 256.929 109.949C253.556 104.117 246.947 100.575 240.268 102.557C238.106 103.199 235.082 105.406 232.769 105.367L232.445 105.003C233.007 101.706 231.313 99.038 230.99 95.9598C230.539 91.6183 231.741 86.5636 228.4 83.0679C227.179 81.7902 227.557 81.0753 226.743 80.3934L223.383 81.389C223.13 83.6625 223.372 85.8288 223.274 88.1188C223.044 93.5298 222.557 98.9595 222.631 104.375C222.702 105.168 222.746 106.349 223.364 106.944C224.672 108.205 226.648 109.352 228.441 109.669C228.836 109.739 230.06 109.333 230.35 109.436C231.114 109.708 233.205 111.82 233.105 112.619L232.749 112.525C230.696 108.544 228.558 111.305 225.911 109.513C220.191 105.64 214.395 99.5073 206.732 102.643C204.758 103.524 196.853 108.165 198.831 110.758C200.057 112.365 203.111 115.691 204.704 117.206C206.003 114.865 207.083 112.188 209.753 110.956C213.154 109.387 220.672 113.155 221.217 116.724C222.979 118.316 223.319 124.658 223.444 127.156C224.172 142.342 223.87 157.56 222.543 172.706C221.865 179.865 220.241 187.645 219.589 194.882C219.336 197.699 218.751 200.92 219.126 203.694L219.12 203.695C219.637 202.758 218.973 202.815 219.812 201.735C220.708 201.534 220.812 201.579 221.745 201.692C222.194 200.882 221.736 199.159 221.921 198.287C222.492 195.603 224.372 194.013 223.669 191.051C223.255 189.309 222.572 190.143 222.58 189.018C223.147 189.218 223.634 189.743 224.116 190.165C225.271 194.225 224.692 210.562 224.846 215.716L224.622 216.021C224.498 215.346 224.272 214.937 224.202 214.435C224.066 213.453 224.582 210.648 224.147 209.863L224.062 210.251C223.25 210.494 223.214 210.471 222.365 210.275L221.889 209.759C221.325 209.978 220.757 210.183 220.183 210.373C219.611 209.823 219.762 209.578 219.656 208.623C219.252 213.439 222.107 223.478 221.23 228.517C222.714 257.909 224.743 290.328 203.399 313.866C200.911 316.581 198.235 319.117 195.391 321.457C191.753 324.509 188.548 326.207 184.431 328.253C181.641 329.639 174.614 332.183 172.894 334.322C166.241 342.598 159.223 350.939 152.121 358.866C148.67 362.718 145.545 367.442 141.702 370.736C131.543 369.068 120.006 364.726 111.911 358.354C95.389 347.591 84.8275 334.061 79.3733 314.953C78.5216 311.12 77.8456 307.59 77.418 303.677C80.9696 300.522 85.7167 297.124 89.5607 294.077C100.799 285.171 114.928 276.686 123.293 264.872C129 256.812 128.603 240.946 130.628 231.454C131.964 224.713 131.962 217.379 133.116 210.711C135.128 199.091 135.477 186.451 138.078 175.039C140.945 163.293 146.096 152.127 150.549 140.948C154.666 130.611 158.14 120.598 163.138 110.627C166.93 103.06 169.3 94.2763 173.12 86.7111C173.796 84.4453 176.477 79.9654 177.471 77.4428C180.043 70.918 182.551 63.4826 185.564 57.1836Z"/><defs><linearGradient id="gradient_0" gradientUnits="userSpaceOnUse" x1="127.91579" y1="360.70825" x2="194.85838" y2="23.395786"><stop offset="0" stop-color="#ECA772"/><stop offset="1" stop-color="#F5CD8C"/></linearGradient></defs><path fill="url(#gradient_0)" d="M185.564 57.1836C185.751 55.4822 188.945 48.7835 189.844 46.7783C192.554 40.7305 194.842 33.6026 199.331 28.642C201.439 26.3124 206.367 25.9078 209.332 25.8521C214.54 26.9815 220.946 35.6844 221.957 40.4789C223.74 46.4482 222.822 48.2346 223.521 53.5787C218.78 50.1053 214.994 47.4058 208.739 48.2784C199.704 49.5389 196.348 54.9503 192.922 62.8126C188.916 72.0065 185.372 81.7192 181.802 91.1176C179.857 96.4582 178.263 101.909 176.297 107.266L165.421 137.154C161.149 148.932 155.591 161.572 154.085 174.046C153.796 176.441 158.88 176.505 160.789 172.255C168.465 155.164 174.781 137.064 180.759 119.407C183.915 110.263 187.172 101.154 190.529 92.0822C192.208 87.4749 195.544 77.0355 197.657 73.2002C198.886 69.4573 201.758 61.8658 204.828 59.3686C206.846 57.7269 208.672 57.5305 211.112 57.7474C212.399 57.7897 212.934 58.0822 214.126 58.5621C214.001 64.0289 213.849 69.5222 213.375 74.9705C213.271 76.1634 212.547 81.3461 212.785 82.1835C212.128 86.2025 210.783 94.9194 211.983 98.813L212.08 99.1593C212.209 99.6138 212.325 99.9084 212.5 100.346L212.339 100.769C211.592 100.927 210.993 101.019 210.236 101.119C209.071 101.386 207.713 101.633 206.636 102.118C201.563 104.248 198.551 107.542 196.482 112.612C192.665 121.963 191.049 133.504 188.167 143.375C185.13 153.78 182.326 164.285 179.055 174.617C177.511 179.493 175.184 184.233 173.935 189.178C173.418 191.227 172.641 195.43 173.45 197.431C173.743 198.155 174.508 198.705 175.213 198.978C175.97 199.273 176.792 199.168 177.502 198.794C178.544 198.246 179.214 197.427 179.735 196.393C181.519 192.85 182.328 188.755 183.695 185.024C187.463 174.746 191.61 164.69 194.476 154.1C196.706 145.861 202.476 115.998 209.065 111.906C210.658 110.916 212.829 111.141 214.563 111.614C215.103 111.761 215.613 111.957 216.119 112.196C218.412 113.523 219.504 114.758 220.961 116.982L221.217 116.724C222.979 118.316 223.319 124.658 223.444 127.156C224.172 142.342 223.87 157.56 222.543 172.706C221.865 179.865 220.241 187.645 219.589 194.882C219.336 197.699 218.751 200.92 219.126 203.694L219.12 203.695C219.637 202.758 218.973 202.815 219.812 201.735C220.708 201.534 220.812 201.579 221.745 201.692C222.194 200.882 221.736 199.159 221.921 198.287C222.492 195.603 224.372 194.013 223.669 191.051C223.255 189.309 222.572 190.143 222.58 189.018C223.147 189.218 223.634 189.743 224.116 190.165C225.271 194.225 224.692 210.562 224.846 215.716L224.622 216.021C224.498 215.346 224.272 214.937 224.202 214.435C224.066 213.453 224.582 210.648 224.147 209.863L224.062 210.251C223.25 210.494 223.214 210.471 222.365 210.275L221.889 209.759C221.325 209.978 220.757 210.183 220.183 210.373C219.611 209.823 219.762 209.578 219.656 208.623C219.252 213.439 222.107 223.478 221.23 228.517C222.714 257.909 224.743 290.328 203.399 313.866C200.911 316.581 198.235 319.117 195.391 321.457C191.753 324.509 188.548 326.207 184.431 328.253C181.641 329.639 174.614 332.183 172.894 334.322C166.241 342.598 159.223 350.939 152.121 358.866C148.67 362.718 145.545 367.442 141.702 370.736C131.543 369.068 120.006 364.726 111.911 358.354C95.389 347.591 84.8275 334.061 79.3733 314.953C78.5216 311.12 77.8456 307.59 77.418 303.677C80.9696 300.522 85.7167 297.124 89.5607 294.077C100.799 285.171 114.928 276.686 123.293 264.872C129 256.812 128.603 240.946 130.628 231.454C131.964 224.713 131.962 217.379 133.116 210.711C135.128 199.091 135.477 186.451 138.078 175.039C140.945 163.293 146.096 152.127 150.549 140.948C154.666 130.611 158.14 120.598 163.138 110.627C166.93 103.06 169.3 94.2763 173.12 86.7111C173.796 84.4453 176.477 79.9654 177.471 77.4428C180.043 70.918 182.551 63.4826 185.564 57.1836Z"/><defs><linearGradient id="gradient_1" gradientUnits="userSpaceOnUse" x1="221.35863" y1="299.6662" x2="126.42368" y2="191.82899"><stop offset="0" stop-color="#D57B50"/><stop offset="1" stop-color="#E09B6D"/></linearGradient></defs><path fill="url(#gradient_1)" d="M216.119 112.196C218.412 113.523 219.504 114.758 220.961 116.982L221.217 116.724C222.979 118.316 223.319 124.658 223.444 127.156C224.172 142.342 223.87 157.56 222.543 172.706C221.865 179.865 220.241 187.645 219.589 194.882C219.336 197.699 218.751 200.92 219.126 203.694L219.12 203.695C219.637 202.758 218.973 202.815 219.812 201.735C220.708 201.534 220.812 201.579 221.745 201.692C222.194 200.882 221.736 199.159 221.921 198.287C222.492 195.603 224.372 194.013 223.669 191.051C223.255 189.309 222.572 190.143 222.58 189.018C223.147 189.218 223.634 189.743 224.116 190.165C225.271 194.225 224.692 210.562 224.846 215.716L224.622 216.021C224.498 215.346 224.272 214.937 224.202 214.435C224.066 213.453 224.582 210.648 224.147 209.863L224.062 210.251C223.25 210.494 223.214 210.471 222.365 210.275L221.889 209.759C221.325 209.978 220.757 210.183 220.183 210.373C219.611 209.823 219.762 209.578 219.656 208.623C219.252 213.439 222.107 223.478 221.23 228.517C222.714 257.909 224.743 290.328 203.399 313.866C200.911 316.581 198.235 319.117 195.391 321.457C191.753 324.509 188.548 326.207 184.431 328.253C181.641 329.639 174.614 332.183 172.894 334.322C166.241 342.598 159.223 350.939 152.121 358.866C148.67 362.718 145.545 367.442 141.702 370.736C131.543 369.068 120.006 364.726 111.911 358.354C114.169 357.608 116.922 355.775 119.019 354.502C130.884 347.304 142.705 337.263 151.222 326.268C152.63 324.45 154.984 319.706 156.157 317.491C162.61 314.054 172.401 314.346 178.769 309.672C195.533 297.369 202.344 275.445 205.096 255.692C205.991 249.269 207.698 242.99 207.721 236.45C208.148 224.56 206.193 213.045 206.613 201.246C206.727 195.929 209.673 190.086 210.245 185.078C211.443 174.591 212.67 164.13 214.139 153.669C214.765 149.208 215.762 144.488 215.938 139.997C216.183 133.774 215.56 127.411 215.488 121.174C215.446 118.614 214.871 114.384 216.119 112.196Z"/><path fill="#6E2811" d="M220.961 116.982L221.217 116.724C222.979 118.316 223.319 124.658 223.444 127.156C224.172 142.342 223.87 157.56 222.543 172.706C221.865 179.865 220.241 187.645 219.589 194.882C219.336 197.699 218.751 200.92 219.126 203.694L219.12 203.695C219.637 202.758 218.973 202.815 219.812 201.735C220.708 201.534 220.812 201.579 221.745 201.692C222.194 200.882 221.736 199.159 221.921 198.287C222.492 195.603 224.372 194.013 223.669 191.051C223.255 189.309 222.572 190.143 222.58 189.018C223.147 189.218 223.634 189.743 224.116 190.165C225.271 194.225 224.692 210.562 224.846 215.716L224.622 216.021C224.498 215.346 224.272 214.937 224.202 214.435C224.066 213.453 224.582 210.648 224.147 209.863L224.062 210.251C223.25 210.494 223.214 210.471 222.365 210.275L221.889 209.759C221.325 209.978 220.757 210.183 220.183 210.373C219.611 209.823 219.762 209.578 219.656 208.623C219.252 213.439 222.107 223.478 221.23 228.517C220.743 225.282 220.476 221.54 220.125 218.249C219.516 212.541 218.477 206.221 218.728 200.484C219.124 191.417 221 182.283 222.004 173.264C222.953 162.168 223.422 150.807 223.208 139.669C223.091 133.566 223.647 122.344 220.961 116.982Z"/><path fill="#F6DFA8" d="M173.12 86.7111C173.35 87.8588 170.094 94.6299 169.417 96.9754L169.526 97.3019C169.843 98.2398 170.475 100.031 171.424 100.45C171.6 99.5124 172.241 97.3502 172.691 96.5733C173.965 94.3772 173.763 90.924 175.529 89.1161C175.24 90.459 174.509 91.8839 174.105 93.2621C172.942 97.227 171.67 101.831 169.848 105.565C166.148 113.15 163.202 120.679 160.294 128.599C158.787 132.703 156.464 136.797 154.923 140.918C152.53 148.015 150.407 155.266 148.604 162.59C146.291 171.99 146.048 182.362 144.006 191.931C143.265 195.401 143.883 200.454 143.079 204.055C141.793 212.579 140.372 220.304 139.245 228.929C137.636 241.248 136.696 256.456 131.793 267.783C130.046 271.819 125.1 278.744 122.263 282.175C120.239 284.622 115.855 287.636 113.396 289.837C106.566 295.951 100.432 302.028 92.5521 306.863C89.7599 308.576 86.8669 310.184 84.2613 312.173C83.0919 313.066 81.5023 315.235 80.3366 315.539L79.3733 314.953C78.5216 311.12 77.8456 307.59 77.418 303.677C80.9696 300.522 85.7167 297.124 89.5607 294.077C100.799 285.171 114.928 276.686 123.293 264.872C129 256.812 128.603 240.946 130.628 231.454C131.964 224.713 131.962 217.379 133.116 210.711C135.128 199.091 135.477 186.451 138.078 175.039C140.945 163.293 146.096 152.127 150.549 140.948C154.666 130.611 158.14 120.598 163.138 110.627C166.93 103.06 169.3 94.2763 173.12 86.7111Z"/><path fill="#F6DFA8" d="M185.564 57.1836C185.751 55.4822 188.945 48.7835 189.844 46.7783C192.554 40.7305 194.842 33.6026 199.331 28.642C201.439 26.3124 206.367 25.9078 209.332 25.8521C209.276 27.9494 205.332 33.0421 203.965 34.9546C201.758 38.0412 197.683 40.5106 195.112 43.0533C195.154 43.7922 195.272 43.9164 195.62 44.5518C195.567 45.1271 194.819 46.4434 194.43 46.7603C191.803 48.8981 189.774 58.8473 188.184 60.6399C187.09 60.2443 186.379 59.7489 185.396 59.143C185.569 58.299 185.685 58.0161 185.564 57.1836Z"/><path fill="#F6DFA8" d="M197.657 73.2002C198.886 69.4573 201.758 61.8658 204.828 59.3686C206.846 57.7269 208.672 57.5305 211.112 57.7474C210.382 57.8733 209.743 57.9889 209.021 58.1549C208.541 60.6973 209.271 62.1693 208.532 64.4419C207.596 67.3171 205.123 69.3018 203.83 71.9551C202.542 74.5961 202.219 77.7475 201.36 80.5106C199.9 85.21 197.428 90.111 194.661 94.1533C195.872 88.8721 196.498 84.3272 199.211 79.5605C199.533 78.9946 199.355 75.4171 199.609 74.5836C200.08 73.1543 201.37 70.7707 202.057 69.1873C201.476 68.4689 201.209 68.2497 200.496 67.6534C199.685 68.3777 198.529 73.2359 197.707 73.2208C197.689 73.2205 197.674 73.2071 197.657 73.2002Z"/><path fill="#6E2811" d="M234.429 39.8269C235.966 33.3988 239.734 28.5176 245.979 26.3001C246.131 26.8577 246.149 27.0751 246.508 27.5412C246.142 27.9476 245.63 28.9013 245.711 29.3422C245.931 30.5471 243.817 47.3605 243.814 47.3525L244.661 47.7087C257.683 49.521 259.7 54.1934 264.142 65.6729C268.987 78.1945 273.428 90.8559 277.742 103.568C280.727 112.366 284.757 121.1 287.767 129.927C289.264 134.155 290.495 138.964 291.933 143.33L298.061 162.49C298.423 163.637 302.002 173.811 301.513 174.486C299.251 177.613 295.373 174.651 294.094 171.562C282.757 144.176 273.585 115.854 263.423 88.01C263.192 87.3774 262.707 86.129 262.389 85.58C260.272 79.4493 258.023 73.3649 255.644 67.331C254.747 65.0581 252.342 58.6158 250.091 57.7858C247.197 56.7189 242.191 58.2134 239.513 59.3784L238.626 60.0874L238.001 60.3139C230.385 68.9175 233.275 87.4944 232.797 98.5308C232.976 100.674 233.089 102.822 233.135 104.972C239.734 102.164 244.496 99.6156 251.296 103.504C259.293 108.077 260.204 117.874 262.324 125.777C268.063 147.174 274.621 168.459 281.784 189.41C282.461 191.391 283.905 197.845 280.892 198.812C275.266 199.969 271.525 185.707 270.019 181.968C266.338 172.829 263.146 163.803 260.786 154.287C260.203 151.887 258.793 144.373 257.872 142.571C256.389 133.608 253.067 121.942 248.945 113.875C247.33 110.713 241.649 110.704 239.15 112.464L238.953 112.467C235.867 114.751 233.878 117.421 233.522 121.383C232.003 138.268 232.333 155.54 233.245 172.461C233.542 177.952 235.117 183.658 235.442 189.187C236.591 199.899 236.134 209.461 234.95 220.089C234.711 222.227 234.363 228.832 234.019 230.349C233.587 226.941 234.199 223.48 234.469 220.052C235.21 210.628 236.649 199.733 235.083 190.336C232.294 173.599 232.074 157.539 231.549 140.712C231.51 139.433 230.356 139.248 231.581 137.468C231.675 137.677 231.768 137.886 231.861 138.095C231.874 136.63 230.321 133.662 231.097 132.703L231.988 133.225C232.909 128.996 232.032 121.854 233.986 117.513C234.838 115.496 237.885 111.753 240.051 111.318C245.308 110.261 249.428 110.435 250.586 116.549C250.683 117.062 251.31 117.318 251.744 117.483C253.668 116.977 256.092 114.411 257.672 113.011C257.917 113.074 258.162 113.136 258.407 113.198C257.862 112.091 257.575 111.067 256.929 109.949C253.556 104.117 246.947 100.575 240.268 102.557C238.106 103.199 235.082 105.406 232.769 105.367L232.445 105.003C233.007 101.706 231.313 99.038 230.99 95.9598C230.539 91.6183 231.741 86.5636 228.4 83.0679C227.179 81.7902 227.557 81.0753 226.743 80.3934L223.383 81.389C223.13 83.6625 223.372 85.8288 223.274 88.1188C223.044 93.5298 222.557 98.9595 222.631 104.375C222.702 105.168 222.746 106.349 223.364 106.944C224.672 108.205 226.648 109.352 228.441 109.669C228.836 109.739 230.06 109.333 230.35 109.436C231.114 109.708 233.205 111.82 233.105 112.619L232.749 112.525C230.696 108.544 228.558 111.305 225.911 109.513C220.191 105.64 214.395 99.5073 206.732 102.643C204.758 103.524 196.853 108.165 198.831 110.758C200.057 112.365 203.111 115.691 204.704 117.206C206.003 114.865 207.083 112.188 209.753 110.956C213.154 109.387 220.672 113.155 221.217 116.724L220.961 116.982C219.504 114.758 218.412 113.523 216.119 112.196C215.613 111.957 215.103 111.761 214.563 111.614C212.829 111.141 210.658 110.916 209.065 111.906C202.476 115.998 196.706 145.861 194.476 154.1C191.61 164.69 187.463 174.746 183.695 185.024C182.328 188.755 181.519 192.85 179.735 196.393C179.214 197.427 178.544 198.246 177.502 198.794C176.792 199.168 175.97 199.273 175.213 198.978C174.508 198.705 173.743 198.155 173.45 197.431C172.641 195.43 173.418 191.227 173.935 189.178C175.184 184.233 177.511 179.493 179.055 174.617C182.326 164.285 185.13 153.78 188.167 143.375C191.049 133.504 192.665 121.963 196.482 112.612C198.551 107.542 201.563 104.248 206.636 102.118C207.713 101.633 209.071 101.386 210.236 101.119C210.993 101.019 211.592 100.927 212.339 100.769L212.5 100.346C212.325 99.9084 212.209 99.6138 212.08 99.1593L211.983 98.813C210.783 94.9194 212.128 86.2025 212.785 82.1835C212.547 81.3461 213.271 76.1634 213.375 74.9705C213.849 69.5222 214.001 64.0289 214.126 58.5621C212.934 58.0822 212.399 57.7897 211.112 57.7474C208.672 57.5305 206.846 57.7269 204.828 59.3686C201.758 61.8658 198.886 69.4573 197.657 73.2002C195.544 77.0355 192.208 87.4749 190.529 92.0822C187.172 101.154 183.915 110.263 180.759 119.407C174.781 137.064 168.465 155.164 160.789 172.255C158.88 176.505 153.796 176.441 154.085 174.046C155.591 161.572 161.149 148.932 165.421 137.154L176.297 107.266C178.263 101.909 179.857 96.4582 181.802 91.1176C185.372 81.7192 188.916 72.0065 192.922 62.8126C196.348 54.9503 199.704 49.5389 208.739 48.2784C214.994 47.4058 218.78 50.1053 223.521 53.5787C222.822 48.2346 223.74 46.4482 221.957 40.4789C223.99 39.9997 229.117 42.1848 231.764 40.4087C233.21 39.4382 233.632 40.1548 234.429 39.8269Z"/><defs><linearGradient id="gradient_2" gradientUnits="userSpaceOnUse" x1="230.22885" y1="94.844818" x2="204.3773" y2="71.47348"><stop offset="0" stop-color="#EE9561"/><stop offset="1" stop-color="#EFC085"/></linearGradient></defs><path fill="url(#gradient_2)" d="M214.126 58.5621C218.209 61.0956 220.905 63.7629 221.885 68.6242C224.302 80.6028 221.647 94.2716 222.249 106.064C217.863 102.8 215.501 101.983 210.236 101.119C210.993 101.019 211.592 100.927 212.339 100.769L212.5 100.346C212.325 99.9084 212.209 99.6138 212.08 99.1593L211.983 98.813C210.783 94.9194 212.128 86.2025 212.785 82.1835C212.547 81.3461 213.271 76.1634 213.375 74.9705C213.849 69.5222 214.001 64.0289 214.126 58.5621Z"/><path fill="#DE9155" d="M212.785 82.1835C213.447 83.3308 212.783 97.587 211.983 98.813C210.783 94.9194 212.128 86.2025 212.785 82.1835Z"/><path fill="#DE9155" d="M234.429 39.8269C235.966 33.3988 239.734 28.5176 245.979 26.3001C246.131 26.8577 246.149 27.0751 246.508 27.5412C246.142 27.9476 245.63 28.9013 245.711 29.3422C245.931 30.5471 243.817 47.3605 243.814 47.3525L244.661 47.7087C239.761 48.0476 235.06 50.8608 231.78 54.4226C232.767 50.1644 233.559 44.2902 234.429 39.8269Z"/><path fill="#8F3010" d="M232.797 98.5308C230.642 92.0476 231.092 86.687 231.126 79.898L231.397 79.95C231.518 80.4962 231.528 80.8257 231.917 81.2241C232.183 80.2757 231.888 79.2845 232.06 78.6191C233.098 74.5944 233.075 61.4085 238.001 60.3139C230.385 68.9175 233.275 87.4944 232.797 98.5308Z"/><defs><linearGradient id="gradient_3" gradientUnits="userSpaceOnUse" x1="234.62245" y1="312.45728" x2="330.06311" y2="179.81035"><stop offset="0" stop-color="#D77A50"/><stop offset="1" stop-color="#DA976E"/></linearGradient></defs><path fill="url(#gradient_3)" d="M238.953 112.467C239.454 119.723 239.414 127.145 239.841 134.423C240.065 138.246 239.361 142.216 240.063 146.086C242.567 159.895 244.065 173.817 246.282 187.668C247.143 193.047 248.761 198.318 249.339 203.741C250.181 212.566 248.702 222.004 248.849 230.844C248.967 237.912 249.847 245.693 250.946 252.711C251.622 257.026 252.186 264.748 253.103 268.591C256.389 282.357 262.327 298.445 273.455 307.83C275.599 309.637 276.84 310.604 279.42 311.893C284.748 314.554 293.829 314.124 298.544 317.159C299.66 317.878 302.714 324.246 304.451 326.422C311.795 335.626 331.71 355.163 342.185 358.618C344.059 358.189 344.577 356.905 346.228 357.072C344.774 358.19 342.117 359.784 340.512 360.794C331.869 366.231 324.353 369.727 314.131 370.464C310.035 366.67 305.946 360.778 302.194 356.491C298.107 351.822 293.899 347.671 289.925 342.875C287.84 340.36 285.048 335.892 282.978 333.96C280.041 331.219 273.275 329.016 269.345 327.175C262.797 324.108 259.329 320.837 254.398 315.752C246.553 307.66 241.123 297.248 237.722 286.575C236.928 284.082 236.458 280.364 235.853 277.726C232.178 261.717 233.341 246.594 234.019 230.349C234.363 228.832 234.711 222.227 234.95 220.089C236.134 209.461 236.591 199.899 235.442 189.187C235.117 183.658 233.542 177.952 233.245 172.461C232.333 155.54 232.003 138.268 233.522 121.383C233.878 117.421 235.867 114.751 238.953 112.467Z"/><path fill="#F6DFA8" d="M245.979 26.3001C249.086 26.2074 253.52 25.7439 255.942 27.8899C258.882 30.4948 265.195 43.5783 266.183 47.0375C267.599 49.5518 268.76 52.4827 269.892 55.1488C272.582 61.4812 274.982 68.0141 277.642 74.3467L304.966 140.805L313.012 160.788C313.538 162.132 316.046 168.551 316.206 169.723C317.892 174.318 318.4 179.984 319.009 184.875C319.604 189.358 320.164 193.846 320.689 198.338C321.767 207.511 323.767 216.727 324.518 226.023C324.841 230.026 326.013 234.296 326.445 238.315C327.448 245.679 328.933 255.009 331.169 262.031C332.72 264.788 334.639 266.859 336.643 269.226C344.342 278.321 354.371 285.414 364.051 292.234C366.857 294.211 370 296.995 372.787 299.142C374.528 300.483 377.204 302.365 378.773 303.732C378.629 306.771 378.439 309.125 377.762 312.128C377.003 312.851 376.763 313.982 376.412 315.022C373.242 312.778 370.038 310.525 366.74 308.473C363.299 306.332 359.696 304.41 356.362 302.106C352.727 299.593 349.665 296.437 346.359 293.53C341.729 289.46 336.386 285.914 332.515 281.07C330.912 279.065 329.802 276.691 328.348 274.578C326.551 271.967 324.613 269.535 323.1 266.731C318.865 258.886 317.259 236.644 315.799 226.623C314.819 219.895 313.449 213.237 312.439 206.517C311.623 201.089 311.142 195.563 310.498 190.107C309.853 184.647 309.882 179.153 308.829 173.738C307.603 167.441 304.779 157.26 302.654 151.24C298.456 139.349 292.821 127.983 288.122 116.274C282.768 102.933 278.405 89.1812 273.055 75.8327C270.527 69.524 267.493 63.4163 264.549 57.2997C263.52 55.1638 262.738 52.9126 261.761 50.7523C260.872 48.7863 259.82 46.8917 258.881 44.9488C256.922 40.8955 256.068 36.5343 252.638 33.3513C251.911 32.6761 249.929 30.8733 248.98 30.9156L248.837 31.3727C250.354 32.8129 252.421 34.795 253.476 36.5412C254.441 38.1407 257.472 43.6993 257.087 45.3841C256.062 42.8806 255.077 40.3945 253.883 37.9626C252.633 35.4178 250.573 33.7614 248.641 31.6962C248.428 30.697 248.483 31.0271 248.865 29.9301C248.096 28.9806 247.552 28.2025 246.508 27.5412C246.149 27.0751 246.131 26.8577 245.979 26.3001Z"/><path fill="#EFEED7" d="M331.169 262.031L330.982 262.352C330.72 262.252 330.219 260.642 329.67 259.855C328.943 259.661 329.307 259.656 328.546 259.959L328.527 260.277C329.182 260.948 329.454 261.121 329.76 261.974L329.556 262.18C328.183 261.892 327.03 258.51 326.63 257.354C325.934 255.297 325.389 253.193 324.997 251.058C324.493 248.328 324.365 245.537 323.913 242.816C321.187 226.406 318.75 209.81 317.129 193.257C316.811 190.016 314.264 174.439 315.25 172.408C315.455 173.534 315.36 174.052 316.165 174.624L316.548 174.436C316.869 173.384 316.131 171.053 315.833 169.922L316.206 169.723C317.892 174.318 318.4 179.984 319.009 184.875C319.604 189.358 320.164 193.846 320.689 198.338C321.767 207.511 323.767 216.727 324.518 226.023C324.841 230.026 326.013 234.296 326.445 238.315C327.448 245.679 328.933 255.009 331.169 262.031Z"/><path fill="#EFEED7" d="M245.979 26.3001C249.086 26.2074 253.52 25.7439 255.942 27.8899C258.882 30.4948 265.195 43.5783 266.183 47.0375L266.053 47.4059C265.248 46.1768 263.215 42.2689 262.875 40.931L262.778 40.5869C262.758 40.51 262.738 40.4331 262.718 40.3562C257.795 42.0805 262.738 50.1974 262.663 51.2185C257.76 42.4609 257.493 35.8435 248.865 29.9301C248.096 28.9806 247.552 28.2025 246.508 27.5412C246.149 27.0751 246.131 26.8577 245.979 26.3001Z"/><path fill="#EFEED7" d="M239.513 59.3784C242.191 58.2134 247.197 56.7189 250.091 57.7858C252.342 58.6158 254.747 65.0581 255.644 67.331C258.023 73.3649 260.272 79.4493 262.389 85.58L262.232 85.9138L261.97 85.8141C261.247 83.2387 260.138 80.9893 259.526 78.4535L259.253 78.4595L258.792 79.5813C258.219 79.8356 258.199 79.793 257.814 80.2717C257.702 81.1821 259.246 84.2661 259.694 85.6589L259.518 85.6478C259.029 84.5935 258.469 83.5828 258.041 82.5178C257.124 80.237 256.268 76.8788 254.935 74.8714L254.781 74.6441C252.574 73.1804 250.559 72.6716 248.279 70.8342C244.937 68.141 245.271 60.2592 240.399 60.5648C239.978 60.1632 239.82 59.8616 239.513 59.3784Z"/><path fill="#F6DFA8" d="M248.673 66.4096C250.152 67.0263 251.308 67.7388 251.404 69.3939C251.105 69.5261 250.675 69.6626 250.357 69.7754C248.669 69.3315 248.717 67.9219 248.673 66.4096Z"/><path fill="#F6DFA8" d="M239.15 112.464C241.649 110.704 247.33 110.713 248.945 113.875C253.067 121.942 256.389 133.608 257.872 142.571L257.63 142.847C256.627 140.199 254.556 127.326 252.88 126.191L252.729 126.35C252.449 128.764 251.367 128.12 252.557 131.144C253.922 134.614 254.267 136.776 253.478 140.436C253.7 134.128 252.215 131.101 250.041 125.198C249.282 126.924 249.986 127.746 249.09 128.721C247.464 128.683 243.415 122.652 242.475 121.133C242.802 118.497 243.065 117.703 242.921 114.969C240.839 113.163 241.401 114.184 239.317 113.383L239.15 112.464Z"/><defs><linearGradient id="gradient_4" gradientUnits="userSpaceOnUse" x1="246.19295" y1="80.606583" x2="237.27354" y2="79.38884"><stop offset="0" stop-color="#B47842"/><stop offset="1" stop-color="#F8AA78"/></linearGradient></defs><path fill="url(#gradient_4)" d="M238.626 60.0874L239.513 59.3784C239.82 59.8616 239.978 60.1632 240.399 60.5648C241.765 62.4006 241.892 76.2668 242.127 79.2424C242.632 85.6492 244.469 92.4004 244.23 98.7434C244.214 99.1712 242.882 99.6056 242.523 99.6886C242.637 99.3572 242.85 96.7485 242.758 96.4146C241.385 91.987 241.54 86.7488 240.812 82.2041C239.98 77.0096 241.168 64.738 238.813 60.4227L238.626 60.0874Z"/><path fill="#6E2811" d="M227.648 155.362C229.065 157.668 227.473 163.349 228.071 166.12C228.335 167.342 229.776 167.568 229.868 169.176C229.994 171.384 229.265 173.647 229.371 175.912L229.941 175.032C230.34 176.049 229.171 179.541 229.025 180.828C228.816 182.674 229.172 184.572 228.854 186.387C228.445 185.076 228.154 183.056 228.468 181.707C228.481 181.654 228.497 181.601 228.511 181.548C228.509 181.444 228.526 181.338 228.506 181.236C228.488 181.148 228.424 181.074 228.397 180.988C228.198 180.358 228.394 179.319 228.677 178.724C229.03 177.981 229.088 177.394 228.972 176.585L228.743 176.683L228.568 177.205L228.288 177.297L227.688 176.576L227.233 176.707C226.482 177.687 227.078 179.976 226.917 181.226L226.62 181.299C226.601 181.269 226.157 180.571 226.157 180.571C226.514 174.213 227.502 167.976 227.398 161.569C227.368 159.703 227.418 157.184 227.648 155.362Z"/></svg>