<?xml version="1.0" encoding="utf-8" ?><svg xmlns="http://www.w3.org/2000/svg" xmlns:xlink="http://www.w3.org/1999/xlink" width="460" height="387" viewBox="0 0 460 387"><path d="M213.731 13.2263C313.519 6.42907 400.007 81.6275 407.143 181.393C414.279 281.158 339.375 367.9 239.635 375.375C139.414 382.886 52.1627 307.542 44.9924 207.297C37.822 107.051 113.462 20.0562 213.731 13.2263Z"/><defs><linearGradient id="gradient_0" gradientUnits="userSpaceOnUse" x1="230.31657" y1="348.15005" x2="222.03165" y2="34.383564"><stop offset="0" stop-color="#A18ED3"/><stop offset="1" stop-color="#D4BEED"/></linearGradient></defs><path fill="url(#gradient_0)" d="M179.56 35.3646C208.555 26.8663 239.322 26.4591 268.531 34.1871C323.834 48.8189 367.676 90.9466 384.5 145.623C401.324 200.299 388.75 259.786 351.24 302.977C315.79 343.795 262.653 364.749 208.885 359.112C155.116 353.475 107.48 321.958 81.2662 274.675C50.1081 218.475 54.2598 149.326 91.9184 97.2573C96.4699 90.9641 101.458 84.9988 106.847 79.4054C117.714 68.125 130.126 58.4428 143.712 50.6479C150.938 46.5023 158.466 42.9076 166.232 39.8944C170.608 38.1963 175.055 36.685 179.56 35.3646Z"/><path fill="#7A66B9" d="M81.2662 274.675C83.2697 275.68 85.2892 281.62 86.614 282.005C86.2383 280.096 79.7355 269.024 78.3157 266.494L78.5953 266.287C79.8735 266.944 80.4693 268.586 80.9028 269.837L81.3567 269.983C82.6217 268.597 81.6532 266.357 80.5572 265.29C77.8013 262.608 71.2217 248.022 72.6658 244.774C73.2892 248.012 74.0415 252.45 75.3225 255.4C77.0207 259.311 79.9317 263.419 82.2305 267.113C85.4781 272.286 88.6528 277.532 91.9585 282.663C93.3399 284.807 95.9156 286.053 97.0438 287.65C101.22 293.562 104.628 298.225 110.729 302.426C112.333 303.53 114.472 306.769 116.045 308.124C118.514 310.079 121.819 312.802 124.525 314.39C129.688 317.421 134.65 321.47 139.688 324.511C152.566 332.271 166.306 338.503 180.627 343.081C185.82 344.733 189.208 345.891 194.646 346.745C203.184 348.086 210.977 347.99 219.527 348.257C235.519 348.881 251.53 347.684 267.252 344.687C273.273 343.513 276.967 341.252 282.475 339.434C299.643 333.767 314.601 324.681 328.814 313.647C330.808 312.099 341.207 302.185 341.757 301.944C341.017 302.839 336.222 307.876 335.332 308.543C336.61 310.824 338.114 312.032 339.928 313.911C342.525 312.014 347.888 304.372 351.24 302.977C315.79 343.795 262.653 364.749 208.885 359.112C155.116 353.475 107.48 321.958 81.2662 274.675Z"/><path fill="#D2BEE5" d="M143.712 50.6479C150.938 46.5023 158.466 42.9076 166.232 39.8944C166.019 40.4272 166.166 40.3815 165.833 40.5238C165.366 40.7273 164.894 40.9223 164.42 41.1086C165.131 42.7212 165.761 42.6957 165.412 44.4008C167.497 44.8247 170.28 45.5811 171.982 44.4659C172.118 44.3764 172.253 44.2853 172.387 44.1925C173.361 44.1312 176.546 45.2179 176.921 45.1243C182.375 43.7633 187.173 43.1833 192.84 43.6703C195.33 45.4323 196.751 47.3285 194.427 50.1954C193.188 51.7239 191.712 52.8939 190.065 53.9363C187.821 55.4426 182.782 56.8532 180.884 58.7196C180.868 60.266 180.855 61.5695 180.844 62.6303L181.182 63.2347C179.071 63.8873 176.306 63.9487 174.366 64.6087C169.621 66.2238 169.677 68.5525 164.66 67.4531C162.91 67.0794 161.218 66.473 159.63 65.6502C156.334 63.9219 147.412 57.7451 145.896 54.1035C145.391 52.8914 145.943 52.4353 144.744 51.0982C144.153 50.9543 144.325 50.9254 143.762 50.9995L143.712 50.6479Z"/><path fill="#D2BEE5" d="M179.56 35.3646C208.555 26.8663 239.322 26.4591 268.531 34.1871C268 35.4581 264.036 36.0448 262.466 38.0078C259.825 38.5283 252.898 38.0667 249.693 38.1087C233.233 38.4142 216.771 38.5476 200.308 38.509C195.315 38.4497 188.907 38.5456 183.974 37.7102C181.565 37.3022 180.731 35.685 179.631 35.6777L179.56 35.3646Z"/><path fill="#D2BEE5" d="M91.9184 97.2573C96.4699 90.9641 101.458 84.9988 106.847 79.4054C106.711 81.7867 104.083 82.336 102.93 84.2015C102.261 85.2837 102.25 86.8547 101.877 88.0497C101.26 89.1379 98.0283 92.3886 97.099 92.8832C95.7134 92.6874 95.9077 92.5446 95.0448 93.7988C94.0246 95.2816 93.7315 96.542 91.9184 97.2573Z"/><path fill="#604B89" d="M150.412 305.145C93.3549 266.57 74.5734 191.175 106.867 130.342C139.16 69.5086 212.131 42.8211 276.052 68.4664C339.973 94.1118 374.264 163.834 355.557 230.118C336.85 296.402 271.167 337.909 203.27 326.352C201.683 326.082 200.101 325.783 198.524 325.457C183.196 322.278 168.538 316.453 155.209 308.243C153.588 307.244 151.989 306.211 150.412 305.145Z"/><defs><linearGradient id="gradient_1" gradientUnits="userSpaceOnUse" x1="175.57037" y1="318.1683" x2="177.43219" y2="314.35144"><stop offset="0" stop-color="#050024"/><stop offset="1" stop-color="#2A1B4B"/></linearGradient></defs><path fill="url(#gradient_1)" d="M155.278 306.352C158.314 308.014 161.04 310.105 164.043 311.715C166.107 312.822 168.657 313.621 170.77 314.681C177.553 318.055 184.611 320.411 191.859 322.579C194.349 323.324 197.137 324.283 199.714 324.715L198.524 325.457C183.196 322.278 168.538 316.453 155.209 308.243C154.908 307.614 154.865 307.585 154.743 306.871L155.278 306.352Z"/><path fill="#39235F" d="M150.412 305.145C151.214 304.663 151.07 304.552 152.07 304.751C152.736 304.884 154.887 305.934 155.278 306.352L154.743 306.871C154.865 307.585 154.908 307.614 155.209 308.243C153.588 307.244 151.989 306.211 150.412 305.145Z"/><path fill="#39235F" d="M199.714 324.715C200.579 324.89 201.806 325.036 202.493 325.504L202.154 325.424L203.83 326.204L203.27 326.352C201.683 326.082 200.101 325.783 198.524 325.457L199.714 324.715Z"/><defs><linearGradient id="gradient_2" gradientUnits="userSpaceOnUse" x1="235.29924" y1="320.56656" x2="217.58495" y2="67.52906"><stop offset="0" stop-color="#9E8ECE"/><stop offset="1" stop-color="#C2A9E3"/></linearGradient></defs><path fill="url(#gradient_2)" d="M106.446 148.792L106.525 148.655C110.718 141.183 113.182 133.05 118.017 125.278C128.303 108.746 141.855 95.5441 158.727 85.7509C167.091 80.7912 176.758 75.5978 186.234 73.0205C204.363 68.0897 224.856 65.1152 243.505 68.5389C246.696 69.1248 249.737 69.9194 252.889 70.6616C256.633 71.5555 260.992 71.8353 264.628 72.934C280.305 77.6889 295.337 85.6023 307.752 96.3168C316.679 104.022 326.296 111.277 331.902 121.974C334.794 127.49 337.242 133.784 340.49 139.253C341.548 141.033 342.146 144.058 343.075 145.984C356.335 173.018 358.297 202.155 347.722 230.464C343.253 242.427 339.175 254.443 331.558 265.052C329.275 268.383 326.154 271.395 323.885 274.492C313.311 288.925 300.163 299.496 284.134 307.457C277.818 310.593 271.318 314.211 264.248 315.901C254.459 318.313 244.114 320.547 234.039 321.089C217.89 321.957 200.704 319.785 185.19 315.165C172.686 311.441 160.977 304.357 150.327 296.981C146.485 294.32 142.801 290.771 138.952 287.988L138.378 288.195C136.892 287.649 128.354 278.835 127.049 277.211C127.831 277.663 127.711 277.779 128.352 277.626L128.418 277.044C127.435 275.782 126.427 274.539 125.394 273.318L125.706 272.919C122.609 267.851 118.81 262.951 115.792 257.731C105.348 239.667 99.1775 220.569 98.7784 199.579C98.6595 193.324 99.1276 187.826 99.5843 181.609C99.614 179.902 99.3094 176.8 99.1471 174.998C98.7932 171.068 104.496 149.896 106.446 148.792Z"/><path fill="#7A66B9" d="M106.446 148.792C106.132 150.342 104.602 154.201 103.96 155.997C102.202 160.833 100.754 165.847 99.8622 170.916C99.6934 171.875 99.9494 172.944 99.8513 173.713C99.6051 175.644 99.3627 176.018 99.8565 177.911C100.203 176.877 101.569 173.068 101.604 172.226C101.177 171.56 100.665 171.078 100.997 170.242C102.624 166.15 103.754 154.121 106.659 150.989L106.881 151.093C106.789 151.679 106.705 152.209 106.577 152.792C106.861 153.84 107.257 155.036 108.194 155.673L108.445 155.706C111.881 148.723 116.659 141.115 120.952 134.571C122.565 132.112 124.411 129.204 126.209 126.951L126.905 127.225L126.324 126.81L126.441 126.669L127.082 126.919L127.443 126.247L127.093 125.966L127.555 126.004L127.231 125.844L127.593 125.9L127.349 125.752L127.552 125.979L127.539 125.846L127.391 126.087C125.766 128.706 123.44 131.23 121.778 133.841C114.18 145.786 106.522 158.05 102.276 171.645C101.214 175.046 100.044 177.962 99.5843 181.609C99.614 179.902 99.3094 176.8 99.1471 174.998C98.7932 171.068 104.496 149.896 106.446 148.792Z"/><path fill="#39235F" d="M138.952 287.988L138.378 288.195C136.892 287.649 128.354 278.835 127.049 277.211C127.831 277.663 127.711 277.779 128.352 277.626L128.418 277.044C127.435 275.782 126.427 274.539 125.394 273.318L125.706 272.919C129.457 277.677 134.519 284.126 138.952 287.988Z"/><path fill="#604B89" d="M112.429 180.628C112.018 177.327 112.292 170.623 112.23 167.153C112.187 164.724 112.12 158.657 112.409 156.562C112.735 157.433 112.198 158.76 112.685 160.266L113.035 160.351C114.18 159.293 113.862 156.162 114.52 154.364L114.92 155.317C115.747 155.72 116.919 155.594 117.891 155.587C119.256 155.537 120.657 155.464 122.019 155.508C124.87 155.42 130.302 155.077 132.614 156.671C141.551 162.835 147.445 175.022 154.167 183.017C155.87 179.977 157.96 177.225 159.887 174.34C164.26 167.788 168.397 162.17 173.808 156.4C177.245 155.296 179.202 155.649 182.517 155.489C193.266 154.97 193.984 163.298 194.311 171.86C194.519 176.754 194.573 181.653 194.474 186.549C194.373 190.611 194.305 195.162 194.092 199.351C193.754 206.001 195.94 222.018 193.481 227.906C189.921 236.431 176.17 235.7 169.966 229.334C167.929 223.101 168.87 210.758 169.795 204.107C166.531 209.372 162.003 215.778 155.591 217.371C147.935 219.273 143.083 211.352 137.935 206.683C138.353 210.669 139.11 221.966 138.263 225.734C137.94 227.224 137.263 228.614 136.291 229.789C131.532 235.591 120.92 235.148 115.398 230.665C113.111 228.808 112.355 226.591 112.214 223.738C111.839 218.5 112.441 213.171 112.457 207.925C112.486 198.827 112.434 189.724 112.429 180.628Z"/><path fill="#9074B1" d="M112.429 180.628C112.018 177.327 112.292 170.623 112.23 167.153C112.187 164.724 112.12 158.657 112.409 156.562C112.735 157.433 112.198 158.76 112.685 160.266L113.035 160.351C114.18 159.293 113.862 156.162 114.52 154.364L114.92 155.317C115.747 155.72 116.919 155.594 117.891 155.587C116.537 155.748 116.03 155.618 115.248 156.593C113.805 158.393 113.606 160.9 113.646 163.142C111.335 167.656 112.692 175.21 112.429 180.628Z"/><path fill="#7A66B9" d="M117.891 155.587C119.256 155.537 120.657 155.464 122.019 155.508C120.478 156.289 118.22 156.037 116.442 155.999C115.665 158.032 114.977 158.84 114.396 161.046L114.491 161.253L114.719 161.113C115.728 160.503 116.068 160.37 117.176 159.975C115.489 161.576 115.577 160.49 113.646 163.142C113.606 160.9 113.805 158.393 115.248 156.593C116.03 155.618 116.537 155.748 117.891 155.587Z"/><path fill="#D2BEE5" d="M125.394 159.607C126.629 159.507 128.058 159.529 129.27 159.813C134.131 160.949 150.814 185.93 154.03 190.886C157.238 187.545 159.562 182.952 162.091 179.067C165.09 174.461 168.129 170.318 171.556 166.029C173.081 164.121 174.222 162.187 176.382 160.897C178.95 159.362 183.504 159.019 186.342 159.802C187.591 160.147 188.705 160.84 189.292 162.037C191.489 166.521 190.216 190.891 190.224 197.094C190.234 203.76 191.908 214.868 189.882 220.996C189.15 223.209 187.76 225.713 185.568 226.752C182.876 228.027 179.137 227.201 176.496 226.192C172.124 220.617 173.441 208.696 173.782 201.557C174.464 195.808 173.746 192.487 173.395 187.005C169.98 192.838 162.075 206.385 157.249 210.096C155.915 211.122 154.335 211.944 152.599 211.642C146.352 210.556 137.825 191.927 134.097 186.52C132.958 193.344 133.661 202.904 133.925 209.905C134.035 212.824 134.406 216.348 134.113 219.206C133.952 220.937 133.443 222.617 132.617 224.147C129.572 229.694 117.31 227.451 116.719 222.81C115.52 213.383 117.257 203.315 117.29 193.717C117.353 188.461 117.261 183.205 117.015 177.955C116.853 174.033 115.809 164.803 117.788 161.122C118.48 159.835 123.698 159.71 125.394 159.607Z"/><path fill="#604B89" d="M230.712 154.107C251.016 153.488 267.748 169.952 270.469 190.041C271.106 194.748 269.128 208.827 267.384 213.38C262.562 225.966 247.801 233.984 234.814 234.893C234.643 234.911 234.472 234.93 234.301 234.948C224.48 235.611 214.785 232.441 207.252 226.105C194.164 215.095 193.796 200.485 196.85 184.875C197.51 181.501 197.192 178.525 198.741 175.099C204.939 161.384 216.213 155.361 230.712 154.107Z"/><path fill="#D2BEE5" d="M217.218 162.966C232.371 155.69 250.564 160.491 260.155 174.295C269.745 188.1 267.896 206.825 255.791 218.486C243.685 230.148 224.905 231.298 211.468 221.199C198.031 211.1 193.912 192.741 201.748 177.87L201.553 177.299C201.621 176.531 201.969 175.919 202.406 175.294C205.363 171.064 211.696 163.587 216.693 162.482L217.218 162.966Z"/><path fill="#39235F" d="M201.748 177.87L201.553 177.299C201.621 176.531 201.969 175.919 202.406 175.294C205.363 171.064 211.696 163.587 216.693 162.482L217.218 162.966C210.596 166.145 205.172 171.371 201.748 177.87Z"/><path fill="#7A66B9" d="M227.389 174.544C236.148 173.916 243.942 177.111 247.622 185.408C249.583 189.829 250.786 195.591 248.93 200.251C246.757 205.705 241.974 209.681 236.739 212.038L236.534 212.112C227.163 215.392 219.946 210.054 216.924 201.221C213.221 190.4 215.546 178.487 227.389 174.544Z"/><path fill="#B7A2DF" d="M229.617 181.321C235.809 180.646 242.937 185.346 243.801 191.713C244.743 198.652 241.978 207.882 233.926 208.857C215.013 209.186 215.473 183.147 229.617 181.321Z"/><defs><linearGradient id="gradient_3" gradientUnits="userSpaceOnUse" x1="310.23099" y1="229.73381" x2="298.50186" y2="156.71577"><stop offset="0" stop-color="#BFACE0"/><stop offset="1" stop-color="#D7C1DF"/></linearGradient></defs><path fill="url(#gradient_3)" d="M271.946 157.002C283.632 152.714 292.39 156.172 299.065 166.018C299.828 167.142 300.99 168.442 301.604 169.621C303.911 172.691 306.549 176.535 308.898 179.455C310.541 181.047 311.656 182.884 313.622 184.266C313.663 177.921 313.969 171.581 314.541 165.262C314.572 163.718 313.904 163.171 313.644 161.648C313.832 160.677 314.11 160.494 314.786 159.743C316.884 155.495 319.397 155.419 323.638 155.5C327.452 155.383 333.393 154.849 336.456 157.378C337.7 158.405 338.894 162.82 338.833 164.402C338.151 182.211 338.568 200.099 338.858 217.917C338.913 221.24 339.285 224.552 339.241 227.883C335.459 234.294 323.005 236.483 317.303 232.603C307.721 226.085 302.722 213.24 294.201 205.312C294.191 209.587 294.212 213.863 294.264 218.138C294.312 222.795 295.309 228.403 291.136 231.358C285.231 235.006 279.933 235.822 273.837 231.925C266.292 227.03 270.834 212.197 270.73 204.565C270.713 203.371 271.178 200.141 271.496 198.925C271.652 195.637 271.73 192.346 271.729 189.054C270.016 181.93 269.203 168.927 270.891 161.902C271.224 160.409 271.714 158.478 271.946 157.002Z"/><path fill="#604B89" d="M323.638 155.5C327.452 155.383 333.393 154.849 336.456 157.378C337.7 158.405 338.894 162.82 338.833 164.402C338.151 182.211 338.568 200.099 338.858 217.917C338.913 221.24 339.285 224.552 339.241 227.883C335.459 234.294 323.005 236.483 317.303 232.603C307.721 226.085 302.722 213.24 294.201 205.312C294.191 209.587 294.212 213.863 294.264 218.138C294.312 222.795 295.309 228.403 291.136 231.358C285.231 235.006 279.933 235.822 273.837 231.925C266.292 227.03 270.834 212.197 270.73 204.565C270.713 203.371 271.178 200.141 271.496 198.925C271.533 199.567 271.623 200.192 271.665 200.793C271.904 200.012 271.805 199.887 272.312 199.407L273.128 199.224C273.044 200.103 272.823 200.75 273.159 201.435L273.426 201.267C273.225 204.631 273.242 207.965 273.229 211.333C273.71 218.75 273.465 229.934 284.405 227.481C287.281 226.836 289.011 225.83 290.673 223.353C291.424 217.846 290.118 214.61 290.086 209.558C290.04 202.211 289.853 194.216 290.095 186.901C293.202 190.347 295.353 194.173 297.985 197.971C300.042 200.938 302.196 203.861 304.316 206.787C307.021 210.619 317.964 225.549 320.951 227.614C324.188 227.988 329.381 227.892 332.232 225.942C334.463 224.544 334.215 220.277 334.242 217.884C334.452 199.458 332.911 181.412 335.482 163.11C334.997 162.383 334.417 161.723 333.76 161.147C330.851 158.604 325.977 159.27 322.41 159.529C321.114 160.148 319.493 159.866 318.834 160.981C317.61 160.655 316.753 160.707 315.622 161.267L315.1 161.921L314.786 159.743C316.884 155.495 319.397 155.419 323.638 155.5Z"/><defs><linearGradient id="gradient_4" gradientUnits="userSpaceOnUse" x1="276.94391" y1="214.59758" x2="267.88028" y2="216.88936"><stop offset="0" stop-color="#44346E"/><stop offset="1" stop-color="#6A518B"/></linearGradient></defs><path fill="url(#gradient_4)" d="M271.496 198.925C271.533 199.567 271.623 200.192 271.665 200.793C271.904 200.012 271.805 199.887 272.312 199.407L273.128 199.224C273.044 200.103 272.823 200.75 273.159 201.435L273.426 201.267C273.225 204.631 273.242 207.965 273.229 211.333C272.457 212.615 273.366 218.71 273.667 220.506C273.75 221 273.006 220.862 272.987 220.967C272.623 222.933 272.977 226.324 273.449 228.132C273.771 229.365 274.198 230.049 274.594 230.676C274.716 231.051 274.865 231.412 275.018 231.775C274.436 232 274.467 231.972 273.837 231.925C266.292 227.03 270.834 212.197 270.73 204.565C270.713 203.371 271.178 200.141 271.496 198.925Z"/><path fill="#39235F" d="M320.951 227.614L320.899 228.129L320.611 228.342C318.764 227.595 303.811 208.544 303.734 206.999L304.316 206.787C307.021 210.619 317.964 225.549 320.951 227.614Z"/><path fill="#9074B1" d="M314.786 159.743C316.884 155.495 319.397 155.419 323.638 155.5C322.815 155.682 319.949 156.062 319.606 156.304C319.554 157.607 318.817 158.855 318.094 159.925L318.317 160.142C319.603 159.874 320.826 159.542 322.094 159.206L322.41 159.529C321.114 160.148 319.493 159.866 318.834 160.981C317.61 160.655 316.753 160.707 315.622 161.267L315.1 161.921L314.786 159.743Z"/><path fill="#39235F" d="M274.594 230.676C279.004 234.564 284.862 233.64 289.826 231.32C290.4 231.449 290.559 231.466 291.136 231.358C285.231 235.006 279.933 235.822 273.837 231.925C274.467 231.972 274.436 232 275.018 231.775C274.865 231.412 274.716 231.051 274.594 230.676Z"/><defs><linearGradient id="gradient_5" gradientUnits="userSpaceOnUse" x1="319.7966" y1="164.05757" x2="285.67517" y2="184.69119"><stop offset="0" stop-color="#644D76"/><stop offset="1" stop-color="#8265A1"/></linearGradient></defs><path fill="url(#gradient_5)" d="M271.946 157.002C283.632 152.714 292.39 156.172 299.065 166.018C299.828 167.142 300.99 168.442 301.604 169.621C303.911 172.691 306.549 176.535 308.898 179.455C310.541 181.047 311.656 182.884 313.622 184.266C313.663 177.921 313.969 171.581 314.541 165.262C314.572 163.718 313.904 163.171 313.644 161.648C313.832 160.677 314.11 160.494 314.786 159.743L315.1 161.921L315.622 161.267C316.753 160.707 317.61 160.655 318.834 160.981C318.016 170.42 318.024 191.82 319.652 201.25L319.391 201.004C315.069 196.878 312.031 192.172 308.344 187.286C301.721 178.577 295.87 168.627 288.024 161.012C287.084 160.099 283.384 159.07 282.096 159.36C278.973 160.061 274.929 158.603 274.364 162.521L274.061 161.647C273.339 161.463 272.017 161.941 270.891 161.902C271.224 160.409 271.714 158.478 271.946 157.002Z"/><path fill="#39235F" d="M301.604 169.621C303.911 172.691 306.549 176.535 308.898 179.455C308.724 179.507 308.324 179.545 308.127 179.57C306.395 178.464 302.394 173.154 301.594 171.29C301.363 170.757 301.367 170.151 301.604 169.621Z"/><path fill="#B7A2DF" d="M314.786 159.743L315.1 161.921C314.901 163.037 314.696 164.138 314.541 165.262C314.572 163.718 313.904 163.171 313.644 161.648C313.832 160.677 314.11 160.494 314.786 159.743Z"/><defs><linearGradient id="gradient_6" gradientUnits="userSpaceOnUse" x1="268.33005" y1="173.07469" x2="276.08261" y2="175.07948"><stop offset="0" stop-color="#7F6598"/><stop offset="1" stop-color="#4D375F"/></linearGradient></defs><path fill="url(#gradient_6)" d="M270.891 161.902C272.017 161.941 273.339 161.463 274.061 161.647L274.364 162.521C273.78 170.636 273.523 178.553 273.772 186.688C273.81 187.929 273.842 189.334 273.79 190.569C273.153 189.22 273.537 188.816 272.595 187.084L272.209 187.034C271.709 187.673 271.779 188.221 271.729 189.054C270.016 181.93 269.203 168.927 270.891 161.902Z"/><path fill="#39235F" d="M271.729 189.054C271.779 188.221 271.709 187.673 272.209 187.034L272.595 187.084C273.537 188.816 273.153 189.22 273.79 190.569C273.851 194.215 273.621 197.632 273.426 201.267L273.159 201.435C272.823 200.75 273.044 200.103 273.128 199.224L272.312 199.407C271.805 199.887 271.904 200.012 271.665 200.793C271.623 200.192 271.533 199.567 271.496 198.925C271.652 195.637 271.73 192.346 271.729 189.054Z"/><path fill="#D2BEE5" d="M219.436 77.3695C226.199 77.1909 232.719 77.8546 239.458 78.1119C241.109 78.175 243.071 78.1435 244.672 78.4882C243.304 79.0928 233.659 77.6003 231.458 78.2044C231.794 79.1863 233.091 79.3384 233.202 79.6622C233.333 80.851 235.131 80.453 235.949 81.4198C240.281 86.546 245.178 88.2145 251.802 88.3184C252.913 88.3359 253.889 89.5897 255.594 89.1723L255.644 88.805C255.36 88.3837 255.333 88.3387 255.142 87.8688C256.033 87.701 257.847 88.4363 258.374 89.2445C259.066 90.3047 260.481 90.7443 261.413 91.6317C261.667 91.877 261.876 92.1657 262.03 92.4842C263.098 94.7195 259.977 96.562 258.928 98.2565C258.602 98.7842 252.675 96.9856 252.352 97.063C247.548 98.2123 243.293 99.4407 238.279 99.3671C237.838 99.3618 238.333 99.575 237.343 99.3888C236.745 99.3394 236.922 99.3318 236.35 99.4583C234.432 99.882 231.747 100.844 229.84 100.54C229.606 100.511 226.839 99.5985 226.837 99.5991C221.524 101.375 216.92 98.6604 211.996 96.8927C209.805 96.1057 206.641 95.5686 204.084 94.7277C205.216 92.3138 204.976 92.9745 204.217 90.8846C203.348 88.4921 207.737 89.0308 208.648 87.4863L207.921 86.8653C206.386 81.5815 214.247 83.1066 214.672 78.8931L214.348 78.6602C208.45 79.137 203.063 79.3122 197.475 81.5971C196.402 82.0358 191.996 83.843 191.297 83.6339C192.507 82.8863 194.057 82.7674 195.346 82.151C203.273 78.3588 210.866 78.9484 219.436 77.3695Z"/><path fill="#39235F" d="M139.81 97.2178C140.182 97.457 140.345 97.5044 140.761 97.6409C140.57 97.9928 140.693 97.846 140.429 98.0716C135.101 102.629 129.965 108.148 125.47 113.5L124.786 113.191C125.347 111.218 137.469 99.4718 139.81 97.2178Z"/><defs><linearGradient id="gradient_7" gradientUnits="userSpaceOnUse" x1="372.58258" y1="274.70734" x2="360.36966" y2="272.28317"><stop offset="0" stop-color="#412D8D"/><stop offset="1" stop-color="#7A72B7"/></linearGradient></defs><path fill="url(#gradient_7)" d="M374.443 258.848L375.643 258.936C375.801 259.723 375.584 259.944 375.675 260.783C374.785 262.43 373.688 265.963 372.579 268.087C367.906 277.041 363.204 284.307 357.363 292.484C357.048 291.219 358.832 290.216 359.628 288.643C359.005 288.652 358.237 288.663 357.326 288.677C354.701 291.27 351.968 294.862 349.665 297.706C348.401 299.266 348.312 300.339 347.014 301.155L346.87 300.924C347.572 299.097 352.982 293.132 354.434 291.321C356.946 288.137 359.38 284.893 361.733 281.59C366.458 274.823 370.905 266.296 374.443 258.848Z"/><path fill="#7A66B9" d="M374.443 258.848C375.092 257.6 376.473 254.569 377.633 253.99C378.5 255.384 376.36 259.352 375.675 260.783C375.584 259.944 375.801 259.723 375.643 258.936L374.443 258.848Z"/></svg>