<?xml version="1.0" encoding="utf-8" ?><svg xmlns="http://www.w3.org/2000/svg" xmlns:xlink="http://www.w3.org/1999/xlink" width="460" height="387" viewBox="0 0 460 387"><path d="M259.887 13.8008C263.577 13.382 266.873 14.1027 269.808 16.3554C279.885 24.0912 281.847 25.2401 283.605 37.4492C286.527 37.2962 289.906 37.1131 292.364 39.0299C295.943 41.8205 299.242 45.4785 302.454 48.6952C305.018 51.2639 306.255 57.7626 306.851 61.1575C314.595 61.5364 317.608 62.3481 322.923 68.549C327.307 73.6638 327.989 77.3331 329.217 83.6655C338.942 84.4086 350.291 92.6327 352.247 102.597C352.709 104.948 352.11 112.247 350.97 114.218C347.334 120.504 344.688 121.32 346.168 129.152C347.023 133.749 349.51 137.882 353.17 140.791C357.085 143.863 359.76 145.467 361.524 150.298C363.059 154.502 365.414 157.307 369.372 159.398C374.725 162.226 380.781 159.422 385.672 162.948C391.095 167.088 394.435 172.95 395.508 179.74C395.68 180.824 395.075 184.938 395.013 186.337C394.936 188.063 394.703 190.619 394.488 192.309C394.372 193.225 391.755 196.791 392.2 197.657C393.12 199.447 397.615 201.453 398.788 203.49C399.634 205.157 400.442 207.413 400.614 209.328C400.99 213.521 403.223 218.937 401.072 222.849C400.366 224.134 398.458 225.775 397.859 226.789C396.255 229.505 401.924 233.2 403.138 235.263C404.205 236.926 404.952 238.265 405.476 240.315C406.893 245.851 407.005 252.476 405.138 257.893C404.836 258.769 402.934 261.767 402.33 262.843C405.868 265.155 408.797 267.343 409.595 271.735C410.371 275.38 412.739 277.456 413.134 281.464C413.693 287.121 412.376 290.723 408.735 295.072C403.563 301.252 395.049 301.574 390.713 308.573C388.042 312.885 388.804 316.896 387.55 321.588C386.951 323.805 385.695 326.319 384.298 328.143C379.347 334.429 370.445 334.377 363.144 335.631C354.767 337.07 346.067 338.281 337.669 339.752C333.952 340.417 330.16 341.599 326.442 342.322C319.226 343.571 311.988 345.301 304.735 346.175C302.736 346.371 300.649 346.423 298.668 346.769C286.024 348.979 273.317 351.065 260.61 352.881C253.533 353.892 246.714 355.463 239.685 356.73C228.535 358.717 217.356 360.535 206.152 362.186C202.235 362.786 198.081 363.612 194.191 364.073C187.329 365.382 180.469 366.309 173.645 367.629C166.743 368.965 156.204 371.623 149.253 371.166C142.271 370.682 136.076 366.516 132.993 360.233C131.315 356.763 131.374 355.039 128.59 351.891C124.751 347.551 122.612 347.665 116.93 347.5C111.355 347.657 107.695 344.908 104.148 340.934C100.311 336.634 100.184 335.049 99.8768 329.698C99.732 327.178 96.9997 323.422 98.1738 320.002C99.4892 316.172 101.022 314.397 101.293 310.31C97.5415 307.363 95.6345 307.243 94.9291 301.974C94.7143 299.429 93.3227 295.524 93.3641 293.078C93.4433 288.399 92.4698 284.736 91.681 280.204C91.4429 278.836 91.7371 276.201 91.8589 274.735C90.365 275.206 87.8373 276.083 86.22 275.597C82.1322 274.37 74.0126 265.412 71.4192 261.994C67.7983 257.222 68.372 254.66 69.3702 249.865C67.7456 250.321 66.0215 250.69 64.6255 251.615C59.5558 249.513 57.3397 247.599 53.5116 243.83C49.2134 239.597 46.6672 236.699 46.6232 230.303C46.6052 227.694 46.6183 225.325 47.6578 222.822C50.0913 216.903 52.8011 214.185 52.8569 207.516C52.906 201.639 48.737 199.598 48.0815 194.98C47.4003 190.181 47.3708 183.824 50.3208 179.731C52.4885 175.896 56.9958 173.572 59.601 170.371C66.5095 161.883 74.4935 154.818 82.1288 147.036C84.0976 145.029 86.1786 143.257 88.1146 141.298L168.799 60.6582L197.106 32.78C203.081 26.889 208.71 19.7234 216.265 15.6096C221.273 12.8829 226.97 14.1435 231.552 16.9985C233.979 18.511 236.442 20.3024 239.325 20.6952C250.7 22.6314 250.656 15.5337 259.887 13.8008ZM379.722 187.019C379.906 188.571 379.531 189.011 380.291 189.841L380.904 189.326C381.64 187.669 381.568 186.929 381.323 185.202C380.968 185.585 379.937 186.638 379.722 187.019Z"/><path fill="#ED5652" d="M259.289 30.3425C260.394 29.4806 262.026 28.5991 263.329 28.0855C265.359 29.7822 268.442 32.2029 268.745 34.9848C268.629 36.138 268.488 37.3503 268.408 38.5016C268.188 40.9907 267.564 44.6043 268.768 46.7717C270.983 50.047 272.907 52.7733 277.081 53.5531C281.272 54.3363 281.923 52.5636 284.534 50.2563C287.654 52.1603 290.065 54.87 290.882 58.5112C291.234 60.3374 291.262 61.0322 291.286 62.9093C291.439 65.6099 291.123 68.0874 292.084 70.5639C294.118 73.2336 296.558 75.5019 299.481 77.1744C300.669 77.5482 301.242 77.674 302.477 77.3159C304.734 76.1418 306.562 75.2612 309.185 76.073C311.192 76.6941 313.119 78.9479 313.531 80.9944C313.909 82.2623 313.603 83.4157 313.414 84.752C313.299 88.1567 313.148 89.9395 314.339 93.1873C313.517 95.0956 315.61 97.374 316.919 98.6941C319.044 100.079 320.102 101.101 322.501 102.086C323.951 102.049 323.648 102.146 324.743 101.442C325.606 101.545 325.709 101.513 326.517 101.182C327.944 100.33 329.315 99.4481 330.869 98.8563C333.91 99.9984 337.027 102.257 338.44 105.247C339.594 107.335 337.699 109.151 336.309 110.697C334.249 113.876 332.671 116.777 331.817 120.529C331.695 121.068 331.494 122.527 331.352 122.936L331.252 125.552C331.525 128.07 331.735 129.415 332.359 131.927C332.997 134.397 333.68 136.856 334.407 139.301C334.835 140.545 335.357 142.225 335.849 143.407C336.627 144.676 337.421 146.018 338.247 147.248C338.531 149.54 338.407 150.076 336.775 152.023C335.389 153.678 327.549 162.126 326.031 162.301C326.741 161.286 328.986 159.981 330.071 158.452L330.025 158.061C329.325 158.024 328.912 158.219 328.249 158.438C326.449 160.284 325.032 162.331 322.786 163.181C322.253 163.684 321.619 164.319 321.062 164.774C319.585 166.569 316.64 169.348 314.893 171.06C311.005 174.799 307.163 178.585 303.366 182.418L249.242 236.715L198.907 287.027C195.629 290.317 192.402 293.657 189.227 297.047C186.489 299.989 181.283 305.704 178.164 308.012C177.403 308.058 174.668 306.361 173.751 305.848C164.761 300.819 155.385 298.3 145.56 302.858C142.878 304.101 139.778 306.231 137.04 307.455C136.681 307.615 136.64 307.459 136.191 307.205C133.781 305.85 131.191 303.417 129.506 301.261C129.147 294.605 132.602 289.554 125.281 284.433C122.937 285.674 120.841 284.935 118.413 284.289C117.865 283.994 116.272 283.983 115.563 283.94C112.109 285.031 110.994 285.785 108.69 282.489C107.431 281.498 106.67 280.323 105.843 278.983C106.086 276.281 107.188 272.874 107.547 269.634C107.44 263.787 105.073 260.268 99.5356 258.042C95.6905 258.136 93.8718 259.027 90.6665 259.318L90.4175 259.416C87.3551 259.032 84.4862 255.681 83.459 252.91C84.2223 248.264 85.2474 243.977 83.3688 239.529C81.3945 237.435 80.6133 236.975 78.036 235.62C74.4778 234.6 73.5574 234.56 69.9372 235.278C68.3547 237.646 67.8582 237.478 65.1061 237.747C61.8957 235.834 58.0018 233.463 59.8078 229.33C60.0891 227.344 62.6961 224.979 63.4132 222.772C65.51 216.32 68.7338 207.711 67.2845 201C66.8337 198.912 65.2597 195.468 64.4144 193.502C63.5765 191.572 63.1924 189.716 62.7719 187.678C63.4942 186.503 64.2974 185.643 65.2162 184.625C75.3467 173.396 86.4244 163.078 97.0549 152.323C136.893 112.371 176.933 72.6216 217.176 33.0769C217.884 32.3864 219.165 31.0071 220.013 30.7709C222.432 30.0974 225.521 30.6879 227.677 31.867C239.691 36.8409 247.67 36.9291 259.289 30.3425Z"/><defs><linearGradient id="gradient_0" gradientUnits="userSpaceOnUse" x1="148.96892" y1="114.23595" x2="142.26117" y2="107.46173"><stop offset="0" stop-color="#E4A28A"/><stop offset="1" stop-color="#F3CAAA"/></linearGradient></defs><path fill="url(#gradient_0)" d="M62.7719 187.678C63.4942 186.503 64.2974 185.643 65.2162 184.625C75.3467 173.396 86.4244 163.078 97.0549 152.323C136.893 112.371 176.933 72.6216 217.176 33.0769C217.884 32.3864 219.165 31.0071 220.013 30.7709C222.432 30.0974 225.521 30.6879 227.677 31.867C228.551 32.6553 229.061 33.011 230.199 33.3604L230.275 33.8473L229.976 34.0548C227.892 33.6518 225.156 32.1087 223.451 33.6308C223.446 35.1011 225.338 35.0302 224.349 36.8906L223.634 37.2706C220.637 38.1854 214.298 44.9726 211.439 47.4559C206.072 52.6248 200.683 57.0956 195.4 62.2839C193.752 63.9024 190.216 66.7698 189.056 68.4581C186.621 70.8951 181.809 75.1695 180.018 77.7189C178.915 78.5547 177.384 80.1965 176.232 81.2155C169.591 87.0892 163.427 93.7821 157.214 100.118C154.133 103.26 149.153 107.087 146.464 110.374C144.93 111.838 140.172 116.28 139.13 117.762C138.845 119.009 134.361 123.593 133.279 124.957C130.805 128.079 128.454 131.376 125.531 134.108C123.36 136.114 120.722 137.677 118.251 139.285C117.909 139.508 117.538 139.588 117.53 140.149C117.498 142.559 117.593 142.333 115.485 143.96C114.184 144.964 112.519 145.474 111.089 146.597C109.488 147.854 105.589 152.696 104.083 153.235C100.052 157.44 96.6108 160.35 92.583 164.212C90.1998 165.87 87.9666 168.619 85.7164 170.44C82.373 173.146 79.5108 176.601 76.4419 179.454C72.8592 182.784 70.3938 185.811 67.6666 189.863C67.0945 190.712 65.89 191.738 65.717 192.705C65.143 193.176 65.0949 193.239 64.4144 193.502C63.5765 191.572 63.1924 189.716 62.7719 187.678Z"/><path fill="#F36D63" d="M104.083 153.235C106.123 150.092 112.847 144.522 115.411 141.402C115.431 141.187 115.451 140.972 115.471 140.757C115.168 140.302 114.867 139.988 114.877 139.46L115.359 139.221L116.199 139.315C116.565 139.357 117.393 139.484 117.681 139.205C122.642 134.395 127.786 129.73 132.696 124.869C134.933 122.655 136.728 119.886 139.13 117.762C138.845 119.009 134.361 123.593 133.279 124.957C130.805 128.079 128.454 131.376 125.531 134.108C123.36 136.114 120.722 137.677 118.251 139.285C117.909 139.508 117.538 139.588 117.53 140.149C117.498 142.559 117.593 142.333 115.485 143.96C114.184 144.964 112.519 145.474 111.089 146.597C109.488 147.854 105.589 152.696 104.083 153.235Z"/><path fill="#F36D63" d="M107.547 269.634C107.71 268.77 107.83 268.374 107.773 267.508C108.258 267.779 108.32 267.955 108.645 268.408C109.635 269.033 119.542 267.836 121.17 267.504C121.628 267.41 124.64 265.815 125.109 265.416C127.216 263.624 128.955 258.775 132.135 262.035C132.088 263.071 132.235 262.701 131.675 263.533C130.602 264.094 129.688 264.222 129.14 264.992C130.16 265.246 130.168 265.063 130.687 265.708C130.489 267.27 129.794 268.877 129.909 270.401C130.235 274.748 128.403 279.05 125.501 282.107C125.793 282.669 126.394 282.889 126.98 283.212C127.017 283.37 127.094 283.609 127.082 283.752C125.82 282.993 124.036 281.455 122.92 282.876L122.989 283.115C123.685 283.504 124.641 283.999 125.281 284.433C122.937 285.674 120.841 284.935 118.413 284.289C117.865 283.994 116.272 283.983 115.563 283.94C112.109 285.031 110.994 285.785 108.69 282.489C107.431 281.498 106.67 280.323 105.843 278.983C106.086 276.281 107.188 272.874 107.547 269.634Z"/><path fill="#3D1210" d="M117.404 281.962C119.946 282.004 120.503 282.295 122.92 282.876L122.989 283.115C123.685 283.504 124.641 283.999 125.281 284.433C122.937 285.674 120.841 284.935 118.413 284.289C117.865 283.994 116.272 283.983 115.563 283.94C116.579 283.18 116.703 282.973 117.404 281.962Z"/><path fill="#201613" d="M122.989 283.115C123.685 283.504 124.641 283.999 125.281 284.433C122.937 285.674 120.841 284.935 118.413 284.289C119.921 284.212 121.703 283.941 122.989 283.115Z"/><path fill="#B6302F" d="M108.69 282.489C112.192 282.559 114.601 281.911 117.404 281.962C116.703 282.973 116.579 283.18 115.563 283.94C112.109 285.031 110.994 285.785 108.69 282.489Z"/><defs><linearGradient id="gradient_1" gradientUnits="userSpaceOnUse" x1="245.45795" y1="40.963856" x2="245.33388" y2="31.669065"><stop offset="0" stop-color="#EC7970"/><stop offset="1" stop-color="#E49C95"/></linearGradient></defs><path fill="url(#gradient_1)" d="M259.289 30.3425C260.394 29.4806 262.026 28.5991 263.329 28.0855C265.359 29.7822 268.442 32.2029 268.745 34.9848C268.629 36.138 268.488 37.3503 268.408 38.5016C267.06 38.0473 267.668 37.5027 266.647 37.3574C262.537 36.7726 257.867 38.9535 253.991 39.9738C246.307 41.9969 241.041 42.2473 233.577 39.8512C231.38 38.3924 226.373 37.2184 223.634 37.2706L224.349 36.8906C225.338 35.0302 223.446 35.1011 223.451 33.6308C225.156 32.1087 227.892 33.6518 229.976 34.0548L230.275 33.8473L230.199 33.3604C229.061 33.011 228.551 32.6553 227.677 31.867C239.691 36.8409 247.67 36.9291 259.289 30.3425Z"/><path fill="#E1C0B8" d="M259.289 30.3425C260.394 29.4806 262.026 28.5991 263.329 28.0855C265.359 29.7822 268.442 32.2029 268.745 34.9848C267.54 35.8378 263.73 31.6061 261.64 32.1034C261.13 32.2247 259.149 31.8507 258.621 31.2769L259.289 30.3425Z"/><path fill="#EE9682" d="M321.427 162.595C322.999 162.269 322.347 161.418 323.131 161.899C322.72 162.953 321.685 163.057 321.062 164.774C319.585 166.569 316.64 169.348 314.893 171.06C311.005 174.799 307.163 178.585 303.366 182.418L249.242 236.715L198.907 287.027C195.629 290.317 192.402 293.657 189.227 297.047C186.489 299.989 181.283 305.704 178.164 308.012L178.034 306.74C183.301 300.373 190.177 294.349 195.825 288.21C201.218 282.347 207.478 277.134 213.069 271.415C238.613 245.037 264.589 219.08 290.986 193.554C293.987 190.613 296.734 187.255 299.744 184.355C301.913 182.236 307.288 177.253 308.928 175.18C313.156 171.084 317.24 166.553 321.427 162.595Z"/><path fill="#ED8379" d="M65.717 192.705L66.1677 193.715C69.2708 199.973 68.4085 207.825 68.0682 214.886C73.9379 219.221 77.8642 223.206 72.7632 230.391L69.4141 230.378C66.8961 231.927 66.7974 233.384 65.9588 236.25C66.9312 236.183 68.0699 235.76 69.0237 235.462L69.9372 235.278C68.3547 237.646 67.8582 237.478 65.1061 237.747C61.8957 235.834 58.0018 233.463 59.8078 229.33C60.0891 227.344 62.6961 224.979 63.4132 222.772C65.51 216.32 68.7338 207.711 67.2845 201C66.8337 198.912 65.2597 195.468 64.4144 193.502C65.0949 193.239 65.143 193.176 65.717 192.705Z"/><path fill="#201613" d="M59.8078 229.33C61.6469 232.055 63.3234 234.194 65.9588 236.25C66.9312 236.183 68.0699 235.76 69.0237 235.462L69.9372 235.278C68.3547 237.646 67.8582 237.478 65.1061 237.747C61.8957 235.834 58.0018 233.463 59.8078 229.33Z"/><path fill="#740A0B" d="M178.034 306.74C177.47 306.09 177.567 306.438 177.534 305.735C180.333 303.586 183.09 300.465 185.449 297.856C193.563 288.886 202.132 280.632 210.959 272.384C214.528 269.049 217.637 265.068 221.127 261.651C225.805 256.852 231.246 252.305 235.708 247.334C246.707 234.916 259.321 224.083 270.72 212.044C277.688 204.684 284.864 197.691 292.273 190.769C293.432 189.687 298.956 182.958 299.851 182.611L299.972 182.863L299.131 183.716L299.147 184.118L299.744 184.355C296.734 187.255 293.987 190.613 290.986 193.554C264.589 219.08 238.613 245.037 213.069 271.415C207.478 277.134 201.218 282.347 195.825 288.21C190.177 294.349 183.301 300.373 178.034 306.74Z"/><path fill="#ED8379" d="M302.477 77.3159C304.734 76.1418 306.562 75.2612 309.185 76.073C311.192 76.6941 313.119 78.9479 313.531 80.9944C313.909 82.2623 313.603 83.4157 313.414 84.752C313.102 84.3008 312.609 83.4573 312.118 83.3327C310.034 82.8035 307.208 83.1049 305.147 82.7941C302.497 82.3944 299.407 81.381 296.849 80.5823C297.584 79.4381 298.026 78.9609 297.877 77.6409C299.028 77.6244 298.622 77.7716 299.481 77.1744C300.669 77.5482 301.242 77.674 302.477 77.3159Z"/><path fill="#E1C0B8" d="M302.477 77.3159C304.734 76.1418 306.562 75.2612 309.185 76.073C311.192 76.6941 313.119 78.9479 313.531 80.9944L313.365 81.7248L313.259 81.2551L312.551 81.4098C311.451 80.9668 302.787 77.5866 302.477 77.3159Z"/><path fill="#ED8379" d="M330.869 98.8563C333.91 99.9984 337.027 102.257 338.44 105.247C337.544 105.282 336.618 104.687 335.768 104.266C335.525 104.492 334.773 105.223 334.549 105.362C331.334 107.36 324.444 106.485 320.919 106.049C320.249 105.429 318.852 104.292 319.366 103.4L321.807 102.799L321.147 102.681L321.383 102.196C321.784 102.137 322.097 102.114 322.501 102.086C323.951 102.049 323.648 102.146 324.743 101.442C325.606 101.545 325.709 101.513 326.517 101.182C327.944 100.33 329.315 99.4481 330.869 98.8563Z"/><path fill="#E1C0B8" d="M330.869 98.8563C333.91 99.9984 337.027 102.257 338.44 105.247C337.544 105.282 336.618 104.687 335.768 104.266C333.566 103.047 327.702 102.395 326.517 101.182C327.944 100.33 329.315 99.4481 330.869 98.8563Z"/><path fill="#F36D63" d="M92.583 164.212C92.4696 165.322 90.3143 166.651 90.0843 167.137C89.8094 167.718 91.3458 169.872 90.5222 170.985L90.3037 170.886L90.134 170.42C88.2952 173.208 85.6765 174.613 83.0463 176.507C81.4838 177.632 79.8607 179.653 78.4171 180.655C74.4248 183.428 71.9029 186.191 69.0892 190.144C68.0776 191.565 66.6463 191.662 66.1677 193.715L65.717 192.705C65.89 191.738 67.0945 190.712 67.6666 189.863C70.3938 185.811 72.8592 182.784 76.4419 179.454C79.5108 176.601 82.373 173.146 85.7164 170.44C87.9666 168.619 90.1998 165.87 92.583 164.212Z"/><path fill="#F36D63" d="M316.919 98.6941C319.044 100.079 320.102 101.101 322.501 102.086C322.097 102.114 321.784 102.137 321.383 102.196L321.147 102.681L321.807 102.799L319.366 103.4C318.852 104.292 320.249 105.429 320.919 106.049C324.444 106.485 331.334 107.36 334.549 105.362C334.773 105.223 335.525 104.492 335.768 104.266C336.618 104.687 337.544 105.282 338.44 105.247C339.594 107.335 337.699 109.151 336.309 110.697C336.22 109.228 337.63 108.913 337.549 107.182C334.24 104.864 326.173 111.109 322.268 110.547C321.31 110.41 320.464 109.252 319.935 108.479C318.824 106.856 316.974 105.138 317.157 102.869C317.229 101.978 317.753 100.964 317.745 99.8692L316.958 99.2159L316.919 98.6941Z"/><path fill="#E1C0B8" d="M272.098 53.4288C270.696 52.122 267.902 48.7411 268.768 46.7717C270.983 50.047 272.907 52.7733 277.081 53.5531C281.272 54.3363 281.923 52.5636 284.534 50.2563C287.654 52.1603 290.065 54.87 290.882 58.5112C289.265 58.9094 288.752 56.7408 286.695 56.1C281.346 54.4339 277.222 56.2138 272.098 53.4288Z"/><path fill="#ED8379" d="M122.92 282.876C124.036 281.455 125.82 282.993 127.082 283.752C135.191 290.457 129.241 296.798 134.441 304.085C135.252 305.221 136.701 305.827 136.191 307.205C133.781 305.85 131.191 303.417 129.506 301.261C129.147 294.605 132.602 289.554 125.281 284.433C124.641 283.999 123.685 283.504 122.989 283.115L122.92 282.876Z"/><path fill="#ED8379" d="M272.098 53.4288C277.222 56.2138 281.346 54.4339 286.695 56.1C288.752 56.7408 289.265 58.9094 290.882 58.5112C291.234 60.3374 291.262 61.0322 291.286 62.9093C290.768 62.407 289.742 59.7499 289.287 58.8033C285.046 58.1124 274.964 58.6071 271.769 56.6112C272.013 55.0791 272.297 55.7633 272.132 53.8037L272.098 53.4288Z"/><path fill="#D22728" d="M90.6665 259.318C91.1229 258.974 91.4558 258.792 91.567 258.224C92.2042 254.966 98.9339 254.151 101.558 255.142C103.913 256.033 104.782 257.92 105.8 260.201C104.206 259.154 102.253 257.31 100.373 257.134C99.594 257.487 99.8781 257.207 99.5356 258.042C95.6905 258.136 93.8718 259.027 90.6665 259.318Z"/><path fill="#F36D63" d="M223.634 37.2706C226.373 37.2184 231.38 38.3924 233.577 39.8512C232.05 39.9079 228.981 38.4668 227.162 38.0754C227.094 38.2171 226.593 39.2474 226.571 39.2626C223.927 41.1145 219.491 42.2206 216.743 43.5341C216.401 43.6976 212.302 47.2755 211.879 47.6404L211.439 47.4559C214.298 44.9726 220.637 38.1854 223.634 37.2706Z"/><path fill="#F36D63" d="M146.464 110.374C149.153 107.087 154.133 103.26 157.214 100.118C163.427 93.7821 169.591 87.0892 176.232 81.2155C177.384 80.1965 178.915 78.5547 180.018 77.7189L180.044 78.1175C177.209 81.328 173.764 83.7127 170.858 86.875C169.666 88.172 167.829 89.6262 166.884 91.0791C167.81 90.657 167.947 89.7675 168.528 89.9614C167.497 92.1183 164.617 95.954 162.226 96.7496C161.426 97.0157 161.679 96.2929 161.36 96.5966C159.204 98.6501 148.306 109.472 146.712 110.547L146.464 110.374Z"/><path fill="#3D1210" d="M338.247 147.248C338.531 149.54 338.407 150.076 336.775 152.023C335.389 153.678 327.549 162.126 326.031 162.301C326.741 161.286 328.986 159.981 330.071 158.452L330.025 158.061C329.325 158.024 328.912 158.219 328.249 158.438C326.449 160.284 325.032 162.331 322.786 163.181C325.553 160.064 337.322 149.72 338.247 147.248Z"/><path fill="#AA0F11" d="M308.928 175.18C309.409 171.355 319.917 160.696 323.453 159.446L323.773 159.668C323.607 160.368 322.012 161.718 321.427 162.595C317.24 166.553 313.156 171.084 308.928 175.18Z"/><path fill="#F36D63" d="M211.439 47.4559L211.879 47.6404C206.027 53.2463 201.404 59.2854 194.507 63.896C192.779 65.0513 191.112 67.8162 189.056 68.4581C190.216 66.7698 193.752 63.9024 195.4 62.2839C200.683 57.0956 206.072 52.6248 211.439 47.4559Z"/><path fill="#EE9682" d="M330.258 127.939L330.611 127.751L331.252 125.552C331.525 128.07 331.735 129.415 332.359 131.927C332.997 134.397 333.68 136.856 334.407 139.301L334.027 140.766C333.602 140.496 333.453 140.111 333.2 139.664C332.422 137.632 331.765 135.556 331.23 133.447C330.637 131.503 330.371 129.952 330.258 127.939Z"/><path fill="#F36D63" d="M65.9588 236.25C66.7974 233.384 66.8961 231.927 69.4141 230.378L72.7632 230.391L74.2761 230.575C69.3697 232.038 71.1713 228.753 67.7872 234.919L67.8503 235.215C68.2502 235.294 68.6277 235.365 69.0237 235.462C68.0699 235.76 66.9312 236.183 65.9588 236.25Z"/><path fill="#E1C0B8" d="M292.084 70.5639C294.118 73.2336 296.558 75.5019 299.481 77.1744C298.622 77.7716 299.028 77.6244 297.877 77.6409C295.972 76.4369 291.29 73.2036 292.084 70.5639Z"/><path fill="#F36D63" d="M78.036 235.62L78.3553 235.278C78.9055 235.466 78.9528 235.447 79.5388 235.442C81.1079 235.429 83.4085 237.16 83.6218 238.738L83.3688 239.529C81.3945 237.435 80.6133 236.975 78.036 235.62Z"/><path fill="#ED8379" d="M334.407 139.301C334.835 140.545 335.357 142.225 335.849 143.407C333.472 143.941 333.59 141.621 333.2 139.664C333.453 140.111 333.602 140.496 334.027 140.766L334.407 139.301Z"/><path fill="#ED8379" d="M330.258 127.939C330.176 127.476 330.133 127.008 330.13 126.538C330.116 125.402 330.272 123.299 331.09 122.471L331.352 122.936L331.252 125.552L330.611 127.751L330.258 127.939Z"/><path fill="#AA0F11" d="M88.7749 195.316C88.5674 190.467 89.3261 187.879 92.7918 184.288C100.359 176.449 108.402 168.898 116.078 161.195L167.977 109.266L196.28 81.1712C201.907 75.4741 207.331 69.865 213.285 64.3638C220.569 57.6349 223.426 51.6862 233.996 58.486C235.72 59.5954 245.157 65.629 237.094 68.6791C235.349 69.3394 227.929 57.0627 222.805 63.3364C218.845 66.645 215.192 71.1658 211.221 75.1055C201.819 84.433 192.566 94.3034 183.167 103.672L129.914 156.348C122.649 163.471 115.429 170.639 108.253 177.851C104.818 181.284 101.372 184.65 97.9392 188.148C94.6908 191.458 93.898 194.839 96.8911 198.694C98.3225 200.538 102.413 203.293 99.6534 205.327C98.4398 206.222 97.7784 206.707 96.3799 207.268L94.8785 206.703C93.7372 207.658 92.6641 208.618 91.3738 209.363C88.6584 209.118 86.8372 209.047 85.8435 206.082C84.139 200.997 85.388 199.682 88.4927 196.016L88.4562 195.679L88.7749 195.316Z"/><path fill="#F36D63" d="M96.3799 207.268L94.8785 206.703C93.7372 207.658 92.6641 208.618 91.3738 209.363C88.6584 209.118 86.8372 209.047 85.8435 206.082C84.139 200.997 85.388 199.682 88.4927 196.016L88.4562 195.679L88.7749 195.316C89.8721 198.819 91.104 202.447 93.9266 204.803C94.5604 205.333 96.0181 206.609 96.3799 207.268Z"/><path fill="#B6302F" d="M228.78 57.9551C231.959 58.5772 242.303 64.1857 237 67.3932C233.974 64.1585 231.832 62.6049 228.077 60.245C227.39 59.8136 227.449 59.8373 227.348 59.2502C227.629 58.5071 228.047 58.389 228.78 57.9551Z"/><defs><linearGradient id="gradient_2" gradientUnits="userSpaceOnUse" x1="245.29619" y1="215.828" x2="229.93741" y2="199.51215"><stop offset="0" stop-color="#93040C"/><stop offset="1" stop-color="#C91D1F"/></linearGradient></defs><path fill="url(#gradient_2)" d="M300.521 137.4L300.282 137.567C299.968 137.48 299.523 137.386 299.358 137.131C298.246 135.406 302.446 129.242 303.369 128.38C305.309 127.988 308.051 129.809 307.39 132.083L306.867 132.361C306.686 132.243 306.505 132.124 306.325 132.005L306.13 131.865C306.345 132.677 307.641 133.611 308.343 134.426L307.858 134.582C310.229 137.215 311.432 138.521 311.325 142.38C311.267 144.506 309.87 148.901 308.523 150.375C304.035 155.281 298.594 159.632 293.917 164.414C276.324 182.356 258.491 200.061 240.423 217.525L193.987 263.812C189.183 268.541 184.502 273.297 179.932 278.137C174.309 284.092 165.746 279.564 161.333 274.602C158.982 272.122 159.846 270.184 161.492 267.666L161.819 267.864C169.796 272.767 168.903 279.151 179.066 269.895C188.826 261.007 197.78 251.367 207.193 242.173L276.813 173.24L295.29 154.791C299.277 150.868 304.233 148.138 305.859 142.503C304.5 140.161 303.01 138.601 300.521 137.4Z"/><path fill="#F36D63" d="M300.521 137.4L300.282 137.567C299.968 137.48 299.523 137.386 299.358 137.131C298.246 135.406 302.446 129.242 303.369 128.38C305.309 127.988 308.051 129.809 307.39 132.083L306.867 132.361C306.686 132.243 306.505 132.124 306.325 132.005L306.13 131.865C306.345 132.677 307.641 133.611 308.343 134.426L307.858 134.582C306.431 133.142 304.742 131.005 303.372 129.787C301.683 131.478 299.829 133.843 299.474 136.266C299.748 137.121 299.578 136.821 300.521 137.4Z"/><path fill="#AA0F11" d="M106.501 210.722C107.174 210.675 108.915 210.71 109.265 211.234C111.767 214.984 115.923 218.073 118.617 221.364C117.524 223.855 117.033 224.534 114.649 225.799C113.963 225.761 113.261 225.738 112.731 225.222C109.691 222.26 106.453 219.376 103.571 216.27C101.73 214.285 105.038 211.719 106.501 210.722Z"/><path fill="#AA0F11" d="M124.799 229.654C127.685 229.752 133.425 237.082 135.782 239.144C138.741 241.733 137.251 243.445 134.751 245.54C132.721 245.508 129.633 242.561 128.209 241.062C124.599 237.26 118.923 234.604 124.799 229.654Z"/><path fill="#AA0F11" d="M248.138 71.3862C248.712 71.7557 250.412 75.3599 251.376 76.4206C253.983 79.2874 257.007 81.4143 259.844 84.0362C258.506 85.5653 257.004 86.9434 255.365 88.146C254.874 88.5108 255.138 88.4346 254.565 88.4318C250.568 81.3403 238.866 81.3232 248.138 71.3862Z"/><path fill="#AA0F11" d="M144.913 248.922C146.885 249.39 151.122 254.875 152.987 256.496C154.211 257.56 155.23 258.466 156.603 259.526C155.065 262.047 154.717 262.684 152.384 264.449C149.465 261.904 142.724 255.748 140.771 252.823C142.215 250.724 142.731 250.257 144.913 248.922Z"/><path fill="#D22728" d="M281.137 114.553C285.165 107.137 288.104 114.319 292.277 117.591C293.635 118.655 296.404 121.928 294.644 123.606C294.01 124.51 291.755 126.239 290.689 125.381C287.902 123.138 285.751 120.148 282.989 117.842C282.333 117.294 280.758 116.209 280.565 115.533L281.137 114.553Z"/><path fill="#AA0F11" d="M281.137 114.553C285.165 107.137 288.104 114.319 292.277 117.591C293.635 118.655 296.404 121.928 294.644 123.606C293.631 123.642 293.003 124.952 292.03 124.767C292.017 123.78 293.274 124.292 293.704 122.859C292.641 120.763 286.315 113.336 283.839 113.324C282.981 113.744 282.808 114.172 282.277 114.968C282.079 114.118 282.128 114.406 282.655 113.411L282.526 113.319L282.043 113.983C281.57 114.055 281.568 114.184 281.137 114.553Z"/><path fill="#740A0B" d="M281.137 114.553C281.568 114.184 281.57 114.055 282.043 113.983L282.526 113.319L282.655 113.411C282.128 114.406 282.079 114.118 282.277 114.968C283.41 117.1 288.735 122.647 291.196 123.754C291.806 124.029 292.948 123.318 293.497 122.986L293.704 122.859C293.274 124.292 292.017 123.78 292.03 124.767C293.003 124.952 293.631 123.642 294.644 123.606C294.01 124.51 291.755 126.239 290.689 125.381C287.902 123.138 285.751 120.148 282.989 117.842C282.333 117.294 280.758 116.209 280.565 115.533L281.137 114.553Z"/><path fill="#AA0F11" d="M267.575 90.5235C269.002 96.1215 274.352 97.3018 276.6 102.274C276.922 102.987 276.388 103.813 276.03 104.402C275.013 105.267 273.813 106.341 272.771 107.138C272.724 107.24 272.776 107.166 272.463 107.381C270.463 102.973 266.007 99.8774 262.352 96.6056C264.224 93.7357 265.059 92.7648 267.575 90.5235Z"/><path fill="#D22728" d="M273.437 104.907C271.949 104.132 265.084 97.4466 265.043 95.9828C265.614 95.3209 265.264 95.5209 266.138 95.3769C269.249 96.2414 272.754 101.122 274.586 103.68C274.276 104.032 273.778 104.639 273.437 104.907Z"/><path fill="#AA0F11" d="M274.586 103.68L276.03 104.402C275.013 105.267 273.813 106.341 272.771 107.138L272.582 106.766C272.774 106.005 273.053 105.6 273.437 104.907C273.778 104.639 274.276 104.032 274.586 103.68Z"/><path fill="#F36D63" d="M182.599 291.526L182.598 291.847C180.199 294.603 176.576 299.321 172.724 299.664C171.445 299.777 170.403 299.747 169.139 299.652C167.774 299.55 168.075 300.18 166.788 299.43L167.053 299.488C170.268 298.648 169.093 297.417 171.352 296.309C173.786 295.116 176.912 295.096 179.46 294.107C180.847 293.568 181.551 292.627 182.599 291.526Z"/><path fill="#F36D63" d="M236.228 57.8097C236.852 57.8902 236.939 57.8434 237.429 58.2454L237.373 58.8474L237.082 59.0191L236.698 58.8989L236.228 57.8097Z"/><defs><linearGradient id="gradient_3" gradientUnits="userSpaceOnUse" x1="282.81873" y1="351.10471" x2="231.35303" y2="210.3344"><stop offset="0" stop-color="#D73434"/><stop offset="1" stop-color="#F65B51"/></linearGradient></defs><path fill="url(#gradient_3)" d="M123.238 294.473C122.268 297.532 120.144 301.877 120.959 304.928C121.832 308.195 127.454 312.125 130.386 313.675C139.419 318.452 142.035 312.201 149.494 310.077C154.881 308.659 162.441 307.641 167.482 310.432C174.226 314.168 176.554 317.532 183.945 312.095C194.321 304.461 202.751 294.126 211.92 285.068L301.977 195.624L328.529 169.763C332.934 165.479 337.37 160.945 341.91 156.794C343.336 155.491 345.072 155.062 346.899 154.495C347.856 156.556 349.211 159.001 350.279 161.049C358.08 172.413 364.628 176.056 378.495 175.653C379.524 176.853 380.285 177.846 380.922 179.319C381.689 180.991 382.285 182.62 381.629 184.449C381.538 184.704 381.436 184.955 381.323 185.202C380.968 185.585 379.937 186.638 379.722 187.019C379.906 188.571 379.531 189.011 380.291 189.841C379.618 190.224 379.382 190.361 378.661 190.623C378.065 190.399 377.975 190.335 377.45 190.018C374.451 194.418 372.798 198.313 374.849 203.47C376.864 206.326 379.471 209.26 383.12 209.788C386.456 210.272 387.982 210.805 387.383 214.555C385.814 219.168 381.182 221.062 378.908 226.932C377.865 231.455 379.583 233.686 381.728 237.687C382.658 239.423 386.605 243.624 388.997 242.1C389.195 241.974 389.6 241.489 389.76 241.305C392.074 241.021 392.326 244.71 391.932 246.329C391.759 249.099 391.65 251.959 391.419 254.71C390.581 253.876 390.687 253.728 389.627 253.453C385.438 254.323 385.027 263.684 385.294 267.059C386.709 270.882 388.198 272.795 392.058 274.526C392.316 274.644 392.577 274.753 392.842 274.854L396.468 275.913C400.98 287.348 397.415 285.379 388.56 291.293C381.912 295.733 377.317 303.715 374.602 311.089C373.92 312.877 373.378 316.875 373.154 318.852C361.616 321.336 349.345 322.621 337.713 324.962C333.541 325.802 328.622 325.667 324.386 326.531C315.065 328.26 305.657 330.17 296.316 331.769C291.356 332.618 283.448 334.131 278.546 334.506C266.427 337.1 254.004 338.387 241.814 340.615C237.752 341.357 233.64 342.419 229.584 343.273C217.673 345.779 205.518 346.901 193.594 349.379C192.618 349.582 191.08 349.946 190.123 350.031C177.929 352.765 164.572 353.527 152.221 355.8C150.903 356.043 148.401 356.08 147.124 355.662C146.331 354.704 145.628 352.007 145.204 350.713C143.054 347.883 140.729 344.53 137.902 342.443C137.606 342.333 136.662 341.732 136.099 341.506C134.571 340.893 132 340.08 130.59 339.305C132.354 339.458 132.536 340.706 134.289 340.009C134.89 339.77 136.175 340.935 137.399 341.103C137.201 339.787 132.174 336.341 130.777 335.804C125.946 333.948 113.972 336.939 114.139 328.941C113.289 326.717 111.925 324.376 113.235 322.179C116.546 318.55 119.141 319.314 120.175 311.844C121.682 300.954 112.305 302.497 107.127 294.978C109.319 293.812 111.498 292.62 113.662 291.403C116.607 290.058 124.077 290.213 123.238 294.473Z"/><path fill="#B6302F" d="M123.238 294.473C122.268 297.532 120.144 301.877 120.959 304.928C121.832 308.195 127.454 312.125 130.386 313.675C139.419 318.452 142.035 312.201 149.494 310.077C154.881 308.659 162.441 307.641 167.482 310.432C174.226 314.168 176.554 317.532 183.945 312.095C194.321 304.461 202.751 294.126 211.92 285.068L301.977 195.624L328.529 169.763C332.934 165.479 337.37 160.945 341.91 156.794C343.336 155.491 345.072 155.062 346.899 154.495C347.856 156.556 349.211 159.001 350.279 161.049C349.458 162.078 350.773 164.293 351.312 165.469C351.043 166.382 350.944 166.876 350.743 167.75C349.522 173.061 343.547 178.4 339.868 182.33C340.315 186.591 341.035 191.294 341.411 195.428C336.261 196.238 334.412 195.439 333.739 189.997C333.682 189.519 333.645 189.038 333.627 188.557C320.222 201.721 306.92 214.99 293.724 228.363L246.558 275.357C242.4 279.543 238.393 283.933 234.154 288.037C230.109 291.952 225.887 295.558 221.956 299.612C214.683 307.113 208.133 314.28 200.138 321.055L200.24 321.623C197.882 322.681 172.519 326.015 169.094 326.051C167.493 326.067 164.994 326.148 163.309 325.831C159.46 322.603 161.837 321.647 158.626 318.528C158.158 318.073 157.843 317.979 157.288 318.038C155.531 320.695 159.519 321.443 158.712 323.783C157.741 323.023 156.629 321.803 155.6 322.775C155.872 323.481 156.067 323.915 156.207 324.657C154.958 324.639 153.381 324.522 152.276 325.035C146.567 327.682 141.614 332.81 134.51 330.169C131.039 328.81 117.765 321.641 115.07 322.276C114.419 322.429 114.081 322.426 113.436 322.242C113.368 322.222 113.302 322.2 113.235 322.179C116.546 318.55 119.141 319.314 120.175 311.844C121.682 300.954 112.305 302.497 107.127 294.978C109.319 293.812 111.498 292.62 113.662 291.403C116.607 290.058 124.077 290.213 123.238 294.473Z"/><path fill="#740A0B" d="M113.662 291.403C116.607 290.058 124.077 290.213 123.238 294.473C118.887 292.602 119.348 291.503 113.662 291.403Z"/><path fill="#D22728" d="M134.51 330.169C135.578 329.995 139.441 330.488 140.719 330.253C144.386 329.576 151.863 324.752 154.752 322.615L154.987 322.439L155.6 322.775C155.872 323.481 156.067 323.915 156.207 324.657C154.958 324.639 153.381 324.522 152.276 325.035C146.567 327.682 141.614 332.81 134.51 330.169Z"/><path fill="#AA0F11" d="M351.818 279.849C354.697 282.006 355.799 284.19 356.421 287.607C357.912 295.801 352.91 302.191 344.892 303.913C333.253 306.413 320.974 307.8 309.188 309.792L222.356 324.254C217.051 325.113 196.248 327.92 192.988 329.869C192.901 329.833 191.992 329.46 191.992 329.46C184.568 330.371 177.355 332.15 169.886 332.845C167.237 333.092 164.63 331.525 162.367 333.34C158.645 330.918 158.135 328.726 156.207 324.657C156.067 323.915 155.872 323.481 155.6 322.775C156.629 321.803 157.741 323.023 158.712 323.783C159.519 321.443 155.531 320.695 157.288 318.038C157.843 317.979 158.158 318.073 158.626 318.528C161.837 321.647 159.46 322.603 163.309 325.831C164.994 326.148 167.493 326.067 169.094 326.051C172.519 326.015 197.882 322.681 200.24 321.623C208.305 320.683 216.504 319.1 224.539 317.746L271.174 309.868L320.381 301.729C327.797 300.514 335.332 299.925 342.617 298.231C345.37 297.591 351.876 295.601 350.662 291.866C349.057 286.932 346.45 284.255 351.818 279.849Z"/><path fill="#B6302F" d="M145.124 348.685C145.584 349.607 145.614 349.843 146.435 350.385C147.379 350.629 148.973 350.014 149.987 349.798C157.891 348.11 165.1 346.256 173.238 346.096C169.394 346.726 159.3 347.295 156.537 349.138L156.394 349.606C157.517 349.733 158.485 349.467 159.566 349.143C160.396 349.361 160.148 349.287 160.864 349.673C163.413 351.046 177.166 349.679 178.369 350.512C177.509 351.903 174.289 349.974 172.687 351.545L172.686 352.145L172.884 352.309C175.187 351.788 178.666 351.484 181.101 351.131C183.667 350.758 186.576 349.993 189.095 349.787L190.123 350.031C177.929 352.765 164.572 353.527 152.221 355.8C150.903 356.043 148.401 356.08 147.124 355.662C146.331 354.704 145.628 352.007 145.204 350.713L145.124 348.685Z"/><path fill="#ED8379" d="M377.537 226.201C378.228 226.486 378.291 226.515 378.908 226.932C377.865 231.455 379.583 233.686 381.728 237.687C382.658 239.423 386.605 243.624 388.997 242.1C389.195 241.974 389.6 241.489 389.76 241.305C392.074 241.021 392.326 244.71 391.932 246.329C388.044 246.52 384.312 246.932 381.002 244.369C380.138 243.707 379.575 242.727 379.44 241.647L380.143 241.274C380.104 240.651 380.201 240.964 379.594 240.397C376.582 234.915 376.43 232.277 377.537 226.201Z"/><path fill="#B6302F" d="M162.367 333.34C164.63 331.525 167.237 333.092 169.886 332.845C177.355 332.15 184.568 330.371 191.992 329.46C191.992 329.46 192.901 329.833 192.988 329.869C186.641 336.015 181.143 335.161 173.105 334.611C169.028 334.332 166.491 336.503 162.367 333.34Z"/><defs><linearGradient id="gradient_4" gradientUnits="userSpaceOnUse" x1="365.46301" y1="168.72447" x2="363.35336" y2="174.64616"><stop offset="0" stop-color="#E1C3B1"/><stop offset="1" stop-color="#E8D2D1"/></linearGradient></defs><path fill="url(#gradient_4)" d="M351.312 165.469C350.773 164.293 349.458 162.078 350.279 161.049C358.08 172.413 364.628 176.056 378.495 175.653C379.524 176.853 380.285 177.846 380.922 179.319L380.654 179.61C379.497 179.545 378.25 177.519 377.45 177.579C367.463 178.333 357.635 173.793 351.312 165.469Z"/><path fill="#B6302F" d="M189.095 349.787C191.746 348.958 199.611 347.684 202.604 347.201C213.159 345.497 223.289 344.262 233.719 341.782L233.68 341.597C233.16 341.326 233.177 341.361 232.821 340.901C233.233 340.54 234.111 340.295 234.669 340.099L234.984 340.296L234.447 341.327L234.592 341.563C236.197 341.453 238.663 340.559 240.453 340.245C248.572 338.871 256.704 337.577 264.849 336.365C267.543 335.937 276.404 334.012 278.546 334.506C266.427 337.1 254.004 338.387 241.814 340.615C237.752 341.357 233.64 342.419 229.584 343.273C217.673 345.779 205.518 346.901 193.594 349.379C192.618 349.582 191.08 349.946 190.123 350.031L189.095 349.787Z"/><path fill="#3D1210" d="M114.139 328.941C115.209 330.831 116.78 332.524 118.967 332.808C128.056 333.991 131.228 334.677 138.482 340.641C138.333 341.514 138.299 341.654 137.902 342.443C137.606 342.333 136.662 341.732 136.099 341.506C134.571 340.893 132 340.08 130.59 339.305C132.354 339.458 132.536 340.706 134.289 340.009C134.89 339.77 136.175 340.935 137.399 341.103C137.201 339.787 132.174 336.341 130.777 335.804C125.946 333.948 113.972 336.939 114.139 328.941Z"/><path fill="#EE9682" d="M374.849 203.47C376.864 206.326 379.471 209.26 383.12 209.788C386.456 210.272 387.982 210.805 387.383 214.555C382.839 210.964 377.902 212.168 375.247 208.624C376.615 208.86 377.346 210.577 379.27 210.716C379.287 210.508 379.358 208.883 379.301 208.854C377.105 207.697 375.843 205.549 374.42 203.549L374.849 203.47Z"/><path fill="#740A0B" d="M138.482 340.641C140.678 342.41 144.27 345.959 145.124 348.685L145.204 350.713C143.054 347.883 140.729 344.53 137.902 342.443C138.299 341.654 138.333 341.514 138.482 340.641Z"/><path fill="#ED5652" d="M392.842 274.854C390.714 275.876 389.06 274.936 387.392 273.541C385.571 272.016 383.465 269.247 385.294 267.059C386.709 270.882 388.198 272.795 392.058 274.526C392.316 274.644 392.577 274.753 392.842 274.854Z"/><path fill="#B6302F" d="M379.594 240.397L379.248 240.376C375.505 238 375.09 232.78 375.364 228.799L375.642 228.571L375.409 228.417L375.559 227.8C375.885 228.77 375.654 231.931 375.8 233.354C376.884 232.478 376.184 228.375 377.328 225.886L377.537 226.201C376.43 232.277 376.582 234.915 379.594 240.397Z"/><path fill="#201613" d="M379.722 187.019C379.906 188.571 379.531 189.011 380.291 189.841C379.618 190.224 379.382 190.361 378.661 190.623C378.065 190.399 377.975 190.335 377.45 190.018C378.075 189.093 379.023 187.928 379.722 187.019Z"/><path fill="#B6302F" d="M336.751 202.724C339.794 202.654 342.803 204.147 343.349 207.292C343.734 209.507 345.585 219.315 344.699 220.795C342.132 221.514 341.265 221.365 338.89 220.452C338.462 218.099 336.683 204.645 336.751 202.724Z"/><path fill="#AA0F11" d="M349.668 257.112C350.685 257.02 350.554 256.858 351.169 257.314C352.372 261.575 353.431 267.822 353.173 272.223C352.032 273.866 351.507 274.773 349.315 274.204C345.927 270.181 345.765 262.869 344.796 257.495C346.334 257.3 348.105 257.22 349.668 257.112Z"/><path fill="#AA0F11" d="M341.797 230.087C343.991 230.108 346.184 230.173 348.375 230.28C347.07 235.681 348.107 238.761 348.525 244.144C348.624 245.422 348.57 246.13 347.712 247.075C346.717 247.305 344.129 247.591 343.689 246.346C342.079 241.785 340.839 235.71 340.846 230.877C340.847 230.402 341.433 230.25 341.797 230.087Z"/><path fill="#E1C0B8" d="M316.919 98.6941C315.61 97.374 313.517 95.0956 314.339 93.1873C316.983 97.6282 319.87 99.515 324.743 101.442C323.648 102.146 323.951 102.049 322.501 102.086C320.102 101.101 319.044 100.079 316.919 98.6941Z"/><path fill="#0D150D" d="M135.611 344.094C137.374 344.729 138.952 346.036 139.598 347.846L139.238 348.291C137.899 347.335 135.16 346.465 134.963 344.897L135.611 344.094Z"/><path fill="#0D150D" d="M55.9482 225.889C58.0146 227.117 56.9764 229.041 55.5375 230.291C55.4216 230.206 55.3076 230.119 55.1956 230.029C53.3498 228.533 54.7452 227.149 55.9482 225.889Z"/><path fill="#5F2526" fill-opacity="0.98823529" d="M381.323 185.202C381.568 186.929 381.64 187.669 380.904 189.326L380.291 189.841C379.531 189.011 379.906 188.571 379.722 187.019C379.937 186.638 380.968 185.585 381.323 185.202Z"/></svg>