<?xml version="1.0" encoding="utf-8" ?><svg xmlns="http://www.w3.org/2000/svg" xmlns:xlink="http://www.w3.org/1999/xlink" width="460" height="387" viewBox="0 0 460 387"><path fill="#010101" d="M226.091 3.06422C233.478 2.77184 237.831 3.24958 243.542 8.84351C245.568 10.8284 247.085 13.4983 249.026 15.6495C252.852 19.8361 256.582 24.108 260.216 28.4618C268.12 38.0935 275.897 47.9003 284.175 57.2342C286.069 59.3702 287.701 62.2437 289.604 64.3208C298.879 74.4429 308.003 84.7614 316.225 95.7663C322.078 103.578 322.774 113.98 315.946 121.483C313.488 124.183 307.357 125.711 303.817 126.387C295.513 126.94 286.521 126.35 278.215 126.162C278.902 132.046 279.226 143.03 277.714 148.606C284.774 149 293.344 148.79 300.481 148.786L332.473 148.869C335.046 148.867 337.635 148.873 340.218 148.857C350.142 148.798 360.652 147.733 366.961 157.205C368.279 159.184 370.437 162.161 370.698 164.521C371.379 170.697 371.129 177.293 371.142 183.468L371.08 222.958L371.335 364.979C371.347 370.527 369.526 374.839 365.62 378.77C359.204 385.226 350.823 384.095 342.678 384.083L319.361 384.061L234.032 384.075L144.983 384.102L119.917 384.115C115.01 384.135 109.313 384.429 104.552 383.854C97.8405 383.043 92.1755 377.193 89.6479 371.247C88.2064 367.856 88.1632 365.297 88.1163 361.707C87.9482 348.866 88.0794 336.025 88.0602 323.185L88.0879 228.389L87.9581 181.97C87.973 176.771 87.6611 169.295 88.2713 164.301C88.9052 159.113 98.1968 150.196 103.378 149.49C112.035 148.309 120.915 148.911 129.599 148.855C146.82 148.743 164.084 149.129 181.285 148.741C180.771 144.154 180.478 131.593 181.538 127.398C181.619 127.077 181.724 126.855 181.64 126.525C181.592 126.339 177.331 126.444 176.766 126.443L163.531 126.482C156.725 126.495 150.946 126.343 145.084 122.276C137.057 116.706 136.419 105.112 141.753 97.4644C146.535 90.6066 151.487 85.4028 156.677 79.2024L190.794 38.7064C197.458 30.8004 203.625 22.3964 210.616 14.6793C216.1 8.62638 217.124 4.83421 226.091 3.06422Z"/><path fill="#562607" d="M239.938 163.046L280.029 162.969C286.297 162.961 292.58 162.912 298.849 162.82C299.395 162.813 300.302 162.907 300.682 163.313L300.728 163.587C301.015 165.367 300.471 166.365 300.753 167.324C302.308 168.138 304.436 166.08 305.996 167.336L305.107 171.218C304.077 174.318 304.309 190.492 304.295 194.509L304.282 232.607C304.311 277.205 303.928 322.169 304.474 366.739C304.731 367.957 305.156 369.661 305.169 370.852C303.45 370.918 300.51 371.188 299.002 370.555C296.525 370.502 293.691 370.69 291.147 370.714L266.223 370.967L172.039 370.797C157.776 370.886 143.512 370.824 129.25 370.612C122.757 370.562 116.543 370.779 110.017 370.519C108.023 370.516 104.826 369.32 103.105 368.233C102.474 367.835 102.56 367.081 102.486 366.349L102.428 262.349L102.445 236.31C102.449 231.921 102.343 226.935 102.528 222.584C102.31 210.217 102.213 197.847 102.234 185.478C102.215 181.796 101.957 169.535 102.398 166.409C103.937 166.1 105.166 166.396 106.211 165.544C106.58 164.756 106.587 164.728 106.582 163.848C106.315 163.419 106.405 163.65 106.409 163.118C107.211 162.693 127.402 162.999 129.861 163.001L174.953 162.875L213.821 163.01C222.268 163.009 231.557 162.805 239.938 163.046Z"/><path fill="#C6844C" d="M300.416 171.713C301.532 170.566 302.934 168.775 304.612 169.158C305.224 169.993 305.042 170.069 305.107 171.218C304.077 174.318 304.309 190.492 304.295 194.509L304.282 232.607C304.311 277.205 303.928 322.169 304.474 366.739L304.171 366.864C303.514 366.602 301.477 363.929 300.51 363.008C293.85 356.663 284.411 348.282 279.367 340.692C279.307 340.005 279.264 339.316 279.237 338.627C278.818 329.685 278.979 320.141 278.985 311.142L279.003 270.294L279.004 220.938C278.988 213.229 278.89 205.522 278.852 197.812C278.896 194.481 279.065 193.302 281.277 190.894C285.434 186.369 289.986 182.358 294.344 178.079C296.432 176.019 298.457 173.896 300.416 171.713Z"/><path fill="#9D6536" d="M132.38 345.03C140.094 344.631 148.626 344.787 156.411 344.79C171.329 344.881 186.247 344.89 201.164 344.82C218.034 344.674 234.904 344.647 251.774 344.739C258.62 344.764 269.101 344.351 275.563 344.931C276.747 346.465 277.584 347.526 278.925 348.952C282.212 351.705 285.784 355.977 288.862 359.137C290.934 361.263 298.892 368.35 299.002 370.555C296.525 370.502 293.691 370.69 291.147 370.714L266.223 370.967L172.039 370.797C157.776 370.886 143.512 370.824 129.25 370.612C122.757 370.562 116.543 370.779 110.017 370.519C109.068 369.912 108.682 369.712 108.567 368.596C108.989 367.655 109.742 366.719 110.467 366.012C116.967 359.684 123.575 353.649 128.759 346.156C129.567 344.988 131.034 345.041 132.38 345.03Z"/><path fill="#D89E6B" d="M132.38 345.03C140.094 344.631 148.626 344.787 156.411 344.79C171.329 344.881 186.247 344.89 201.164 344.82C218.034 344.674 234.904 344.647 251.774 344.739C258.62 344.764 269.101 344.351 275.563 344.931C276.747 346.465 277.584 347.526 278.925 348.952L278.479 349.341C275.347 349.652 266.418 349.466 262.943 349.5C251.996 349.667 241.049 349.754 230.101 349.759L179.513 349.533C174.136 349.543 131.147 350.301 128.915 349.206C128.705 348.415 129.927 347.667 130.346 347.056C130.375 347.014 130.653 345.58 130.679 345.441L132.38 345.03Z"/><defs><linearGradient id="gradient_0" gradientUnits="userSpaceOnUse" x1="204.61813" y1="188.52138" x2="204.62512" y2="164.97255"><stop offset="0" stop-color="#BA6B37"/><stop offset="1" stop-color="#D58F54"/></linearGradient></defs><path fill="url(#gradient_0)" d="M239.938 163.046L280.029 162.969C286.297 162.961 292.58 162.912 298.849 162.82C299.395 162.813 300.302 162.907 300.682 163.313C300.119 163.858 299.821 164.155 299.192 164.613C293.195 171.53 287.544 176.748 280.706 182.798C278.866 184.427 276.142 187.364 274.37 188.636C270.5 189.4 258.423 188.861 253.912 188.791C245.066 188.726 236.219 188.712 227.372 188.748L162.039 188.829C156.823 188.898 151.608 189.009 146.394 189.163C143.145 189.259 134.752 189.525 131.819 188.942C126.97 184.767 121.009 177.347 116.543 172.528C114.649 170.485 112.404 167.067 110.43 165.214C109.356 164.721 107.745 164.235 106.582 163.848C106.315 163.419 106.405 163.65 106.409 163.118C107.211 162.693 127.402 162.999 129.861 163.001L174.953 162.875L213.821 163.01C222.268 163.009 231.557 162.805 239.938 163.046Z"/><path fill="#E2B78C" d="M106.582 163.848C106.315 163.419 106.405 163.65 106.409 163.118C107.211 162.693 127.402 162.999 129.861 163.001L174.953 162.875L213.821 163.01C222.268 163.009 231.557 162.805 239.938 163.046C238.899 163.63 205.356 163.058 200.934 163.413C203.955 163.834 212.554 162.93 214.443 163.942L214.537 164.158C213.22 164.987 203.046 164.009 200.459 164.712C194.442 165.053 188.045 164.493 182 164.54C180.137 164.555 178.099 164.318 176.26 164.404C160.706 165.132 145.175 164.592 129.623 164.846L116.68 165.064C115.385 165.083 111.451 165.053 110.43 165.214C109.356 164.721 107.745 164.235 106.582 163.848Z"/><path fill="#E9CEAD" d="M239.938 163.046L280.029 162.969C286.297 162.961 292.58 162.912 298.849 162.82C299.395 162.813 300.302 162.907 300.682 163.313C300.119 163.858 299.821 164.155 299.192 164.613C297.637 164.334 296.582 164.649 295.12 164.628C263.679 164.183 231.854 165.834 200.459 164.712C203.046 164.009 213.22 164.987 214.537 164.158L214.443 163.942C212.554 162.93 203.955 163.834 200.934 163.413C205.356 163.058 238.899 163.63 239.938 163.046Z"/><path fill="#C6844C" d="M102.398 166.409C104.796 167.872 110.435 175.12 112.692 177.621C115.073 179.59 127.305 192.814 127.52 195.702C127.825 199.806 127.763 207.937 127.763 212.338L127.754 242.193L127.694 317.229C127.685 324.552 127.778 331.903 127.558 339.22C127.556 339.309 126.505 340.685 126.376 340.822C120.523 347 114.413 352.908 108.8 359.327C107.133 361.233 105.063 362.838 103.661 364.956C103.346 365.421 102.934 366.045 102.486 366.349L102.428 262.349L102.445 236.31C102.449 231.921 102.343 226.935 102.528 222.584C102.31 210.217 102.213 197.847 102.234 185.478C102.215 181.796 101.957 169.535 102.398 166.409Z"/><path fill="#E2B78C" d="M102.398 166.409C104.796 167.872 110.435 175.12 112.692 177.621C111.746 177.387 111.177 176.603 110.429 175.972C110.162 177.93 110.452 181.008 110.319 183.196C106.91 181.96 107.217 180.98 104.535 179.182C104.263 187.6 103.89 195.482 103.978 203.94C104.006 206.605 103.995 220.133 103.596 221.65C103.256 220.746 103.704 218.002 103.313 217.383C102.304 218.954 103.757 221.176 102.528 222.584C102.31 210.217 102.213 197.847 102.234 185.478C102.215 181.796 101.957 169.535 102.398 166.409Z"/><path fill="#7F502A" d="M305.996 167.336L305.107 171.218C305.042 170.069 305.224 169.993 304.612 169.158C302.934 168.775 301.532 170.566 300.416 171.713C299.861 166.499 303.49 168.461 305.996 167.336Z"/><path fill="#C6844C" d="M230.905 214.061C233.243 211.227 236.458 208.036 238.948 205.222C241.001 202.902 244.184 198.805 246.453 197.16C247.869 196.116 249.543 195.478 251.295 195.313C254.115 195.023 269.631 195.131 272.1 195.69C272.218 197.856 272.875 216.892 272.214 217.776C265.639 226.566 256.342 235.056 248.658 243.165L202.816 291.604L174.235 321.288C168.335 327.425 164.265 332.336 157.885 338.12C151.189 338.435 141.544 338.014 134.595 338.009C134.429 331.511 133.916 322.204 134.787 316.004C135.053 314.108 148.376 300.261 150.067 299.126C152.864 295.692 158.265 290.332 161.413 286.956C169.092 278.722 177.199 270.731 184.881 262.493C185.823 261.292 189.147 257.92 190.314 256.884C191.175 255.916 192.069 254.903 192.977 253.984C201.276 245.585 209.07 236.707 217.358 228.293C221.955 223.628 226.187 218.609 230.905 214.061Z"/><path fill="#E2B78C" d="M230.905 214.061L231.053 214.539C230.056 215.752 229.246 216.494 228.092 217.574C229.06 218.584 229.235 218.981 229.642 220.322C228.35 221.562 226.852 222.713 225.675 224.031C224.487 225.36 223.391 228.707 221.744 229.434C221.188 229.319 220.636 229.189 220.088 229.044L219.717 229.357C219.706 229.689 219.692 230.104 219.675 230.603C218.554 232.458 217.609 234.281 216.022 235.703C213.99 237.524 212.058 239.209 210.149 241.047C206.719 244.348 203.455 247.876 199.906 251.017C198.972 250.799 198.14 251.66 197.386 251.628C195.092 251.531 191.757 256.709 190.314 256.884C191.175 255.916 192.069 254.903 192.977 253.984C201.276 245.585 209.07 236.707 217.358 228.293C221.955 223.628 226.187 218.609 230.905 214.061Z"/><path fill="#E2B78C" d="M184.881 262.493C184.452 264.54 175.795 272.638 173.834 274.52C174.607 276.136 173.496 279.425 172.792 281.018L172.9 281.18C175.463 278.811 182.662 268.472 184.828 267.693L184.892 267.934C180.266 272.416 177.31 277.065 173.18 281.737C168.805 286.687 163.248 293.658 158.338 297.896L158.059 297.889C159.546 296.363 169.091 286.163 169.448 284.942C168.942 285.371 168.78 285.533 168.332 286.026C166.068 286.906 163.81 286.549 161.38 287.947C159.049 289.287 151.723 298.987 150.067 299.126C152.864 295.692 158.265 290.332 161.413 286.956C169.092 278.722 177.199 270.731 184.881 262.493Z"/><path fill="#D89E6B" d="M229.642 220.322C230.466 219.185 234.014 213.789 234.834 213.496C234.537 214.165 234.174 214.681 233.738 215.262C232.441 216.992 231.048 218.827 230.001 220.722C229.011 222.512 228.192 224.632 226.993 226.275C226.529 226.91 225.895 227.196 225.212 227.539C223.298 228.499 222.344 230.46 220.91 231.969C219.316 233.646 211.783 239.438 211.29 240.875C211.263 240.953 211.243 241.033 211.216 241.11C210.917 241.964 210.697 242.554 209.84 242.938C208.79 243.408 207.545 243.668 207.034 244.812C206.843 245.241 206.799 245.714 206.761 246.176C206.057 246.543 204.854 247.177 204.296 247.673C202.704 249.088 194.602 257.885 193.003 258.351L192.78 258.108C193.314 257.194 198.708 252.128 199.906 251.017C203.455 247.876 206.719 244.348 210.149 241.047C212.058 239.209 213.99 237.524 216.022 235.703C217.609 234.281 218.554 232.458 219.675 230.603C219.692 230.104 219.706 229.689 219.717 229.357L220.088 229.044C220.636 229.189 221.188 229.319 221.744 229.434C223.391 228.707 224.487 225.36 225.675 224.031C226.852 222.713 228.35 221.562 229.642 220.322Z"/><path fill="#9D6536" d="M242.2 259.019C246.202 254.675 268.774 229.598 272.245 229.084C272.521 229.6 272.478 229.261 272.398 229.8C271.574 235.375 272.084 241.566 272.192 247.153L272.458 269.783C272.726 292.5 272.39 315.495 272.449 338.233C264.796 338.176 257.144 338.159 249.491 338.181C245.179 338.195 239.8 338.39 235.567 338.16C235.901 337.608 235.995 337.502 236.397 337.029C236.484 325.216 236.508 313.403 236.469 301.589C236.416 295.481 235.914 285.365 236.275 279.635C235.906 277.079 235.824 269.215 235.663 266.278C235.496 263.218 239.806 260.946 242.2 259.019Z"/><path fill="#704622" d="M236.275 279.635C235.906 277.079 235.824 269.215 235.663 266.278C235.496 263.218 239.806 260.946 242.2 259.019C240.417 262.297 239.177 263.585 236.361 265.898C236.029 266.171 236.173 266.605 236.236 266.97C237.62 267.687 241.302 263.562 242.494 262.528L242.585 262.741C240.721 264.843 238.966 266.525 236.469 267.866C235.975 268.131 236.527 273.471 236.616 274.147C237.229 273.302 248.97 261.57 249.421 261.32L249.689 261.428C246.662 265.023 239.94 270.208 237.153 274.45C236.554 275.361 236.478 278.426 236.275 279.635Z"/><path fill="#9D6536" d="M134.454 204.043C134.45 202.444 134.313 197.105 134.704 195.834C137.621 195.316 168.833 195.252 170.23 195.969C170.595 196.539 170.478 236.003 170.029 240.009C170.055 244.796 170.049 249.383 170.191 254.175C170.315 258.339 170.784 264.103 170.447 268.112C168.508 270.474 165.076 273.415 162.81 275.768C158.896 279.758 155.328 284.431 151.367 288.346C145.443 294.199 140.065 299.188 134.91 305.781C134.197 298.691 134.947 288.931 134.665 281.464C134.011 264.136 134.371 246.597 134.38 229.25C134.385 220.749 133.998 212.582 134.454 204.043Z"/><path fill="#7F502A" d="M134.454 204.043C134.45 202.444 134.313 197.105 134.704 195.834C137.621 195.316 168.833 195.252 170.23 195.969C170.595 196.539 170.478 236.003 170.029 240.009C169.733 236.906 169.966 230.255 169.974 226.837L169.913 201.993C161.218 202.458 152.573 201.783 143.901 203.053C140.885 203.495 137.505 203.731 134.454 204.043Z"/><path fill="#9D6536" d="M196.284 307.648C202.122 299.852 211.451 291.028 218.222 283.872C219.909 282.089 221.515 280.073 223.166 278.236C225.403 275.747 228.041 273.864 229.8 271.058C230.166 270.474 230.549 269.822 231.121 269.727C231.735 271.289 231.227 292.005 230.968 294.833C231.071 299.198 230.873 303.714 230.912 308.12L231.387 338.526C222.516 338.546 212.968 338.672 204.132 338.451C195.439 338.843 185.753 338.292 176.707 338.666C179.897 339.028 184.096 338.482 187.059 338.888C186.718 339.049 175.99 339.448 174.891 338.712C174.286 338.307 173.488 338.332 173.122 337.285C172.86 336.535 172.885 335.903 173.178 335.23C173.915 333.534 174.652 327.994 175.391 326.732C178.383 321.631 183.484 318.728 187.489 314.618C189.474 312.581 191.146 310.521 193.103 308.502C194.074 307.501 195.027 307.577 196.284 307.648Z"/><defs><linearGradient id="gradient_1" gradientUnits="userSpaceOnUse" x1="197.82303" y1="292.24945" x2="209.71851" y2="311.06625"><stop offset="0" stop-color="#704423"/><stop offset="1" stop-color="#A17441"/></linearGradient></defs><path fill="url(#gradient_1)" d="M196.284 307.648C202.122 299.852 211.451 291.028 218.222 283.872C219.909 282.089 221.515 280.073 223.166 278.236C225.403 275.747 228.041 273.864 229.8 271.058C230.166 270.474 230.549 269.822 231.121 269.727C231.735 271.289 231.227 292.005 230.968 294.833L230.926 294.616C230.14 290.272 231.462 283.665 230.762 279.545L230.492 279.376C229.903 280.203 228.653 282.798 228.361 283.084C225.858 285.539 216.098 296.34 213.862 297.493C210.252 301.206 206.592 304.706 202.947 308.359C199.753 311.56 196.54 315.552 193.284 318.693C189.954 321.907 186.674 324.688 183.658 328.294C183.093 328.969 181.61 330.419 181.201 331.004C180.206 331.749 179.52 332.8 178.308 333.03C177.446 332.15 178.713 330.523 178.532 329.227C177.654 329.745 178.065 330.977 177.121 331.852L176.762 331.511C176.503 330.329 177.047 329.317 177.141 327.807L177.156 327.544C175.463 329.464 176.05 334.695 175.512 337.273C175.344 338.077 175.962 338.517 176.707 338.666C179.897 339.028 184.096 338.482 187.059 338.888C186.718 339.049 175.99 339.448 174.891 338.712C174.286 338.307 173.488 338.332 173.122 337.285C172.86 336.535 172.885 335.903 173.178 335.23C173.915 333.534 174.652 327.994 175.391 326.732C178.383 321.631 183.484 318.728 187.489 314.618C189.474 312.581 191.146 310.521 193.103 308.502C194.074 307.501 195.027 307.577 196.284 307.648Z"/><path fill="#704622" d="M178.532 329.227C178.96 328.515 179.877 327.434 180.477 326.813C190.099 316.846 200.82 308.306 209.878 297.669C212.717 294.336 216.394 291.4 219.365 288.069C221.977 285.141 224.536 281.309 227.801 279.165C228.243 278.921 228.851 279.28 229.217 279.482L229.357 280.07C228.43 283.686 217.034 293.707 214.022 297.299L213.862 297.493C210.252 301.206 206.592 304.706 202.947 308.359C199.753 311.56 196.54 315.552 193.284 318.693C189.954 321.907 186.674 324.688 183.658 328.294C183.093 328.969 181.61 330.419 181.201 331.004C180.206 331.749 179.52 332.8 178.308 333.03C177.446 332.15 178.713 330.523 178.532 329.227Z"/><defs><linearGradient id="gradient_2" gradientUnits="userSpaceOnUse" x1="188.10725" y1="327.99515" x2="180.73402" y2="316.53528"><stop offset="0" stop-color="#472505"/><stop offset="1" stop-color="#8A4A17"/></linearGradient></defs><path fill="url(#gradient_2)" d="M176.707 338.666C179.897 339.028 184.096 338.482 187.059 338.888C186.718 339.049 175.99 339.448 174.891 338.712C174.286 338.307 173.488 338.332 173.122 337.285C172.86 336.535 172.885 335.903 173.178 335.23C173.915 333.534 174.652 327.994 175.391 326.732C178.383 321.631 183.484 318.728 187.489 314.618C189.474 312.581 191.146 310.521 193.103 308.502C194.074 307.501 195.027 307.577 196.284 307.648C193.166 312.502 187.635 317.726 183.399 321.669C181.309 323.615 178.999 325.345 177.156 327.544C175.463 329.464 176.05 334.695 175.512 337.273C175.344 338.077 175.962 338.517 176.707 338.666Z"/><path fill="#7F502A" d="M177.156 327.544L177.141 327.807C177.047 329.317 176.503 330.329 176.762 331.511L177.121 331.852C178.065 330.977 177.654 329.745 178.532 329.227C178.713 330.523 177.446 332.15 178.308 333.03C179.52 332.8 180.206 331.749 181.201 331.004C177.316 335.841 184.033 335.393 187.044 335.609C185.689 336.743 178.504 335.225 176.484 335.685C176.478 335.686 176.405 336.518 176.393 336.634C176.347 337.107 176.36 337.638 176.373 338.128L195.031 338.158C196.924 338.171 202.57 338.151 204.132 338.451C195.439 338.843 185.753 338.292 176.707 338.666C175.962 338.517 175.344 338.077 175.512 337.273C176.05 334.695 175.463 329.464 177.156 327.544Z"/><path fill="#9D6536" d="M175.939 202.373L175.721 195.904C176.811 195.843 178.31 195.662 179.356 195.71C187.138 196.064 194.94 195.421 202.705 195.524C212.3 195.651 221.895 196.113 231.491 196.281C231.387 197.706 231.297 203.339 231.155 204.026C229.056 207.92 214.554 221.64 210.666 225.8C205.253 231.593 198.872 238.121 193.32 243.902C190.2 247.12 187.126 250.381 184.096 253.683C181.559 256.464 178.729 259.755 176.015 262.294L175.939 202.373Z"/><path fill="#7F502A" d="M175.939 202.373L175.721 195.904C176.811 195.843 178.31 195.662 179.356 195.71C187.138 196.064 194.94 195.421 202.705 195.524C212.3 195.651 221.895 196.113 231.491 196.281C231.387 197.706 231.297 203.339 231.155 204.026C231.104 203.259 231.114 203.165 230.852 202.456C229.72 201.779 224.932 202.426 223.352 202.297C214.788 201.594 207.037 201.727 198.499 202.299C191.647 202.759 182.753 202.986 175.939 202.373Z"/><path fill="#704622" d="M167.019 335.276L167.129 335.102C167.895 333.856 167.804 333.11 168.742 332.7C170.133 332.866 171.19 334.646 171.318 335.98C171.242 337.148 171.302 337.974 170.48 338.752C169.22 339.287 167.437 338.801 165.997 338.59L167.019 335.276Z"/><path fill="#522F16" d="M167.019 335.276L167.129 335.102C167.895 333.856 167.804 333.11 168.742 332.7C170.133 332.866 171.19 334.646 171.318 335.98C169.767 335.586 168.349 334.837 167.019 335.276Z"/><path fill="#60D148" d="M151.96 106.504C169.556 86.3005 186.897 65.8767 203.98 45.2378C208.983 39.2447 223.824 19.2259 230.038 15.814C231.444 16.996 232.533 18.1362 233.736 19.5114C244.488 31.5421 254.541 44.5846 265.25 56.6913C268.881 60.7963 272.455 64.9886 275.93 69.2264C280.151 73.9972 283.912 79.3166 288.097 84.1387C288.859 85.0167 289.733 86.071 290.4 87.0128C292.408 89.2957 306.331 105.683 306.85 107.408C306.804 107.624 306.731 108.031 306.662 108.225L305.357 111.098C303.167 111.35 301.765 111.457 299.55 111.501C288.582 112.454 275.48 111.253 264.411 112.15C264.24 115.375 264.443 118.932 264.498 122.193L264.647 136.732C264.743 142.876 264.451 149.751 264.649 155.679L194.231 155.818L194.24 128.248C194.238 125.892 194.097 117.092 194.481 115.196L194.537 112.002C187.162 111.899 179.787 111.871 172.412 111.916C166.49 111.949 160.026 112.113 154.166 111.728C153.409 110.05 152.677 108.212 151.96 106.504Z"/><path fill="#97ED67" d="M151.96 106.504C169.556 86.3005 186.897 65.8767 203.98 45.2378C208.983 39.2447 223.824 19.2259 230.038 15.814C231.444 16.996 232.533 18.1362 233.736 19.5114C244.488 31.5421 254.541 44.5846 265.25 56.6913C268.881 60.7963 272.455 64.9886 275.93 69.2264C280.151 73.9972 283.912 79.3166 288.097 84.1387C288.859 85.0167 289.733 86.071 290.4 87.0128C292.408 89.2957 306.331 105.683 306.85 107.408C306.804 107.624 306.731 108.031 306.662 108.225L305.357 111.098C303.167 111.35 301.765 111.457 299.55 111.501C300.756 110.455 301.505 111.209 302.789 110.541C302.455 109.172 298.791 107.744 297.76 106.427C291.782 98.7838 285.57 91.2021 279.623 83.5379C275.516 78.2447 270.428 73.4296 266.321 68.069C263.066 64.1541 259.233 60.4823 256.003 56.5719C252.832 52.7317 249.929 48.5302 246.736 44.6848C242.434 39.5023 238.266 34.51 233.42 29.8238C231.874 28.3291 230.505 26.2416 228.996 24.6816C227.537 26.404 225.852 27.9141 224.324 29.5893C219.295 34.9926 214.433 40.5068 209.528 46.019C203.937 52.3026 199.616 59.7412 193.808 65.7528C188.874 70.8598 185.188 76.732 180.783 82.3403C176.13 88.2639 164.11 99.052 162.066 106.262L162.159 106.64L162.733 106.542L162.755 106.18L163.023 105.942C173.454 107.443 183.076 107.143 193.553 107.025C194.274 107.017 195.171 107.147 195.741 107.582C195.396 108.655 194.865 109.072 195.164 110.123C195.446 111.119 198.393 111.338 198.472 112.432C197.506 112.31 197.461 111.52 196.206 111.144C193.97 111.855 194.809 123.537 194.707 126.169C194.18 122.345 194.847 118.889 194.481 115.196L194.537 112.002C187.162 111.899 179.787 111.871 172.412 111.916C166.49 111.949 160.026 112.113 154.166 111.728C153.409 110.05 152.677 108.212 151.96 106.504Z"/><path fill="#EAEFDF" d="M233.736 19.5114C244.488 31.5421 254.541 44.5846 265.25 56.6913C268.881 60.7963 272.455 64.9886 275.93 69.2264C275.093 69.7057 275.349 69.728 274.567 69.6316C273.419 68.5992 272.382 67.5214 271.347 66.3767C265.854 60.2995 260.118 54.3854 254.895 48.074C249.564 41.5715 244.741 34.7616 238.957 28.6351C236.959 26.5189 234.998 23.7458 233.462 21.2716C233.151 20.77 233.557 20.0214 233.736 19.5114Z"/><path fill="#BFEE96" d="M306.662 108.225C306.133 107.997 304.818 107.802 304.528 107.416C300.406 101.937 296.141 96.6087 291.763 91.3347C290.943 90.348 288.632 87.0753 288.77 85.9549L289.057 85.9662C289.515 86.6518 289.631 86.7134 290.4 87.0128C292.408 89.2957 306.331 105.683 306.85 107.408C306.804 107.624 306.731 108.031 306.662 108.225Z"/><path fill="#97ED67" d="M229.515 30.8807C230.894 31.0149 232.483 33.1422 233.04 34.3486C233.018 35.4321 231.779 37.1143 231.144 38.552C232.366 37.9969 233.184 36.8721 234.098 35.8738C235.153 34.7204 234.989 34.6728 234.905 33.3254L235.328 33.5107C235.46 34.626 235.015 35.2287 234.364 36.1132C231.179 40.4537 226.806 43.7422 223.681 48.1295C219.788 53.5955 214.828 58.1762 210.653 63.4247C208.504 66.1262 206.206 68.7071 204.214 71.5337C201.006 75.9508 199.258 74.3497 194.251 74.0089C202.064 60.8673 212.199 52.3333 221.934 40.7555C224.522 37.6781 226.337 33.5064 229.515 30.8807Z"/><path fill="#9D6536" d="M309.827 162.405C322.248 163.123 335.149 162.639 347.578 162.413C350.513 162.36 353.154 161.96 355.158 164.51C356.53 166.168 357.371 168.067 357.422 170.222C357.628 178.939 357.281 187.681 357.282 196.406L357.226 258.111L357.231 329.856L357.218 353.676C357.222 357.833 357.759 366.636 356.568 370.353C350.709 371.075 340.897 370.709 334.59 370.703C329.055 370.699 317.852 371.091 312.709 370.469C312.169 370.399 312.401 370.509 312.006 370.103C311.664 368.683 311.78 366.871 311.804 365.38C311.463 346.485 311.82 326.955 311.93 308.047L312.025 220.116L312.192 184.9C312.163 179.338 312.105 173.575 311.764 168.026C311.615 165.594 311.026 164.483 309.827 162.405Z"/><path fill="#A0806D" d="M311.804 365.38L311.829 365.12C312.412 358.952 311.663 350.905 312.119 344.417C312.287 345.549 312.289 349.582 312.535 350.034C312.644 349.136 312.743 344.797 312.878 344.393C313.001 348.071 313.592 368.551 312.709 370.469C312.169 370.399 312.401 370.509 312.006 370.103C311.664 368.683 311.78 366.871 311.804 365.38Z"/><path fill="#562607" d="M319.446 187.68C324.197 187.88 328.873 188.044 333.622 188.055C336.489 188.062 346.282 187.819 348.305 189.46C349.117 191.334 349.205 193.963 349.227 195.982C349.34 206.266 349.063 216.555 349.127 226.837L349.191 303.758C349.189 315.855 348.968 327.442 349.233 339.618L349.307 344.933C346.379 344.754 338.581 344.589 335.657 344.742C330.757 344.431 324.533 344.826 319.936 344.073C319.414 339.833 319.5 330.374 319.436 325.876C319.238 312.537 319.202 299.196 319.328 285.856L319.446 187.68Z"/><path fill="#7F502A" d="M325.639 195.509C331.738 195.354 337.394 195.35 343.489 195.794C343.235 206.528 343.465 217.033 343.521 227.75L343.454 254.186C343.551 282.109 343.47 310.033 343.209 337.956C337.469 337.965 331.73 338.062 325.993 338.248C325.731 329.668 326.016 319.972 326.016 311.275L325.943 258.212C326.02 246.19 326.011 234.169 325.914 222.147C325.854 217.303 325.843 212.474 325.803 207.631C325.769 203.589 325.481 199.556 325.639 195.509Z"/><path fill="#704622" d="M349.233 339.618C349.921 341.686 349.659 342.742 350.198 344.285C350.544 345.277 352.797 347.752 353.105 349.204C353.885 352.888 354.079 364.662 353.405 367.944L353.333 367.577C352.5 363.159 352.95 357.88 351.87 353.259C351.186 350.336 349.374 348.087 348.792 345.49C347.985 345.031 338.199 345.56 335.657 344.742C338.581 344.589 346.379 344.754 349.307 344.933L349.233 339.618Z"/></svg>